SplineFontDB: 3.2
FontName: RisingSun-Italic
FullName: Rising Sun Italic
FamilyName: Rising Sun
Weight: Book
Copyright: Copyright (c) 2012, The Raleway Project Authors (matt@pixelspread.com)
Version: 4.322
ItalicAngle: -12
UnderlinePosition: -125
UnderlineWidth: 50
Ascent: 800
Descent: 200
InvalidEm: 0
sfntRevision: 0x0004526e
LayerCount: 2
Layer: 0 1 "Back" 1
Layer: 1 1 "Fore" 0
XUID: [1021 158 994486733 14256788]
StyleMap: 0x0001
FSType: 0
OS2Version: 4
OS2_WeightWidthSlopeOnly: 0
OS2_UseTypoMetrics: 1
CreationTime: 1683073834
ModificationTime: 1710186988
PfmFamily: 81
TTFWeight: 400
TTFWidth: 5
LineGap: 21
VLineGap: 0
Panose: 0 0 0 0 0 0 0 0 0 0
OS2TypoAscent: 923
OS2TypoAOffset: 0
OS2TypoDescent: -213
OS2TypoDOffset: 0
OS2TypoLinegap: 21
OS2WinAscent: 944
OS2WinAOffset: 0
OS2WinDescent: 234
OS2WinDOffset: 0
HheadAscent: 923
HheadAOffset: 0
HheadDescent: -213
HheadDOffset: 0
OS2SubXSize: 650
OS2SubYSize: 600
OS2SubXOff: 0
OS2SubYOff: 75
OS2SupXSize: 650
OS2SupYSize: 600
OS2SupXOff: 0
OS2SupYOff: 350
OS2StrikeYSize: 50
OS2StrikeYPos: 300
OS2CapHeight: 710
OS2XHeight: 522
OS2Vendor: '    '
OS2CodePages: 2000019f.00000000
OS2UnicodeRanges: a00002ff.4000205b.00000000.00000000
Lookup: 1 0 0 "'aalt' Access All Alternates lookup 0" { "'aalt' Access All Alternates lookup 0 subtable"  } ['aalt' ('DFLT' <'dflt' > 'cyrl' <'BGR ' 'MKD ' 'SRB ' 'dflt' > 'latn' <'AZE ' 'CAT ' 'CRT ' 'KAZ ' 'MOL ' 'ROM ' 'TAT ' 'TRK ' 'dflt' > ) ]
Lookup: 3 0 0 "'aalt' Access All Alternates lookup 1" { "'aalt' Access All Alternates lookup 1 subtable"  } ['aalt' ('DFLT' <'dflt' > 'cyrl' <'BGR ' 'MKD ' 'SRB ' 'dflt' > 'latn' <'AZE ' 'CAT ' 'CRT ' 'KAZ ' 'MOL ' 'ROM ' 'TAT ' 'TRK ' 'dflt' > ) ]

StartChar: .notdef
Encoding: 65536 -1 0
Width: 608
GlyphClass: 1
Flags: W
LayerCount: 2
Fore
SplineSet
558 689 m 2,0,1
 558 699 558 699 553 704.5 c 128,-1,2
 548 710 548 710 540 710 c 2,3,-1
 69 710 l 2,4,5
 61 710 61 710 55.5 704 c 128,-1,6
 50 698 50 698 50 687 c 2,7,-1
 50 25 l 2,8,9
 50 12 50 12 55.5 6 c 128,-1,10
 61 0 61 0 77 0 c 2,11,-1
 525 0 l 2,12,13
 542 0 542 0 550 6.5 c 128,-1,14
 558 13 558 13 558 29 c 2,15,-1
 558 689 l 2,0,1
506 74 m 2,16,17
 506 61 506 61 499 55.5 c 128,-1,18
 492 50 492 50 478 50 c 2,19,-1
 125 50 l 2,20,21
 111 50 111 50 106.5 55 c 128,-1,22
 102 60 102 60 102 71 c 2,23,-1
 102 641 l 2,24,25
 102 650 102 650 106.5 655 c 128,-1,26
 111 660 111 660 118 660 c 2,27,-1
 491 660 l 2,28,29
 498 660 498 660 502 655 c 128,-1,30
 506 650 506 650 506 642 c 2,31,-1
 506 74 l 2,16,17
538 33 m 1,32,-1
 123 696 l 1,33,-1
 71 669 l 1,34,-1
 478 28 l 1,35,-1
 538 33 l 1,32,-1
EndSplineSet
EndChar

StartChar: exclam
Encoding: 33 33 4
Width: 258
GlyphClass: 1
Flags: W
LayerCount: 2
Fore
SplineSet
5 52 m 256,0,1
 2 39 2 39 4.5 28 c 128,-1,2
 7 17 7 17 14 8.5 c 128,-1,3
 21 0 21 0 31 -5 c 128,-1,4
 41 -10 41 -10 54 -10 c 256,5,6
 67 -10 67 -10 79 -5 c 128,-1,7
 91 0 91 0 101.5 8.5 c 128,-1,8
 112 17 112 17 119 28 c 128,-1,9
 126 39 126 39 129 52 c 256,10,11
 132 65 132 65 129.5 76 c 128,-1,12
 127 87 127 87 120 95.5 c 128,-1,13
 113 104 113 104 103 108.5 c 128,-1,14
 93 113 93 113 80 113 c 256,15,16
 67 113 67 113 55 108.5 c 128,-1,17
 43 104 43 104 32.5 95.5 c 128,-1,18
 22 87 22 87 15 76 c 128,-1,19
 8 65 8 65 5 52 c 256,0,1
139 240 m 1,20,-1
 205 500 l 1,21,-1
 251 717 l 1,22,-1
 163 717 l 1,23,-1
 117 500 l 1,24,-1
 71 240 l 1,25,-1
 139 240 l 1,20,-1
EndSplineSet
EndChar

StartChar: quotedbl
Encoding: 34 34 5
Width: 338
GlyphClass: 1
Flags: W
LayerCount: 2
Fore
SplineSet
102 514 m 1,0,-1
 145 514 l 1,1,-1
 259 721 l 1,2,-1
 176 721 l 1,3,-1
 102 514 l 1,0,-1
240 514 m 1,4,-1
 283 514 l 1,5,-1
 397 721 l 1,6,-1
 314 721 l 1,7,-1
 240 514 l 1,4,-1
EndSplineSet
EndChar

StartChar: numbersign
Encoding: 35 35 6
Width: 664
GlyphClass: 1
Flags: W
LayerCount: 2
Fore
SplineSet
672 511 m 1,0,-1
 559 511 l 1,1,-1
 648 710 l 1,2,-1
 575 710 l 1,3,-1
 488 511 l 1,4,-1
 333 511 l 1,5,-1
 421 710 l 1,6,-1
 349 710 l 1,7,-1
 261 511 l 1,8,-1
 124 511 l 1,9,-1
 110 447 l 1,10,-1
 231 447 l 1,11,-1
 154 269 l 1,12,-1
 30 269 l 1,13,-1
 16 201 l 1,14,-1
 123 201 l 1,15,-1
 33 0 l 1,16,-1
 106 0 l 1,17,-1
 195 201 l 1,18,-1
 350 201 l 1,19,-1
 260 0 l 1,20,-1
 333 0 l 1,21,-1
 422 201 l 1,22,-1
 564 201 l 1,23,-1
 578 269 l 1,24,-1
 452 269 l 1,25,-1
 530 447 l 1,26,-1
 658 447 l 1,27,-1
 672 511 l 1,0,-1
226 269 m 1,28,-1
 303 447 l 1,29,-1
 458 447 l 1,30,-1
 380 269 l 1,31,-1
 226 269 l 1,28,-1
EndSplineSet
EndChar

StartChar: dollar
Encoding: 36 36 7
Width: 596
GlyphClass: 1
Flags: W
LayerCount: 2
Fore
SplineSet
192 -107 m 1,0,-1
 235 -107 l 1,1,-1
 266 38 l 1,2,-1
 223 39 l 1,3,-1
 192 -107 l 1,0,-1
262 48 m 1,4,-1
 393 666 l 1,5,-1
 360 659 l 1,6,-1
 230 50 l 1,7,-1
 262 48 l 1,4,-1
356 665 m 1,8,-1
 401 672 l 1,9,-1
 431 815 l 1,10,-1
 388 815 l 1,11,-1
 356 665 l 1,8,-1
597 634 m 1,12,13
 580 652 580 652 558.5 667 c 128,-1,14
 537 682 537 682 511.5 692.5 c 128,-1,15
 486 703 486 703 456 709 c 128,-1,16
 426 715 426 715 392 715 c 0,17,18
 332 715 332 715 278.5 698 c 128,-1,19
 225 681 225 681 185.5 649.5 c 128,-1,20
 146 618 146 618 122.5 572.5 c 128,-1,21
 99 527 99 527 99 469 c 0,22,23
 99 437 99 437 110.5 413.5 c 128,-1,24
 122 390 122 390 144 372.5 c 128,-1,25
 166 355 166 355 198 342 c 128,-1,26
 230 329 230 329 271 318 c 0,27,28
 310 308 310 308 341 297.5 c 128,-1,29
 372 287 372 287 393.5 273.5 c 128,-1,30
 415 260 415 260 426.5 242.5 c 128,-1,31
 438 225 438 225 438 201 c 0,32,33
 438 171 438 171 426 147.5 c 128,-1,34
 414 124 414 124 391.5 107.5 c 128,-1,35
 369 91 369 91 337 82.5 c 128,-1,36
 305 74 305 74 264 74 c 0,37,38
 226 74 226 74 191.5 82.5 c 128,-1,39
 157 91 157 91 129.5 104.5 c 128,-1,40
 102 118 102 118 81.5 135 c 128,-1,41
 61 152 61 152 50 169 c 1,42,-1
 -9 93 l 1,43,44
 14 69 14 69 42 50 c 128,-1,45
 70 31 70 31 102.5 18.5 c 128,-1,46
 135 6 135 6 170.5 -0.5 c 128,-1,47
 206 -7 206 -7 245 -7 c 0,48,49
 305 -7 305 -7 358 7.5 c 128,-1,50
 411 22 411 22 451 51 c 128,-1,51
 491 80 491 80 514.5 124.5 c 128,-1,52
 538 169 538 169 538 229 c 0,53,54
 538 266 538 266 524.5 292 c 128,-1,55
 511 318 511 318 486.5 337 c 128,-1,56
 462 356 462 356 427 369.5 c 128,-1,57
 392 383 392 383 349 394 c 0,58,59
 312 403 312 403 283.5 412.5 c 128,-1,60
 255 422 255 422 236 433.5 c 128,-1,61
 217 445 217 445 207.5 460.5 c 128,-1,62
 198 476 198 476 198 498 c 0,63,64
 198 528 198 528 208.5 553 c 128,-1,65
 219 578 219 578 240.5 596 c 128,-1,66
 262 614 262 614 295 624.5 c 128,-1,67
 328 635 328 635 373 635 c 0,68,69
 403 635 403 635 430 628.5 c 128,-1,70
 457 622 457 622 478.5 611.5 c 128,-1,71
 500 601 500 601 516 588 c 128,-1,72
 532 575 532 575 540 561 c 1,73,-1
 597 634 l 1,12,13
EndSplineSet
EndChar

StartChar: percent
Encoding: 37 37 8
Width: 707
GlyphClass: 1
Flags: W
LayerCount: 2
Fore
SplineSet
212 428 m 0,0,1
 247 428 247 428 279.5 442 c 128,-1,2
 312 456 312 456 337.5 479 c 128,-1,3
 363 502 363 502 378.5 533.5 c 128,-1,4
 394 565 394 565 394 599 c 0,5,6
 394 625 394 625 385.5 647 c 128,-1,7
 377 669 377 669 361 685 c 128,-1,8
 345 701 345 701 323 710.5 c 128,-1,9
 301 720 301 720 274 720 c 0,10,11
 240 720 240 720 207 706 c 128,-1,12
 174 692 174 692 148.5 669 c 128,-1,13
 123 646 123 646 107.5 615 c 128,-1,14
 92 584 92 584 92 549 c 0,15,16
 92 524 92 524 101 501.5 c 128,-1,17
 110 479 110 479 125.5 463 c 128,-1,18
 141 447 141 447 163 437.5 c 128,-1,19
 185 428 185 428 212 428 c 0,0,1
222 476 m 0,20,21
 193 476 193 476 175 499 c 128,-1,22
 157 522 157 522 157 555 c 0,23,24
 157 578 157 578 166.5 599 c 128,-1,25
 176 620 176 620 191 636 c 128,-1,26
 206 652 206 652 225 662 c 128,-1,27
 244 672 244 672 264 672 c 0,28,29
 293 672 293 672 311 649 c 128,-1,30
 329 626 329 626 329 593 c 0,31,32
 329 571 329 571 319.5 549.5 c 128,-1,33
 310 528 310 528 295 512 c 128,-1,34
 280 496 280 496 261 486 c 128,-1,35
 242 476 242 476 222 476 c 0,20,21
456 -10 m 0,36,37
 491 -10 491 -10 523.5 4 c 128,-1,38
 556 18 556 18 581.5 41 c 128,-1,39
 607 64 607 64 622 95.5 c 128,-1,40
 637 127 637 127 637 161 c 0,41,42
 637 187 637 187 628.5 209 c 128,-1,43
 620 231 620 231 604.5 247 c 128,-1,44
 589 263 589 263 567 272.5 c 128,-1,45
 545 282 545 282 518 282 c 0,46,47
 484 282 484 282 451 268 c 128,-1,48
 418 254 418 254 392.5 231 c 128,-1,49
 367 208 367 208 351.5 177 c 128,-1,50
 336 146 336 146 336 111 c 0,51,52
 336 86 336 86 345 63.5 c 128,-1,53
 354 41 354 41 369.5 25 c 128,-1,54
 385 9 385 9 407 -0.5 c 128,-1,55
 429 -10 429 -10 456 -10 c 0,36,37
466 38 m 0,56,57
 437 38 437 38 418.5 61 c 128,-1,58
 400 84 400 84 400 117 c 0,59,60
 400 140 400 140 409.5 161 c 128,-1,61
 419 182 419 182 434 198 c 128,-1,62
 449 214 449 214 468 224 c 128,-1,63
 487 234 487 234 507 234 c 0,64,65
 536 234 536 234 554.5 211 c 128,-1,66
 573 188 573 188 573 155 c 0,67,68
 573 132 573 132 563.5 111 c 128,-1,69
 554 90 554 90 539 73.5 c 128,-1,70
 524 57 524 57 505 47.5 c 128,-1,71
 486 38 486 38 466 38 c 0,56,57
49 -5 m 1,72,-1
 381 343 l 1,73,-1
 715 678 l 1,74,-1
 680 715 l 1,75,-1
 353 370 l 1,76,-1
 15 33 l 1,77,-1
 49 -5 l 1,72,-1
EndSplineSet
EndChar

StartChar: ampersand
Encoding: 38 38 9
Width: 672
GlyphClass: 1
Flags: W
LayerCount: 2
Fore
SplineSet
184 -10 m 0,0,1
 245 -10 245 -10 304 21.5 c 128,-1,2
 363 53 363 53 413 110 c 128,-1,3
 463 167 463 167 500.5 245 c 128,-1,4
 538 323 538 323 555 416 c 1,5,-1
 477 416 l 1,6,7
 464 341 464 341 436 276 c 128,-1,8
 408 211 408 211 371.5 163 c 128,-1,9
 335 115 335 115 291.5 87.5 c 128,-1,10
 248 60 248 60 203 60 c 0,11,12
 161 60 161 60 132 87 c 128,-1,13
 103 114 103 114 103 165 c 0,14,15
 103 197 103 197 116.5 224 c 128,-1,16
 130 251 130 251 153 275 c 128,-1,17
 176 299 176 299 208.5 321 c 128,-1,18
 241 343 241 343 278 365 c 1,19,-1
 236 418 l 1,20,21
 196 394 196 394 156.5 367.5 c 128,-1,22
 117 341 117 341 86 310 c 128,-1,23
 55 279 55 279 36 240.5 c 128,-1,24
 17 202 17 202 17 154 c 0,25,26
 17 118 17 118 29.5 88 c 128,-1,27
 42 58 42 58 64 36.5 c 128,-1,28
 86 15 86 15 116.5 2.5 c 128,-1,29
 147 -10 147 -10 184 -10 c 0,0,1
469 0 m 1,30,-1
 578 0 l 1,31,-1
 288 415 l 2,32,33
 270 441 270 441 258.5 461 c 128,-1,34
 247 481 247 481 240 497 c 128,-1,35
 233 513 233 513 230.5 525.5 c 128,-1,36
 228 538 228 538 228 548 c 0,37,38
 228 568 228 568 237.5 587 c 128,-1,39
 247 606 247 606 262.5 620.5 c 128,-1,40
 278 635 278 635 299 643.5 c 128,-1,41
 320 652 320 652 343 652 c 0,42,43
 381 652 381 652 411.5 625.5 c 128,-1,44
 442 599 442 599 456 560 c 1,45,-1
 516 614 l 1,46,47
 506 638 506 638 489.5 657.5 c 128,-1,48
 473 677 473 677 453 690.5 c 128,-1,49
 433 704 433 704 408.5 711.5 c 128,-1,50
 384 719 384 719 357 719 c 0,51,52
 315 719 315 719 276.5 704.5 c 128,-1,53
 238 690 238 690 208.5 665 c 128,-1,54
 179 640 179 640 162 606.5 c 128,-1,55
 145 573 145 573 145 534 c 0,56,57
 145 517 145 517 149 499.5 c 128,-1,58
 153 482 153 482 162 461.5 c 128,-1,59
 171 441 171 441 185 418 c 128,-1,60
 199 395 199 395 218 367 c 2,61,-1
 469 0 l 1,30,-1
472 347 m 1,62,-1
 638 347 l 1,63,-1
 653 416 l 1,64,-1
 487 416 l 1,65,-1
 472 347 l 1,62,-1
EndSplineSet
EndChar

StartChar: quotesingle
Encoding: 39 39 10
Width: 210
GlyphClass: 1
Flags: W
LayerCount: 2
Fore
SplineSet
149 510 m 1,0,-1
 263 717 l 1,1,-1
 180 717 l 1,2,-1
 106 510 l 1,3,-1
 149 510 l 1,0,-1
EndSplineSet
EndChar

StartChar: parenleft
Encoding: 40 40 11
Width: 278
GlyphClass: 1
Flags: W
LayerCount: 2
Fore
SplineSet
42 261 m 0,0,1
 42 224 42 224 46.5 185 c 128,-1,2
 51 146 51 146 59.5 107 c 128,-1,3
 68 68 68 68 80 30 c 128,-1,4
 92 -8 92 -8 107 -42 c 1,5,-1
 179 -8 l 1,6,7
 166 25 166 25 156 60.5 c 128,-1,8
 146 96 146 96 139 132 c 128,-1,9
 132 168 132 168 128.5 202.5 c 128,-1,10
 125 237 125 237 125 268 c 0,11,12
 125 330 125 330 147.5 395 c 128,-1,13
 170 460 170 460 202 520 c 128,-1,14
 234 580 234 580 270.5 630.5 c 128,-1,15
 307 681 307 681 334 714 c 1,16,-1
 273 744 l 1,17,18
 225 683 225 683 183 624.5 c 128,-1,19
 141 566 141 566 109.5 507.5 c 128,-1,20
 78 449 78 449 60 388 c 128,-1,21
 42 327 42 327 42 261 c 0,0,1
EndSplineSet
EndChar

StartChar: parenright
Encoding: 41 41 12
Width: 278
GlyphClass: 1
Flags: W
LayerCount: 2
Fore
SplineSet
256 432 m 0,0,1
 256 508 256 508 238 589 c 128,-1,2
 220 670 220 670 194 744 c 1,3,-1
 119 714 l 1,4,5
 128 692 128 692 137.5 659 c 128,-1,6
 147 626 147 626 154.5 587 c 128,-1,7
 162 548 162 548 167 506 c 128,-1,8
 172 464 172 464 172 424 c 0,9,10
 172 369 172 369 157 315.5 c 128,-1,11
 142 262 142 262 115 208 c 128,-1,12
 88 154 88 154 50.5 100.5 c 128,-1,13
 13 47 13 47 -32 -8 c 1,14,-1
 26 -42 l 1,15,16
 74 15 74 15 116 72.5 c 128,-1,17
 158 130 158 130 189 188.5 c 128,-1,18
 220 247 220 247 238 307.5 c 128,-1,19
 256 368 256 368 256 432 c 0,0,1
EndSplineSet
EndChar

StartChar: asterisk
Encoding: 42 42 13
Width: 322
GlyphClass: 1
Flags: W
LayerCount: 2
Fore
SplineSet
162 513 m 1,0,-1
 219 580 l 1,1,-1
 245 513 l 1,2,-1
 288 538 l 1,3,-1
 259 603 l 1,4,-1
 329 625 l 1,5,-1
 326 667 l 1,6,-1
 253 640 l 1,7,-1
 272 714 l 1,8,-1
 221 714 l 1,9,-1
 209 640 l 1,10,-1
 148 667 l 1,11,-1
 126 625 l 1,12,-1
 187 603 l 1,13,-1
 131 538 l 1,14,-1
 162 513 l 1,0,-1
EndSplineSet
EndChar

StartChar: plus
Encoding: 43 43 14
Width: 416
GlyphClass: 1
Flags: W
LayerCount: 2
Fore
SplineSet
257 391 m 1,0,-1
 257 519 l 1,1,-1
 177 519 l 1,2,-1
 177 391 l 1,3,-1
 59 391 l 1,4,-1
 59 319 l 1,5,-1
 177 319 l 1,6,-1
 177 191 l 1,7,-1
 257 191 l 1,8,-1
 257 319 l 1,9,-1
 375 319 l 1,10,-1
 375 391 l 1,11,-1
 257 391 l 1,0,-1
EndSplineSet
EndChar

StartChar: comma
Encoding: 44 44 15
Width: 211
GlyphClass: 1
Flags: W
LayerCount: 2
Fore
SplineSet
37 -160 m 1,0,-1
 171 100 l 1,1,-1
 88 100 l 1,2,-1
 -6 -160 l 1,3,-1
 37 -160 l 1,0,-1
EndSplineSet
EndChar

StartChar: hyphen
Encoding: 45 45 16
Width: 406
GlyphClass: 1
Flags: W
LayerCount: 2
Fore
SplineSet
329 233 m 1,0,-1
 346 313 l 1,1,-1
 65 313 l 1,2,-1
 48 233 l 1,3,-1
 329 233 l 1,0,-1
EndSplineSet
EndChar

StartChar: period
Encoding: 46 46 17
Width: 202
GlyphClass: 1
Flags: W
LayerCount: 2
Fore
SplineSet
43 46 m 256,0,1
 38 23 38 23 50.5 6.5 c 128,-1,2
 63 -10 63 -10 87 -10 c 0,3,4
 110 -10 110 -10 130 6.5 c 128,-1,5
 150 23 150 23 155 46 c 256,6,7
 160 69 160 69 147 85.5 c 128,-1,8
 134 102 134 102 111 102 c 0,9,10
 87 102 87 102 67.5 85.5 c 128,-1,11
 48 69 48 69 43 46 c 256,0,1
EndSplineSet
EndChar

StartChar: slash
Encoding: 47 47 18
Width: 628
GlyphClass: 1
Flags: W
LayerCount: 2
Fore
SplineSet
582 710 m 1,0,-1
 -26 0 l 1,1,-1
 72 0 l 1,2,-1
 680 710 l 1,3,-1
 582 710 l 1,0,-1
EndSplineSet
Substitution2: "'frac' Diagonal Fractions lookup 23 subtable" fraction
Substitution2: "'aalt' Access All Alternates lookup 0 subtable" fraction
EndChar

StartChar: zero
Encoding: 48 48 19
Width: 665
GlyphClass: 1
Flags: W
LayerCount: 2
Fore
SplineSet
267 -10 m 0,0,1
 343 -10 343 -10 410 29.5 c 128,-1,2
 477 69 477 69 527.5 131.5 c 128,-1,3
 578 194 578 194 607 271 c 128,-1,4
 636 348 636 348 636 422 c 0,5,6
 636 473 636 473 624 524 c 128,-1,7
 612 575 612 575 585.5 616.5 c 128,-1,8
 559 658 559 658 518 684 c 128,-1,9
 477 710 477 710 419 710 c 0,10,11
 343 710 343 710 276 670 c 128,-1,12
 209 630 209 630 158.5 567 c 128,-1,13
 108 504 108 504 78.5 427 c 128,-1,14
 49 350 49 350 49 276 c 0,15,16
 49 225 49 225 61.5 174 c 128,-1,17
 74 123 74 123 100.5 82 c 128,-1,18
 127 41 127 41 168.5 15.5 c 128,-1,19
 210 -10 210 -10 267 -10 c 0,0,1
283 71 m 0,20,21
 245 71 245 71 218 87.5 c 128,-1,22
 191 104 191 104 174 131.5 c 128,-1,23
 157 159 157 159 149 195 c 128,-1,24
 141 231 141 231 141 270 c 0,25,26
 141 323 141 323 159.5 386 c 128,-1,27
 178 449 178 449 212 503 c 128,-1,28
 246 557 246 557 294.5 593 c 128,-1,29
 343 629 343 629 402 629 c 0,30,31
 439 629 439 629 465.5 610.5 c 128,-1,32
 492 592 492 592 509.5 562 c 128,-1,33
 527 532 527 532 535.5 494 c 128,-1,34
 544 456 544 456 544 416 c 0,35,36
 544 364 544 364 525 303.5 c 128,-1,37
 506 243 506 243 471.5 191.5 c 128,-1,38
 437 140 437 140 389 105.5 c 128,-1,39
 341 71 341 71 283 71 c 0,20,21
EndSplineSet
Substitution2: "'frac' Diagonal Fractions lookup 24 subtable" zero.numr
Substitution2: "'dnom' Denominators lookup 22 subtable" zero.dnom
Substitution2: "'numr' Numerators lookup 21 subtable" zero.numr
Substitution2: "'sups' Superscript lookup 20 subtable" uni2070
Substitution2: "'sinf' Scientific Inferiors lookup 19 subtable" zero.subs
Substitution2: "'subs' Subscript lookup 18 subtable" uni2080
AlternateSubs2: "'aalt' Access All Alternates lookup 1 subtable" uni2080 zero.subs uni2070 zero.numr zero.dnom
EndChar

StartChar: one
Encoding: 49 49 20
Width: 385
GlyphClass: 1
Flags: W
LayerCount: 2
Fore
SplineSet
130 0 m 1,0,-1
 220 0 l 1,1,-1
 373 718 l 1,2,-1
 283 718 l 2,3,4
 282 717 282 717 264.5 701.5 c 128,-1,5
 247 686 247 686 221.5 668 c 128,-1,6
 196 650 196 650 166.5 635.5 c 128,-1,7
 137 621 137 621 111 621 c 1,8,-1
 94 539 l 1,9,10
 113 539 113 539 138 548 c 128,-1,11
 163 557 163 557 187.5 570.5 c 128,-1,12
 212 584 212 584 232.5 598.5 c 128,-1,13
 253 613 253 613 263 625 c 1,14,-1
 130 0 l 1,0,-1
EndSplineSet
Substitution2: "'frac' Diagonal Fractions lookup 24 subtable" one.numr
Substitution2: "'dnom' Denominators lookup 22 subtable" one.dnom
Substitution2: "'numr' Numerators lookup 21 subtable" one.numr
Substitution2: "'sups' Superscript lookup 20 subtable" onesuperior
Substitution2: "'sinf' Scientific Inferiors lookup 19 subtable" one.subs
Substitution2: "'subs' Subscript lookup 18 subtable" uni2081
AlternateSubs2: "'aalt' Access All Alternates lookup 1 subtable" uni2081 one.subs onesuperior one.numr one.dnom
EndChar

StartChar: two
Encoding: 50 50 21
Width: 565
GlyphClass: 1
Flags: W
LayerCount: 2
Fore
SplineSet
-18 0 m 1,0,-1
 450 0 l 1,1,-1
 467 80 l 1,2,-1
 100 80 l 1,3,4
 107 114 107 114 122.5 141 c 128,-1,5
 138 168 138 168 164.5 192 c 128,-1,6
 191 216 191 216 229.5 237.5 c 128,-1,7
 268 259 268 259 320 283 c 0,8,9
 365 303 365 303 408.5 325.5 c 128,-1,10
 452 348 452 348 486.5 378.5 c 128,-1,11
 521 409 521 409 542 451 c 128,-1,12
 563 493 563 493 563 553 c 0,13,14
 563 588 563 588 552 618 c 128,-1,15
 541 648 541 648 519.5 670.5 c 128,-1,16
 498 693 498 693 464.5 706 c 128,-1,17
 431 719 431 719 386 719 c 0,18,19
 333 719 333 719 288 704 c 128,-1,20
 243 689 243 689 207.5 668.5 c 128,-1,21
 172 648 172 648 148.5 628 c 128,-1,22
 125 608 125 608 114 598 c 1,23,-1
 158 541 l 1,24,25
 173 556 173 556 194 572.5 c 128,-1,26
 215 589 215 589 240.5 603.5 c 128,-1,27
 266 618 266 618 296 627.5 c 128,-1,28
 326 637 326 637 359 637 c 0,29,30
 386 637 386 637 405.5 629.5 c 128,-1,31
 425 622 425 622 438 608.5 c 128,-1,32
 451 595 451 595 457 576.5 c 128,-1,33
 463 558 463 558 463 537 c 0,34,35
 463 487 463 487 441.5 455 c 128,-1,36
 420 423 420 423 386.5 400.5 c 128,-1,37
 353 378 353 378 312 361.5 c 128,-1,38
 271 345 271 345 231 327 c 0,39,40
 181 304 181 304 141.5 276 c 128,-1,41
 102 248 102 248 71.5 210 c 128,-1,42
 41 172 41 172 19 121 c 128,-1,43
 -3 70 -3 70 -18 0 c 1,0,-1
EndSplineSet
Substitution2: "'frac' Diagonal Fractions lookup 24 subtable" two.numr
Substitution2: "'dnom' Denominators lookup 22 subtable" two.dnom
Substitution2: "'numr' Numerators lookup 21 subtable" two.numr
Substitution2: "'sups' Superscript lookup 20 subtable" twosuperior
Substitution2: "'sinf' Scientific Inferiors lookup 19 subtable" two.subs
Substitution2: "'subs' Subscript lookup 18 subtable" uni2082
AlternateSubs2: "'aalt' Access All Alternates lookup 1 subtable" uni2082 two.subs twosuperior two.numr two.dnom
EndChar

StartChar: three
Encoding: 51 51 22
Width: 519
GlyphClass: 1
Flags: W
LayerCount: 2
Fore
SplineSet
173 -9 m 0,0,1
 233 -9 233 -9 283.5 9 c 128,-1,2
 334 27 334 27 371.5 59.5 c 128,-1,3
 409 92 409 92 430 137 c 128,-1,4
 451 182 451 182 451 236 c 256,5,6
 451 290 451 290 425 327.5 c 128,-1,7
 399 365 399 365 351 374 c 1,8,9
 385 380 385 380 414 398 c 128,-1,10
 443 416 443 416 464 442.5 c 128,-1,11
 485 469 485 469 497 501.5 c 128,-1,12
 509 534 509 534 509 568 c 0,13,14
 509 601 509 601 497 628 c 128,-1,15
 485 655 485 655 463 674 c 128,-1,16
 441 693 441 693 409.5 703.5 c 128,-1,17
 378 714 378 714 338 714 c 0,18,19
 302 714 302 714 267.5 706 c 128,-1,20
 233 698 233 698 201.5 683 c 128,-1,21
 170 668 170 668 144 647.5 c 128,-1,22
 118 627 118 627 100 602 c 1,23,-1
 142 546 l 1,24,25
 174 588 174 588 217.5 611.5 c 128,-1,26
 261 635 261 635 312 635 c 0,27,28
 358 635 358 635 386 614.5 c 128,-1,29
 414 594 414 594 414 552 c 0,30,31
 414 522 414 522 402 496 c 128,-1,32
 390 470 390 470 368.5 450.5 c 128,-1,33
 347 431 347 431 315.5 419.5 c 128,-1,34
 284 408 284 408 245 408 c 2,35,-1
 175 408 l 1,36,-1
 159 334 l 1,37,-1
 227 334 l 2,38,39
 293 334 293 334 325.5 304.5 c 128,-1,40
 358 275 358 275 358 225 c 0,41,42
 358 188 358 188 346 159.5 c 128,-1,43
 334 131 334 131 312 111.5 c 128,-1,44
 290 92 290 92 259 81.5 c 128,-1,45
 228 71 228 71 189 71 c 0,46,47
 130 71 130 71 98.5 94.5 c 128,-1,48
 67 118 67 118 53 159 c 1,49,-1
 -17 100 l 1,50,51
 3 48 3 48 52 19.5 c 128,-1,52
 101 -9 101 -9 173 -9 c 0,0,1
EndSplineSet
Substitution2: "'frac' Diagonal Fractions lookup 24 subtable" three.numr
Substitution2: "'dnom' Denominators lookup 22 subtable" three.dnom
Substitution2: "'numr' Numerators lookup 21 subtable" three.numr
Substitution2: "'sups' Superscript lookup 20 subtable" threesuperior
Substitution2: "'sinf' Scientific Inferiors lookup 19 subtable" three.subs
Substitution2: "'subs' Subscript lookup 18 subtable" uni2083
AlternateSubs2: "'aalt' Access All Alternates lookup 1 subtable" uni2083 three.subs threesuperior three.numr three.dnom
EndChar

StartChar: four
Encoding: 52 52 23
Width: 554
GlyphClass: 1
Flags: W
LayerCount: 2
Fore
SplineSet
366 0 m 1,0,-1
 404 181 l 1,1,-1
 488 181 l 1,2,-1
 505 261 l 1,3,-1
 421 261 l 1,4,-1
 516 710 l 1,5,-1
 455 710 l 1,6,-1
 19 260 l 1,7,-1
 2 181 l 1,8,-1
 316 181 l 1,9,-1
 278 0 l 1,10,-1
 366 0 l 1,0,-1
111 261 m 1,11,-1
 409 575 l 1,12,-1
 342 261 l 1,13,-1
 111 261 l 1,11,-1
EndSplineSet
Substitution2: "'frac' Diagonal Fractions lookup 24 subtable" four.numr
Substitution2: "'dnom' Denominators lookup 22 subtable" four.dnom
Substitution2: "'numr' Numerators lookup 21 subtable" four.numr
Substitution2: "'sups' Superscript lookup 20 subtable" uni2074
Substitution2: "'sinf' Scientific Inferiors lookup 19 subtable" four.subs
Substitution2: "'subs' Subscript lookup 18 subtable" uni2084
AlternateSubs2: "'aalt' Access All Alternates lookup 1 subtable" uni2084 four.subs uni2074 four.numr four.dnom
EndChar

StartChar: five
Encoding: 53 53 24
Width: 539
GlyphClass: 1
Flags: W
LayerCount: 2
Fore
SplineSet
191 -10 m 0,0,1
 249 -10 249 -10 302 11 c 128,-1,2
 355 32 355 32 396 69.5 c 128,-1,3
 437 107 437 107 461.5 158.5 c 128,-1,4
 486 210 486 210 486 271 c 0,5,6
 486 311 486 311 473 344.5 c 128,-1,7
 460 378 460 378 437 402 c 128,-1,8
 414 426 414 426 381 439.5 c 128,-1,9
 348 453 348 453 308 453 c 0,10,11
 270 453 270 453 236.5 440 c 128,-1,12
 203 427 203 427 177 403 c 1,13,-1
 265 629 l 1,14,-1
 528 629 l 1,15,-1
 546 710 l 1,16,-1
 217 710 l 1,17,18
 217 710 217 710 205.5 682 c 128,-1,19
 194 654 194 654 177.5 611 c 128,-1,20
 161 568 161 568 140.5 517.5 c 128,-1,21
 120 467 120 467 102.5 422 c 128,-1,22
 85 377 85 377 71.5 344 c 128,-1,23
 58 311 58 311 55 304 c 1,24,-1
 134 304 l 1,25,26
 163 339 163 339 202.5 358 c 128,-1,27
 242 377 242 377 281 377 c 0,28,29
 307 377 307 377 327.5 368 c 128,-1,30
 348 359 348 359 363 343 c 128,-1,31
 378 327 378 327 386 304.5 c 128,-1,32
 394 282 394 282 394 255 c 0,33,34
 394 216 394 216 378.5 182 c 128,-1,35
 363 148 363 148 337.5 123 c 128,-1,36
 312 98 312 98 278.5 83.5 c 128,-1,37
 245 69 245 69 208 69 c 0,38,39
 157 69 157 69 120 96.5 c 128,-1,40
 83 124 83 124 66 171 c 1,41,-1
 1 123 l 1,42,43
 18 62 18 62 68.5 26 c 128,-1,44
 119 -10 119 -10 191 -10 c 0,0,1
EndSplineSet
Substitution2: "'frac' Diagonal Fractions lookup 24 subtable" five.numr
Substitution2: "'dnom' Denominators lookup 22 subtable" five.dnom
Substitution2: "'numr' Numerators lookup 21 subtable" five.numr
Substitution2: "'sups' Superscript lookup 20 subtable" uni2075
Substitution2: "'sinf' Scientific Inferiors lookup 19 subtable" five.subs
Substitution2: "'subs' Subscript lookup 18 subtable" uni2085
AlternateSubs2: "'aalt' Access All Alternates lookup 1 subtable" uni2085 five.subs uni2075 five.numr five.dnom
EndChar

StartChar: six
Encoding: 54 54 25
Width: 591
GlyphClass: 1
Flags: W
LayerCount: 2
Fore
SplineSet
238 -10 m 0,0,1
 193 -10 193 -10 157.5 5.5 c 128,-1,2
 122 21 122 21 97.5 50.5 c 128,-1,3
 73 80 73 80 60 122 c 128,-1,4
 47 164 47 164 47 216 c 0,5,6
 47 316 47 316 73 406.5 c 128,-1,7
 99 497 99 497 145.5 565.5 c 128,-1,8
 192 634 192 634 257 674.5 c 128,-1,9
 322 715 322 715 401 715 c 0,10,11
 467 715 467 715 513 682 c 128,-1,12
 559 649 559 649 578 589 c 1,13,-1
 513 536 l 1,14,15
 502 583 502 583 467.5 610.5 c 128,-1,16
 433 638 433 638 383 638 c 0,17,18
 345 638 345 638 308.5 619.5 c 128,-1,19
 272 601 272 601 239.5 565 c 128,-1,20
 207 529 207 529 180 477.5 c 128,-1,21
 153 426 153 426 134 360 c 1,22,23
 150 386 150 386 175 407 c 128,-1,24
 200 428 200 428 229 443 c 128,-1,25
 258 458 258 458 289 466 c 128,-1,26
 320 474 320 474 349 474 c 0,27,28
 391 474 391 474 426 459 c 128,-1,29
 461 444 461 444 485.5 417.5 c 128,-1,30
 510 391 510 391 523.5 355.5 c 128,-1,31
 537 320 537 320 537 278 c 0,32,33
 537 220 537 220 512 167.5 c 128,-1,34
 487 115 487 115 445.5 75.5 c 128,-1,35
 404 36 404 36 350 13 c 128,-1,36
 296 -10 296 -10 238 -10 c 0,0,1
255 66 m 0,37,38
 291 66 291 66 326.5 82 c 128,-1,39
 362 98 362 98 389.5 125.5 c 128,-1,40
 417 153 417 153 434 189 c 128,-1,41
 451 225 451 225 451 265 c 0,42,43
 451 294 451 294 442 319 c 128,-1,44
 433 344 433 344 416.5 363 c 128,-1,45
 400 382 400 382 377 392.5 c 128,-1,46
 354 403 354 403 326 403 c 0,47,48
 289 403 289 403 254 387 c 128,-1,49
 219 371 219 371 191.5 343.5 c 128,-1,50
 164 316 164 316 147 280 c 128,-1,51
 130 244 130 244 130 205 c 0,52,53
 130 176 130 176 139 150.5 c 128,-1,54
 148 125 148 125 164.5 106.5 c 128,-1,55
 181 88 181 88 204 77 c 128,-1,56
 227 66 227 66 255 66 c 0,37,38
EndSplineSet
Substitution2: "'frac' Diagonal Fractions lookup 24 subtable" six.numr
Substitution2: "'dnom' Denominators lookup 22 subtable" six.dnom
Substitution2: "'numr' Numerators lookup 21 subtable" six.numr
Substitution2: "'sups' Superscript lookup 20 subtable" uni2076
Substitution2: "'sinf' Scientific Inferiors lookup 19 subtable" six.subs
Substitution2: "'subs' Subscript lookup 18 subtable" uni2086
AlternateSubs2: "'aalt' Access All Alternates lookup 1 subtable" uni2086 six.subs uni2076 six.numr six.dnom
EndChar

StartChar: seven
Encoding: 55 55 26
Width: 514
GlyphClass: 1
Flags: W
LayerCount: 2
Fore
SplineSet
7 0 m 1,0,-1
 106 0 l 1,1,-1
 597 710 l 1,2,-1
 115 710 l 1,3,-1
 98 629 l 1,4,-1
 440 629 l 1,5,-1
 7 0 l 1,0,-1
EndSplineSet
Substitution2: "'frac' Diagonal Fractions lookup 24 subtable" seven.numr
Substitution2: "'dnom' Denominators lookup 22 subtable" seven.dnom
Substitution2: "'numr' Numerators lookup 21 subtable" seven.numr
Substitution2: "'sups' Superscript lookup 20 subtable" uni2077
Substitution2: "'sinf' Scientific Inferiors lookup 19 subtable" seven.subs
Substitution2: "'subs' Subscript lookup 18 subtable" uni2087
AlternateSubs2: "'aalt' Access All Alternates lookup 1 subtable" uni2087 seven.subs uni2077 seven.numr seven.dnom
EndChar

StartChar: eight
Encoding: 56 56 27
Width: 576
GlyphClass: 1
Flags: W
LayerCount: 2
Fore
SplineSet
509 233 m 0,0,1
 509 285 509 285 482.5 323.5 c 128,-1,2
 456 362 456 362 417 380 c 1,3,4
 443 391 443 391 468 408 c 128,-1,5
 493 425 493 425 512.5 447 c 128,-1,6
 532 469 532 469 544 496.5 c 128,-1,7
 556 524 556 524 556 555 c 0,8,9
 556 593 556 593 540.5 621.5 c 128,-1,10
 525 650 525 650 499.5 670 c 128,-1,11
 474 690 474 690 441 700 c 128,-1,12
 408 710 408 710 374 710 c 0,13,14
 332 710 332 710 286.5 696 c 128,-1,15
 241 682 241 682 203 655 c 128,-1,16
 165 628 165 628 140.5 589 c 128,-1,17
 116 550 116 550 116 500 c 0,18,19
 116 459 116 459 137 427.5 c 128,-1,20
 158 396 158 396 190 380 c 1,21,22
 162 369 162 369 132.5 350 c 128,-1,23
 103 331 103 331 79 305 c 128,-1,24
 55 279 55 279 39.5 245 c 128,-1,25
 24 211 24 211 24 170 c 0,26,27
 24 132 24 132 38 99.5 c 128,-1,28
 52 67 52 67 77.5 43 c 128,-1,29
 103 19 103 19 139.5 5.5 c 128,-1,30
 176 -8 176 -8 220 -8 c 0,31,32
 275 -8 275 -8 327 9.5 c 128,-1,33
 379 27 379 27 419.5 59 c 128,-1,34
 460 91 460 91 484.5 135.5 c 128,-1,35
 509 180 509 180 509 233 c 0,0,1
420 230 m 0,36,37
 420 195 420 195 403.5 165.5 c 128,-1,38
 387 136 387 136 360.5 115 c 128,-1,39
 334 94 334 94 302 82.5 c 128,-1,40
 270 71 270 71 239 71 c 0,41,42
 215 71 215 71 193 79 c 128,-1,43
 171 87 171 87 154 101.5 c 128,-1,44
 137 116 137 116 126.5 137 c 128,-1,45
 116 158 116 158 116 184 c 0,46,47
 116 219 116 219 132.5 248.5 c 128,-1,48
 149 278 149 278 174.5 299 c 128,-1,49
 200 320 200 320 232 331.5 c 128,-1,50
 264 343 264 343 295 343 c 0,51,52
 319 343 319 343 341.5 335.5 c 128,-1,53
 364 328 364 328 381.5 313.5 c 128,-1,54
 399 299 399 299 409.5 278 c 128,-1,55
 420 257 420 257 420 230 c 0,36,37
205 503 m 0,56,57
 205 532 205 532 218.5 556 c 128,-1,58
 232 580 232 580 253.5 596.5 c 128,-1,59
 275 613 275 613 302 622 c 128,-1,60
 329 631 329 631 357 631 c 0,61,62
 379 631 379 631 398.5 625 c 128,-1,63
 418 619 418 619 432.5 607 c 128,-1,64
 447 595 447 595 455.5 578.5 c 128,-1,65
 464 562 464 562 464 541 c 0,66,67
 464 510 464 510 449 485.5 c 128,-1,68
 434 461 434 461 411.5 444.5 c 128,-1,69
 389 428 389 428 362 419.5 c 128,-1,70
 335 411 335 411 311 411 c 0,71,72
 292 411 292 411 273 417 c 128,-1,73
 254 423 254 423 239 435 c 128,-1,74
 224 447 224 447 214.5 464 c 128,-1,75
 205 481 205 481 205 503 c 0,56,57
EndSplineSet
Substitution2: "'frac' Diagonal Fractions lookup 24 subtable" eight.numr
Substitution2: "'dnom' Denominators lookup 22 subtable" eight.dnom
Substitution2: "'numr' Numerators lookup 21 subtable" eight.numr
Substitution2: "'sups' Superscript lookup 20 subtable" uni2078
Substitution2: "'sinf' Scientific Inferiors lookup 19 subtable" eight.subs
Substitution2: "'subs' Subscript lookup 18 subtable" uni2088
AlternateSubs2: "'aalt' Access All Alternates lookup 1 subtable" uni2088 eight.subs uni2078 eight.numr eight.dnom
EndChar

StartChar: nine
Encoding: 57 57 28
Width: 574
GlyphClass: 1
Flags: W
LayerCount: 2
Fore
SplineSet
214 -7 m 0,0,1
 148 -7 148 -7 102 26 c 128,-1,2
 56 59 56 59 37 119 c 1,3,-1
 102 172 l 1,4,5
 113 125 113 125 147.5 97.5 c 128,-1,6
 182 70 182 70 232 70 c 0,7,8
 270 70 270 70 309.5 89 c 128,-1,9
 349 108 349 108 383 143.5 c 128,-1,10
 417 179 417 179 443 230.5 c 128,-1,11
 469 282 469 282 480 348 c 1,12,13
 464 322 464 322 439.5 301 c 128,-1,14
 415 280 415 280 386 265 c 128,-1,15
 357 250 357 250 325.5 242 c 128,-1,16
 294 234 294 234 265 234 c 0,17,18
 223 234 223 234 188.5 249 c 128,-1,19
 154 264 154 264 129.5 290.5 c 128,-1,20
 105 317 105 317 91.5 352.5 c 128,-1,21
 78 388 78 388 78 430 c 0,22,23
 78 488 78 488 103 540.5 c 128,-1,24
 128 593 128 593 169.5 632.5 c 128,-1,25
 211 672 211 672 265 695 c 128,-1,26
 319 718 319 718 377 718 c 0,27,28
 422 718 422 718 457 702.5 c 128,-1,29
 492 687 492 687 517 657.5 c 128,-1,30
 542 628 542 628 555 586.5 c 128,-1,31
 568 545 568 545 568 492 c 0,32,33
 568 392 568 392 542 301.5 c 128,-1,34
 516 211 516 211 469.5 142.5 c 128,-1,35
 423 74 423 74 358 33.5 c 128,-1,36
 293 -7 293 -7 214 -7 c 0,0,1
288 305 m 0,37,38
 325 305 325 305 360.5 321 c 128,-1,39
 396 337 396 337 423.5 364.5 c 128,-1,40
 451 392 451 392 468 428 c 128,-1,41
 485 464 485 464 485 503 c 0,42,43
 485 532 485 532 476 557.5 c 128,-1,44
 467 583 467 583 450.5 601.5 c 128,-1,45
 434 620 434 620 411 631 c 128,-1,46
 388 642 388 642 360 642 c 0,47,48
 324 642 324 642 288.5 626 c 128,-1,49
 253 610 253 610 225 582.5 c 128,-1,50
 197 555 197 555 180 519 c 128,-1,51
 163 483 163 483 163 443 c 0,52,53
 163 414 163 414 172.5 389 c 128,-1,54
 182 364 182 364 198.5 345 c 128,-1,55
 215 326 215 326 238 315.5 c 128,-1,56
 261 305 261 305 288 305 c 0,37,38
EndSplineSet
Substitution2: "'frac' Diagonal Fractions lookup 24 subtable" nine.numr
Substitution2: "'dnom' Denominators lookup 22 subtable" nine.dnom
Substitution2: "'numr' Numerators lookup 21 subtable" nine.numr
Substitution2: "'sups' Superscript lookup 20 subtable" uni2079
Substitution2: "'sinf' Scientific Inferiors lookup 19 subtable" nine.subs
Substitution2: "'subs' Subscript lookup 18 subtable" uni2089
AlternateSubs2: "'aalt' Access All Alternates lookup 1 subtable" uni2089 nine.subs uni2079 nine.numr nine.dnom
EndChar

StartChar: less
Encoding: 60 60 31
Width: 547
GlyphClass: 1
Flags: W
LayerCount: 2
Fore
SplineSet
30 234 m 1,0,-1
 450 -16 l 1,1,-1
 450 82 l 1,2,-1
 158 259 l 1,3,-1
 450 439 l 1,4,-1
 450 533 l 1,5,-1
 30 280 l 1,6,-1
 30 234 l 1,0,-1
EndSplineSet
EndChar

StartChar: equal
Encoding: 61 61 32
Width: 479
GlyphClass: 1
Flags: W
LayerCount: 2
Fore
SplineSet
386 179 m 1,0,-1
 386 239 l 1,1,-1
 81 239 l 1,2,-1
 81 179 l 1,3,-1
 386 179 l 1,0,-1
386 313 m 1,4,-1
 386 373 l 1,5,-1
 81 373 l 1,6,-1
 81 313 l 1,7,-1
 386 313 l 1,4,-1
EndSplineSet
EndChar

StartChar: greater
Encoding: 62 62 33
Width: 546
GlyphClass: 1
Flags: W
LayerCount: 2
Fore
SplineSet
498 280 m 1,0,-1
 78 533 l 1,1,-1
 78 439 l 1,2,-1
 370 259 l 1,3,-1
 78 82 l 1,4,-1
 78 -16 l 1,5,-1
 498 234 l 1,6,-1
 498 280 l 1,0,-1
EndSplineSet
EndChar

StartChar: question
Encoding: 63 63 34
Width: 462
GlyphClass: 1
Flags: W
LayerCount: 2
Fore
SplineSet
188 211 m 1,0,1
 195 244 195 244 208 266 c 128,-1,2
 221 288 221 288 237.5 303.5 c 128,-1,3
 254 319 254 319 273 330 c 128,-1,4
 292 341 292 341 312 351 c 0,5,6
 339 365 339 365 364.5 380 c 128,-1,7
 390 395 390 395 411 415 c 128,-1,8
 432 435 432 435 447.5 462 c 128,-1,9
 463 489 463 489 471 527 c 0,10,11
 482 576 482 576 473 612 c 128,-1,12
 464 648 464 648 442 672 c 128,-1,13
 420 696 420 696 388 707.5 c 128,-1,14
 356 719 356 719 320 719 c 0,15,16
 289 719 289 719 256.5 710.5 c 128,-1,17
 224 702 224 702 194 685.5 c 128,-1,18
 164 669 164 669 138 645 c 128,-1,19
 112 621 112 621 92 590 c 1,20,-1
 141 551 l 1,21,22
 155 570 155 570 173 587.5 c 128,-1,23
 191 605 191 605 212 618 c 128,-1,24
 233 631 233 631 256 638.5 c 128,-1,25
 279 646 279 646 303 646 c 0,26,27
 326 646 326 646 345.5 638.5 c 128,-1,28
 365 631 365 631 378 616.5 c 128,-1,29
 391 602 391 602 396.5 580.5 c 128,-1,30
 402 559 402 559 396 531 c 0,31,32
 389 497 389 497 370 472.5 c 128,-1,33
 351 448 351 448 327 430.5 c 128,-1,34
 303 413 303 413 278 400 c 128,-1,35
 253 387 253 387 233 375 c 0,36,37
 208 360 208 360 189 343 c 128,-1,38
 170 326 170 326 156 305.5 c 128,-1,39
 142 285 142 285 132.5 261.5 c 128,-1,40
 123 238 123 238 117 211 c 1,41,-1
 188 211 l 1,0,1
65 46 m 0,42,43
 60 23 60 23 72 6.5 c 128,-1,44
 84 -10 84 -10 107 -10 c 0,45,46
 118 -10 118 -10 129 -5.5 c 128,-1,47
 140 -1 140 -1 148.5 6.5 c 128,-1,48
 157 14 157 14 163.5 24 c 128,-1,49
 170 34 170 34 172 46 c 0,50,51
 177 69 177 69 165 85.5 c 128,-1,52
 153 102 153 102 131 102 c 0,53,54
 120 102 120 102 109 97.5 c 128,-1,55
 98 93 98 93 89 85.5 c 128,-1,56
 80 78 80 78 73.5 68 c 128,-1,57
 67 58 67 58 65 46 c 0,42,43
EndSplineSet
EndChar

StartChar: at
Encoding: 64 64 35
Width: 808
GlyphClass: 1
Flags: W
LayerCount: 2
Fore
SplineSet
569 28 m 0,0,1
 552 28 552 28 544.5 37 c 128,-1,2
 537 46 537 46 537 66 c 0,3,4
 537 72 537 72 538 80.5 c 128,-1,5
 539 89 539 89 541 99 c 2,6,-1
 616 450 l 1,7,-1
 560 450 l 1,8,-1
 542 362 l 1,9,10
 528 403 528 403 494.5 430.5 c 128,-1,11
 461 458 461 458 407 458 c 0,12,13
 360 458 360 458 316 435 c 128,-1,14
 272 412 272 412 238.5 374 c 128,-1,15
 205 336 205 336 184.5 286 c 128,-1,16
 164 236 164 236 164 183 c 0,17,18
 164 146 164 146 175 112.5 c 128,-1,19
 186 79 186 79 206 53.5 c 128,-1,20
 226 28 226 28 255.5 13.5 c 128,-1,21
 285 -1 285 -1 322 -1 c 0,22,23
 367 -1 367 -1 411.5 20 c 128,-1,24
 456 41 456 41 489 73 c 1,25,26
 487 67 487 67 487 61 c 128,-1,27
 487 55 487 55 487 50 c 0,28,29
 487 13 487 13 507 -1.5 c 128,-1,30
 527 -16 527 -16 556 -16 c 0,31,32
 593 -16 593 -16 621 1.5 c 128,-1,33
 649 19 649 19 670.5 48 c 128,-1,34
 692 77 692 77 706.5 113 c 128,-1,35
 721 149 721 149 730 185.5 c 128,-1,36
 739 222 739 222 743 256 c 128,-1,37
 747 290 747 290 747 314 c 0,38,39
 747 369 747 369 728 421 c 128,-1,40
 709 473 709 473 673 513.5 c 128,-1,41
 637 554 637 554 584 578.5 c 128,-1,42
 531 603 531 603 463 603 c 0,43,44
 386 603 386 603 308 571 c 128,-1,45
 230 539 230 539 167 480.5 c 128,-1,46
 104 422 104 422 64 340.5 c 128,-1,47
 24 259 24 259 24 160 c 0,48,49
 24 91 24 91 44 35 c 128,-1,50
 64 -21 64 -21 100.5 -61.5 c 128,-1,51
 137 -102 137 -102 188 -124 c 128,-1,52
 239 -146 239 -146 300 -146 c 0,53,54
 340 -146 340 -146 382.5 -136 c 128,-1,55
 425 -126 425 -126 468 -106 c 1,56,-1
 463 -68 l 1,57,58
 424 -85 424 -85 387.5 -95.5 c 128,-1,59
 351 -106 351 -106 309 -106 c 0,60,61
 252 -106 252 -106 207 -85.5 c 128,-1,62
 162 -65 162 -65 130.5 -28.5 c 128,-1,63
 99 8 99 8 82.5 57.5 c 128,-1,64
 66 107 66 107 66 164 c 0,65,66
 66 248 66 248 99.5 321 c 128,-1,67
 133 394 133 394 187.5 447.5 c 128,-1,68
 242 501 242 501 311.5 532 c 128,-1,69
 381 563 381 563 453 563 c 0,70,71
 516 563 516 563 563 540.5 c 128,-1,72
 610 518 610 518 641.5 481.5 c 128,-1,73
 673 445 673 445 689 398 c 128,-1,74
 705 351 705 351 705 302 c 0,75,76
 705 265 705 265 696 217.5 c 128,-1,77
 687 170 687 170 669.5 128 c 128,-1,78
 652 86 652 86 626.5 57 c 128,-1,79
 601 28 601 28 569 28 c 0,0,1
347 49 m 0,80,81
 322 49 322 49 299 60 c 128,-1,82
 276 71 276 71 259.5 91 c 128,-1,83
 243 111 243 111 233 138.5 c 128,-1,84
 223 166 223 166 223 199 c 0,85,86
 223 242 223 242 239.5 280 c 128,-1,87
 256 318 256 318 282.5 346 c 128,-1,88
 309 374 309 374 341.5 390.5 c 128,-1,89
 374 407 374 407 406 407 c 0,90,91
 444 407 444 407 476.5 382 c 128,-1,92
 509 357 509 357 525 300 c 1,93,-1
 501 163 l 1,94,95
 492 141 492 141 476 120 c 128,-1,96
 460 99 460 99 439.5 83.5 c 128,-1,97
 419 68 419 68 395 58.5 c 128,-1,98
 371 49 371 49 347 49 c 0,80,81
EndSplineSet
EndChar

StartChar: A
Encoding: 65 65 36
Width: 652
GlyphClass: 1
Flags: W
LayerCount: 2
Fore
SplineSet
-47 0 m 1,0,-1
 49 0 l 1,1,-1
 170 208 l 1,2,-1
 448 208 l 1,3,-1
 482 0 l 1,4,-1
 578 0 l 1,5,-1
 455 710 l 1,6,-1
 378 710 l 1,7,-1
 -47 0 l 1,0,-1
202 278 m 1,8,-1
 395 606 l 1,9,-1
 444 278 l 1,10,-1
 202 278 l 1,8,-1
EndSplineSet
Substitution2: "Single Substitution lookup 46 subtable" ordfeminine
Substitution2: "'aalt' Access All Alternates lookup 0 subtable" ordfeminine
EndChar

StartChar: B
Encoding: 66 66 37
Width: 647
GlyphClass: 1
Flags: W
LayerCount: 2
Fore
SplineSet
20 0 m 1,0,-1
 341 0 l 2,1,2
 388 0 388 0 431.5 16 c 128,-1,3
 475 32 475 32 509 61 c 128,-1,4
 543 90 543 90 563.5 131 c 128,-1,5
 584 172 584 172 584 221 c 0,6,7
 584 272 584 272 560.5 310.5 c 128,-1,8
 537 349 537 349 492 364 c 1,9,10
 523 377 523 377 548 398.5 c 128,-1,11
 573 420 573 420 591 446.5 c 128,-1,12
 609 473 609 473 619 503.5 c 128,-1,13
 629 534 629 534 629 565 c 0,14,15
 629 593 629 593 621.5 619 c 128,-1,16
 614 645 614 645 599 665.5 c 128,-1,17
 584 686 584 686 561.5 698 c 128,-1,18
 539 710 539 710 509 710 c 2,19,-1
 171 710 l 1,20,-1
 20 0 l 1,0,-1
127 78 m 1,21,-1
 178 322 l 1,22,-1
 416 322 l 2,23,24
 434 322 434 322 449 314 c 128,-1,25
 464 306 464 306 474 292.5 c 128,-1,26
 484 279 484 279 489.5 261.5 c 128,-1,27
 495 244 495 244 495 224 c 0,28,29
 495 196 495 196 483.5 169.5 c 128,-1,30
 472 143 472 143 452.5 122.5 c 128,-1,31
 433 102 433 102 408 90 c 128,-1,32
 383 78 383 78 357 78 c 2,33,-1
 127 78 l 1,21,-1
194 395 m 1,34,-1
 244 632 l 1,35,-1
 461 632 l 2,36,37
 478 632 478 632 492 625 c 128,-1,38
 506 618 506 618 515.5 605.5 c 128,-1,39
 525 593 525 593 530 576 c 128,-1,40
 535 559 535 559 535 539 c 0,41,42
 535 510 535 510 524 484 c 128,-1,43
 513 458 513 458 495 438 c 128,-1,44
 477 418 477 418 453.5 406.5 c 128,-1,45
 430 395 430 395 405 395 c 2,46,-1
 194 395 l 1,34,-1
EndSplineSet
EndChar

StartChar: C
Encoding: 67 67 38
Width: 653
GlyphClass: 1
Flags: W
LayerCount: 2
Fore
SplineSet
302 -6 m 0,0,1
 340 -6 340 -6 381 4 c 128,-1,2
 422 14 422 14 461 34 c 128,-1,3
 500 54 500 54 535 85.5 c 128,-1,4
 570 117 570 117 597 159 c 1,5,-1
 531 200 l 1,6,7
 510 168 510 168 484 144.5 c 128,-1,8
 458 121 458 121 430.5 105.5 c 128,-1,9
 403 90 403 90 374 82.5 c 128,-1,10
 345 75 345 75 318 75 c 0,11,12
 274 75 274 75 240 93 c 128,-1,13
 206 111 206 111 183 141.5 c 128,-1,14
 160 172 160 172 148 213 c 128,-1,15
 136 254 136 254 136 300 c 0,16,17
 136 356 136 356 154 415 c 128,-1,18
 172 474 172 474 208.5 522.5 c 128,-1,19
 245 571 245 571 300 602 c 128,-1,20
 355 633 355 633 430 633 c 0,21,22
 457 633 457 633 482 628 c 128,-1,23
 507 623 507 623 529 610 c 128,-1,24
 551 597 551 597 568 574 c 128,-1,25
 585 551 585 551 595 516 c 1,26,-1
 670 559 l 1,27,28
 661 592 661 592 642.5 620.5 c 128,-1,29
 624 649 624 649 596 669.5 c 128,-1,30
 568 690 568 690 529.5 702 c 128,-1,31
 491 714 491 714 442 714 c 0,32,33
 352 714 352 714 278.5 675.5 c 128,-1,34
 205 637 205 637 153 576.5 c 128,-1,35
 101 516 101 516 73 440 c 128,-1,36
 45 364 45 364 45 289 c 0,37,38
 45 234 45 234 61 180.5 c 128,-1,39
 77 127 77 127 109.5 86 c 128,-1,40
 142 45 142 45 190 19.5 c 128,-1,41
 238 -6 238 -6 302 -6 c 0,0,1
EndSplineSet
EndChar

StartChar: D
Encoding: 68 68 39
Width: 692
GlyphClass: 1
Flags: W
LayerCount: 2
Fore
SplineSet
20 0 m 1,0,-1
 255 0 l 2,1,2
 344 0 344 0 419.5 33 c 128,-1,3
 495 66 495 66 550.5 124.5 c 128,-1,4
 606 183 606 183 637 263 c 128,-1,5
 668 343 668 343 668 437 c 0,6,7
 668 494 668 494 652 544 c 128,-1,8
 636 594 636 594 604 631 c 128,-1,9
 572 668 572 668 522.5 689 c 128,-1,10
 473 710 473 710 406 710 c 2,11,-1
 171 710 l 1,12,-1
 20 0 l 1,0,-1
127 80 m 1,13,-1
 244 630 l 1,14,-1
 389 630 l 2,15,16
 435 630 435 630 470 614.5 c 128,-1,17
 505 599 505 599 528 571.5 c 128,-1,18
 551 544 551 544 563 506 c 128,-1,19
 575 468 575 468 575 423 c 0,20,21
 575 355 575 355 554 293 c 128,-1,22
 533 231 533 231 493.5 183.5 c 128,-1,23
 454 136 454 136 398 108 c 128,-1,24
 342 80 342 80 272 80 c 2,25,-1
 127 80 l 1,13,-1
EndSplineSet
EndChar

StartChar: E
Encoding: 69 69 40
Width: 580
GlyphClass: 1
Flags: W
LayerCount: 2
Fore
SplineSet
20 0 m 1,0,-1
 479 0 l 1,1,-1
 496 80 l 1,2,-1
 127 80 l 1,3,-1
 179 325 l 1,4,-1
 492 325 l 1,5,-1
 508 400 l 1,6,-1
 195 400 l 1,7,-1
 244 630 l 1,8,-1
 604 630 l 1,9,-1
 621 710 l 1,10,-1
 171 710 l 1,11,-1
 20 0 l 1,0,-1
EndSplineSet
EndChar

StartChar: F
Encoding: 70 70 41
Width: 565
GlyphClass: 1
Flags: W
LayerCount: 2
Fore
SplineSet
20 0 m 1,0,-1
 110 0 l 1,1,-1
 178 318 l 1,2,-1
 477 318 l 1,3,-1
 493 393 l 1,4,-1
 194 393 l 1,5,-1
 244 630 l 1,6,-1
 600 630 l 1,7,-1
 617 710 l 1,8,-1
 171 710 l 1,9,-1
 20 0 l 1,0,-1
EndSplineSet
EndChar

StartChar: G
Encoding: 71 71 42
Width: 717
GlyphClass: 1
Flags: W
LayerCount: 2
Fore
SplineSet
303 -5 m 0,0,1
 343 -5 343 -5 382 2.5 c 128,-1,2
 421 10 421 10 459 25.5 c 128,-1,3
 497 41 497 41 533.5 64.5 c 128,-1,4
 570 88 570 88 603 120 c 1,5,-1
 653 357 l 1,6,-1
 375 357 l 1,7,-1
 358 277 l 1,8,-1
 550 277 l 1,9,-1
 522 149 l 1,10,11
 502 130 502 130 480 116 c 128,-1,12
 458 102 458 102 433 93 c 128,-1,13
 408 84 408 84 378.5 80 c 128,-1,14
 349 76 349 76 314 76 c 0,15,16
 260 76 260 76 222 100 c 128,-1,17
 184 124 184 124 162 163.5 c 128,-1,18
 140 203 140 203 134.5 253 c 128,-1,19
 129 303 129 303 140 354 c 0,20,21
 151 406 151 406 177.5 456.5 c 128,-1,22
 204 507 204 507 242.5 546.5 c 128,-1,23
 281 586 281 586 329.5 610 c 128,-1,24
 378 634 378 634 432 634 c 0,25,26
 468 634 468 634 496.5 622.5 c 128,-1,27
 525 611 525 611 545.5 592.5 c 128,-1,28
 566 574 566 574 580 551 c 128,-1,29
 594 528 594 528 602 506 c 1,30,-1
 682 563 l 1,31,32
 656 632 656 632 598.5 673.5 c 128,-1,33
 541 715 541 715 454 715 c 0,34,35
 382 715 382 715 316 685 c 128,-1,36
 250 655 250 655 196.5 605.5 c 128,-1,37
 143 556 143 556 105.5 491.5 c 128,-1,38
 68 427 68 427 53 358 c 0,39,40
 38 288 38 288 48.5 222.5 c 128,-1,41
 59 157 59 157 91.5 106.5 c 128,-1,42
 124 56 124 56 177.5 25.5 c 128,-1,43
 231 -5 231 -5 303 -5 c 0,0,1
EndSplineSet
Substitution2: "'ss11' Style Set 11 lookup 42 subtable" G.ss11
Substitution2: "'aalt' Access All Alternates lookup 0 subtable" G.ss11
EndChar

StartChar: H
Encoding: 72 72 43
Width: 713
GlyphClass: 1
Flags: W
LayerCount: 2
Fore
SplineSet
20 0 m 1,0,-1
 110 0 l 1,1,-1
 179 323 l 1,2,-1
 544 323 l 1,3,-1
 475 0 l 1,4,-1
 565 0 l 1,5,-1
 716 710 l 1,6,-1
 626 710 l 1,7,-1
 561 403 l 1,8,-1
 196 403 l 1,9,-1
 261 710 l 1,10,-1
 171 710 l 1,11,-1
 20 0 l 1,0,-1
EndSplineSet
EndChar

StartChar: I
Encoding: 73 73 44
Width: 258
GlyphClass: 1
Flags: W
LayerCount: 2
Fore
SplineSet
20 0 m 1,0,-1
 110 0 l 1,1,-1
 261 709 l 1,2,-1
 171 709 l 1,3,-1
 20 0 l 1,0,-1
EndSplineSet
EndChar

StartChar: J
Encoding: 74 74 45
Width: 526
GlyphClass: 2
Flags: W
LayerCount: 2
Fore
SplineSet
76 167 m 1,0,1
 82 149 82 149 90 132 c 128,-1,2
 98 115 98 115 110 101.5 c 128,-1,3
 122 88 122 88 138 80 c 128,-1,4
 154 72 154 72 175 72 c 0,5,6
 212 72 212 72 241.5 87 c 128,-1,7
 271 102 271 102 292.5 126.5 c 128,-1,8
 314 151 314 151 328 182.5 c 128,-1,9
 342 214 342 214 348 247 c 2,10,-1
 437 710 l 1,11,-1
 522 710 l 1,12,-1
 424 215 l 2,13,14
 415 167 415 167 392 126 c 128,-1,15
 369 85 369 85 335 54.5 c 128,-1,16
 301 24 301 24 257.5 7 c 128,-1,17
 214 -10 214 -10 164 -10 c 0,18,19
 131 -10 131 -10 103.5 0.5 c 128,-1,20
 76 11 76 11 54.5 29.5 c 128,-1,21
 33 48 33 48 18 73.5 c 128,-1,22
 3 99 3 99 -5 130 c 1,23,-1
 76 167 l 1,0,1
EndSplineSet
EndChar

StartChar: K
Encoding: 75 75 46
Width: 625
GlyphClass: 1
Flags: W
LayerCount: 2
Fore
SplineSet
20 0 m 1,0,-1
 110 0 l 1,1,-1
 156 217 l 1,2,-1
 297 345 l 1,3,-1
 465 0 l 1,4,-1
 564 0 l 1,5,-1
 364 397 l 1,6,-1
 700 710 l 1,7,-1
 602 710 l 1,8,-1
 177 317 l 1,9,-1
 261 709 l 1,10,-1
 171 709 l 1,11,-1
 20 0 l 1,0,-1
EndSplineSet
EndChar

StartChar: L
Encoding: 76 76 47
Width: 559
GlyphClass: 1
Flags: W
LayerCount: 2
Fore
SplineSet
20 0 m 1,0,-1
 483 0 l 1,1,-1
 500 80 l 1,2,-1
 127 80 l 1,3,-1
 261 710 l 1,4,-1
 171 710 l 1,5,-1
 20 0 l 1,0,-1
EndSplineSet
EndChar

StartChar: M
Encoding: 77 77 48
Width: 838
GlyphClass: 1
Flags: W
LayerCount: 2
Fore
SplineSet
20 0 m 1,0,-1
 110 0 l 1,1,-1
 227 549 l 1,2,-1
 357 128 l 1,3,-1
 408 128 l 1,4,-1
 717 549 l 1,5,-1
 600 0 l 1,6,-1
 690 0 l 1,7,-1
 841 710 l 1,8,-1
 747 710 l 1,9,-1
 408 249 l 1,10,-1
 266 710 l 1,11,-1
 171 710 l 1,12,-1
 20 0 l 1,0,-1
EndSplineSet
EndChar

StartChar: N
Encoding: 78 78 49
Width: 739
GlyphClass: 1
Flags: W
LayerCount: 2
Fore
SplineSet
20 0 m 1,0,-1
 110 0 l 1,1,-1
 225 542 l 1,2,-1
 516 0 l 1,3,-1
 591 0 l 1,4,-1
 742 709 l 1,5,-1
 652 709 l 1,6,-1
 535 157 l 1,7,-1
 241 710 l 1,8,-1
 171 710 l 1,9,-1
 20 0 l 1,0,-1
EndSplineSet
EndChar

StartChar: O
Encoding: 79 79 50
Width: 721
GlyphClass: 1
Flags: W
LayerCount: 2
Fore
SplineSet
295 -5 m 0,0,1
 373 -5 373 -5 446 31 c 128,-1,2
 519 67 519 67 575.5 126.5 c 128,-1,3
 632 186 632 186 665.5 262.5 c 128,-1,4
 699 339 699 339 699 420 c 0,5,6
 699 477 699 477 682.5 530 c 128,-1,7
 666 583 666 583 634.5 624 c 128,-1,8
 603 665 603 665 556.5 690 c 128,-1,9
 510 715 510 715 450 715 c 0,10,11
 372 715 372 715 298.5 679 c 128,-1,12
 225 643 225 643 168.5 583 c 128,-1,13
 112 523 112 523 78 446 c 128,-1,14
 44 369 44 369 44 288 c 0,15,16
 44 231 44 231 60.5 178 c 128,-1,17
 77 125 77 125 109 84.5 c 128,-1,18
 141 44 141 44 188 19.5 c 128,-1,19
 235 -5 235 -5 295 -5 c 0,0,1
313 76 m 0,20,21
 270 76 270 76 237 94 c 128,-1,22
 204 112 204 112 181.5 142 c 128,-1,23
 159 172 159 172 147.5 212 c 128,-1,24
 136 252 136 252 136 296 c 0,25,26
 136 356 136 356 159 416 c 128,-1,27
 182 476 182 476 222 524.5 c 128,-1,28
 262 573 262 573 316 603 c 128,-1,29
 370 633 370 633 431 633 c 0,30,31
 473 633 473 633 506 615 c 128,-1,32
 539 597 539 597 561.5 567 c 128,-1,33
 584 537 584 537 595.5 497 c 128,-1,34
 607 457 607 457 607 413 c 0,35,36
 607 354 607 354 584 294 c 128,-1,37
 561 234 561 234 521.5 185.5 c 128,-1,38
 482 137 482 137 428.5 106.5 c 128,-1,39
 375 76 375 76 313 76 c 0,20,21
EndSplineSet
Substitution2: "Single Substitution lookup 46 subtable" ordmasculine
Substitution2: "'aalt' Access All Alternates lookup 0 subtable" ordmasculine
EndChar

StartChar: P
Encoding: 80 80 51
Width: 601
GlyphClass: 1
Flags: W
LayerCount: 2
Fore
SplineSet
20 0 m 1,0,-1
 110 0 l 1,1,-1
 164 255 l 1,2,-1
 361 255 l 2,3,4
 413 255 413 255 459 278.5 c 128,-1,5
 505 302 505 302 539.5 340 c 128,-1,6
 574 378 574 378 594.5 426 c 128,-1,7
 615 474 615 474 615 522 c 0,8,9
 615 558 615 558 604 592 c 128,-1,10
 593 626 593 626 572 652 c 128,-1,11
 551 678 551 678 521 694 c 128,-1,12
 491 710 491 710 453 710 c 2,13,-1
 171 710 l 1,14,-1
 20 0 l 1,0,-1
181 335 m 1,15,-1
 244 630 l 1,16,-1
 430 630 l 2,17,18
 450 630 450 630 467 621.5 c 128,-1,19
 484 613 484 613 496.5 597.5 c 128,-1,20
 509 582 509 582 516 560.5 c 128,-1,21
 523 539 523 539 523 514 c 0,22,23
 523 480 523 480 511 447.5 c 128,-1,24
 499 415 499 415 478.5 390 c 128,-1,25
 458 365 458 365 430.5 350 c 128,-1,26
 403 335 403 335 373 335 c 2,27,-1
 181 335 l 1,15,-1
EndSplineSet
EndChar

StartChar: Q
Encoding: 81 81 52
Width: 721
GlyphClass: 1
Flags: W
LayerCount: 2
Fore
SplineSet
295 -5 m 0,0,1
 373 -5 373 -5 446 31 c 128,-1,2
 519 67 519 67 575.5 126.5 c 128,-1,3
 632 186 632 186 665.5 262.5 c 128,-1,4
 699 339 699 339 699 420 c 0,5,6
 699 477 699 477 682.5 530 c 128,-1,7
 666 583 666 583 634.5 624 c 128,-1,8
 603 665 603 665 556.5 690 c 128,-1,9
 510 715 510 715 450 715 c 0,10,11
 372 715 372 715 298.5 679 c 128,-1,12
 225 643 225 643 168.5 583 c 128,-1,13
 112 523 112 523 78 446 c 128,-1,14
 44 369 44 369 44 288 c 0,15,16
 44 231 44 231 60.5 178 c 128,-1,17
 77 125 77 125 109 84.5 c 128,-1,18
 141 44 141 44 188 19.5 c 128,-1,19
 235 -5 235 -5 295 -5 c 0,0,1
313 76 m 0,20,21
 270 76 270 76 237 94 c 128,-1,22
 204 112 204 112 181.5 142 c 128,-1,23
 159 172 159 172 147.5 212 c 128,-1,24
 136 252 136 252 136 296 c 0,25,26
 136 356 136 356 159 416 c 128,-1,27
 182 476 182 476 222 524.5 c 128,-1,28
 262 573 262 573 316 603 c 128,-1,29
 370 633 370 633 431 633 c 0,30,31
 473 633 473 633 506 615 c 128,-1,32
 539 597 539 597 561.5 567 c 128,-1,33
 584 537 584 537 595.5 497 c 128,-1,34
 607 457 607 457 607 413 c 0,35,36
 607 354 607 354 584 294 c 128,-1,37
 561 234 561 234 521.5 185.5 c 128,-1,38
 482 137 482 137 428.5 106.5 c 128,-1,39
 375 76 375 76 313 76 c 0,20,21
596 -10 m 1,40,-1
 660 44 l 1,41,-1
 427 319 l 1,42,-1
 363 265 l 1,43,-1
 596 -10 l 1,40,-1
EndSplineSet
EndChar

StartChar: R
Encoding: 82 82 53
Width: 633
GlyphClass: 1
Flags: W
LayerCount: 2
Fore
SplineSet
110 0 m 1,0,-1
 164 255 l 1,1,-1
 338 255 l 1,2,-1
 436 0 l 1,3,-1
 538 0 l 1,4,-1
 433 272 l 1,5,6
 473 282 473 282 507.5 307 c 128,-1,7
 542 332 542 332 567.5 365.5 c 128,-1,8
 593 399 593 399 608 439.5 c 128,-1,9
 623 480 623 480 623 522 c 0,10,11
 623 558 623 558 612 592 c 128,-1,12
 601 626 601 626 580 652 c 128,-1,13
 559 678 559 678 529 694 c 128,-1,14
 499 710 499 710 461 710 c 2,15,-1
 171 710 l 1,16,-1
 20 0 l 1,17,-1
 110 0 l 1,0,-1
181 335 m 1,18,-1
 244 630 l 1,19,-1
 439 630 l 2,20,21
 459 630 459 630 475.5 620.5 c 128,-1,22
 492 611 492 611 504 595 c 128,-1,23
 516 579 516 579 523 557.5 c 128,-1,24
 530 536 530 536 530 512 c 0,25,26
 530 479 530 479 518 447.5 c 128,-1,27
 506 416 506 416 486 391 c 128,-1,28
 466 366 466 366 439 350.5 c 128,-1,29
 412 335 412 335 382 335 c 2,30,-1
 181 335 l 1,18,-1
EndSplineSet
EndChar

StartChar: S
Encoding: 83 83 54
Width: 588
GlyphClass: 1
Flags: W
LayerCount: 2
Fore
SplineSet
242 -7 m 0,0,1
 302 -7 302 -7 355 7.5 c 128,-1,2
 408 22 408 22 448 51 c 128,-1,3
 488 80 488 80 511.5 124.5 c 128,-1,4
 535 169 535 169 535 229 c 0,5,6
 535 266 535 266 521.5 292 c 128,-1,7
 508 318 508 318 483.5 337 c 128,-1,8
 459 356 459 356 424 369.5 c 128,-1,9
 389 383 389 383 346 394 c 0,10,11
 309 403 309 403 280.5 412.5 c 128,-1,12
 252 422 252 422 233 433.5 c 128,-1,13
 214 445 214 445 204.5 460.5 c 128,-1,14
 195 476 195 476 195 498 c 0,15,16
 195 528 195 528 205.5 553 c 128,-1,17
 216 578 216 578 237.5 596 c 128,-1,18
 259 614 259 614 292 624.5 c 128,-1,19
 325 635 325 635 370 635 c 0,20,21
 400 635 400 635 427 628.5 c 128,-1,22
 454 622 454 622 475.5 611.5 c 128,-1,23
 497 601 497 601 513 588 c 128,-1,24
 529 575 529 575 537 561 c 1,25,-1
 594 634 l 1,26,27
 577 652 577 652 555.5 667 c 128,-1,28
 534 682 534 682 508 692.5 c 128,-1,29
 482 703 482 703 452.5 709 c 128,-1,30
 423 715 423 715 389 715 c 0,31,32
 329 715 329 715 275.5 698 c 128,-1,33
 222 681 222 681 182 649.5 c 128,-1,34
 142 618 142 618 119 572.5 c 128,-1,35
 96 527 96 527 96 469 c 0,36,37
 96 437 96 437 107.5 413.5 c 128,-1,38
 119 390 119 390 141 372.5 c 128,-1,39
 163 355 163 355 195 342 c 128,-1,40
 227 329 227 329 268 318 c 0,41,42
 307 308 307 308 338 297.5 c 128,-1,43
 369 287 369 287 390.5 273.5 c 128,-1,44
 412 260 412 260 423.5 242.5 c 128,-1,45
 435 225 435 225 435 201 c 0,46,47
 435 171 435 171 423 147.5 c 128,-1,48
 411 124 411 124 388.5 107.5 c 128,-1,49
 366 91 366 91 334 82.5 c 128,-1,50
 302 74 302 74 261 74 c 0,51,52
 222 74 222 74 188 82.5 c 128,-1,53
 154 91 154 91 126.5 104.5 c 128,-1,54
 99 118 99 118 78.5 135 c 128,-1,55
 58 152 58 152 47 169 c 1,56,-1
 -12 93 l 1,57,58
 11 69 11 69 39 50 c 128,-1,59
 67 31 67 31 99.5 18.5 c 128,-1,60
 132 6 132 6 167.5 -0.5 c 128,-1,61
 203 -7 203 -7 242 -7 c 0,0,1
EndSplineSet
EndChar

StartChar: T
Encoding: 84 84 55
Width: 586
GlyphClass: 1
Flags: W
LayerCount: 2
Fore
SplineSet
183 0 m 1,0,-1
 273 0 l 1,1,-1
 407 630 l 1,2,-1
 638 630 l 1,3,-1
 655 710 l 1,4,-1
 103 710 l 1,5,-1
 86 630 l 1,6,-1
 317 630 l 1,7,-1
 183 0 l 1,0,-1
EndSplineSet
EndChar

StartChar: U
Encoding: 85 85 56
Width: 725
GlyphClass: 1
Flags: W
LayerCount: 2
Fore
SplineSet
298 -5 m 0,0,1
 376 -5 376 -5 436.5 23.5 c 128,-1,2
 497 52 497 52 542 101 c 128,-1,3
 587 150 587 150 616.5 214.5 c 128,-1,4
 646 279 646 279 661 351 c 2,5,-1
 737 710 l 1,6,-1
 647 710 l 1,7,-1
 571 351 l 2,8,9
 560 300 560 300 540 250.5 c 128,-1,10
 520 201 520 201 489 162.5 c 128,-1,11
 458 124 458 124 415 100 c 128,-1,12
 372 76 372 76 314 76 c 0,13,14
 272 76 272 76 243 89 c 128,-1,15
 214 102 214 102 196 125.5 c 128,-1,16
 178 149 178 149 170.5 180 c 128,-1,17
 163 211 163 211 163 247 c 0,18,19
 163 272 163 272 166 298 c 128,-1,20
 169 324 169 324 175 351 c 2,21,-1
 251 710 l 1,22,-1
 161 710 l 1,23,-1
 85 351 l 2,24,25
 78 320 78 320 74.5 290.5 c 128,-1,26
 71 261 71 261 71 232 c 0,27,28
 71 183 71 183 83 139.5 c 128,-1,29
 95 96 95 96 122 64 c 128,-1,30
 149 32 149 32 192 13.5 c 128,-1,31
 235 -5 235 -5 298 -5 c 0,0,1
EndSplineSet
EndChar

StartChar: V
Encoding: 86 86 57
Width: 650
GlyphClass: 1
Flags: W
LayerCount: 2
Fore
SplineSet
219 0 m 1,0,-1
 297 0 l 1,1,-1
 722 710 l 1,2,-1
 627 710 l 1,3,-1
 282 113 l 1,4,-1
 190 710 l 1,5,-1
 95 710 l 1,6,-1
 219 0 l 1,0,-1
EndSplineSet
EndChar

StartChar: W
Encoding: 87 87 58
Width: 1024
GlyphClass: 1
Flags: W
LayerCount: 2
Fore
SplineSet
160 0 m 1,0,-1
 254 0 l 1,1,-1
 560 563 l 1,2,-1
 632 0 l 1,3,-1
 726 0 l 1,4,-1
 1091 710 l 1,5,-1
 989 710 l 1,6,-1
 699 133 l 1,7,-1
 640 710 l 1,8,-1
 542 710 l 1,9,-1
 243 133 l 1,10,-1
 198 710 l 1,11,-1
 97 710 l 1,12,-1
 160 0 l 1,0,-1
EndSplineSet
Substitution2: "'ss09' Style Set 9 lookup 40 subtable" W.ss09
Substitution2: "'aalt' Access All Alternates lookup 0 subtable" W.ss09
EndChar

StartChar: X
Encoding: 88 88 59
Width: 610
GlyphClass: 1
Flags: W
LayerCount: 2
Fore
SplineSet
-52 0 m 1,0,-1
 48 0 l 1,1,-1
 302 286 l 1,2,-1
 435 0 l 1,3,-1
 534 0 l 1,4,-1
 364 350 l 1,5,-1
 693 710 l 1,6,-1
 594 710 l 1,7,-1
 330 414 l 1,8,-1
 191 710 l 1,9,-1
 91 710 l 1,10,-1
 267 350 l 1,11,-1
 -52 0 l 1,0,-1
EndSplineSet
EndChar

StartChar: Y
Encoding: 89 89 60
Width: 612
GlyphClass: 1
Flags: W
LayerCount: 2
Fore
SplineSet
192 0 m 1,0,-1
 282 0 l 1,1,-1
 337 259 l 1,2,-1
 689 710 l 1,3,-1
 591 710 l 1,4,-1
 310 340 l 1,5,-1
 188 710 l 1,6,-1
 89 710 l 1,7,-1
 248 261 l 1,8,-1
 192 0 l 1,0,-1
EndSplineSet
EndChar

StartChar: Z
Encoding: 90 90 61
Width: 600
GlyphClass: 1
Flags: W
LayerCount: 2
Fore
SplineSet
-34 0 m 1,0,-1
 501 0 l 1,1,-1
 518 80 l 1,2,-1
 96 80 l 1,3,-1
 637 640 l 1,4,-1
 652 710 l 1,5,-1
 126 710 l 1,6,-1
 109 630 l 1,7,-1
 530 630 l 1,8,-1
 -19 70 l 1,9,-1
 -34 0 l 1,0,-1
EndSplineSet
EndChar

StartChar: bracketleft
Encoding: 91 91 62
Width: 265
GlyphClass: 1
Flags: W
LayerCount: 2
Fore
SplineSet
148 -40 m 1,0,-1
 163 32 l 1,1,-1
 107 32 l 1,2,-1
 242 668 l 1,3,-1
 298 668 l 1,4,-1
 313 740 l 1,5,-1
 176 740 l 1,6,-1
 10 -40 l 1,7,-1
 148 -40 l 1,0,-1
EndSplineSet
EndChar

StartChar: backslash
Encoding: 92 92 63
Width: 556
GlyphClass: 1
Flags: W
LayerCount: 2
Fore
SplineSet
108 710 m 1,0,-1
 371 0 l 1,1,-1
 469 0 l 1,2,-1
 207 710 l 1,3,-1
 108 710 l 1,0,-1
EndSplineSet
EndChar

StartChar: bracketright
Encoding: 93 93 64
Width: 265
GlyphClass: 1
Flags: W
LayerCount: 2
Fore
SplineSet
111 -40 m 1,0,-1
 276 740 l 1,1,-1
 139 740 l 1,2,-1
 123 668 l 1,3,-1
 179 668 l 1,4,-1
 44 32 l 1,5,-1
 -12 32 l 1,6,-1
 -27 -40 l 1,7,-1
 111 -40 l 1,0,-1
EndSplineSet
EndChar

StartChar: asciicircum
Encoding: 94 94 65
Width: 556
GlyphClass: 1
Flags: W
LayerCount: 2
Fore
SplineSet
124 303 m 1,0,-1
 286 631 l 1,1,-1
 445 303 l 1,2,-1
 520 303 l 1,3,-1
 323 710 l 1,4,-1
 249 710 l 1,5,-1
 51 303 l 1,6,-1
 124 303 l 1,0,-1
EndSplineSet
EndChar

StartChar: underscore
Encoding: 95 95 66
Width: 483
GlyphClass: 1
Flags: W
LayerCount: 2
Fore
SplineSet
338 -80 m 1,0,-1
 355 0 l 1,1,-1
 -2 0 l 1,2,-1
 -19 -80 l 1,3,-1
 338 -80 l 1,0,-1
EndSplineSet
EndChar

StartChar: a
Encoding: 97 97 68
Width: 602
GlyphClass: 1
Flags: W
LayerCount: 2
Fore
SplineSet
207 -10 m 0,0,1
 265 -10 265 -10 315 19.5 c 128,-1,2
 365 49 365 49 402 99 c 1,3,-1
 381 0 l 1,4,-1
 469 0 l 1,5,-1
 579 517 l 1,6,-1
 491 517 l 1,7,-1
 469 417 l 1,8,9
 454 468 454 468 414 499.5 c 128,-1,10
 374 531 374 531 314 531 c 0,11,12
 259 531 259 531 206 504.5 c 128,-1,13
 153 478 153 478 112.5 433 c 128,-1,14
 72 388 72 388 47 329.5 c 128,-1,15
 22 271 22 271 22 206 c 0,16,17
 22 162 22 162 34.5 122.5 c 128,-1,18
 47 83 47 83 70.5 53.5 c 128,-1,19
 94 24 94 24 128.5 7 c 128,-1,20
 163 -10 163 -10 207 -10 c 0,0,1
244 66 m 0,21,22
 214 66 214 66 190 78 c 128,-1,23
 166 90 166 90 149.5 111 c 128,-1,24
 133 132 133 132 124 160 c 128,-1,25
 115 188 115 188 115 220 c 0,26,27
 115 262 115 262 132 303.5 c 128,-1,28
 149 345 149 345 177.5 379 c 128,-1,29
 206 413 206 413 244 434 c 128,-1,30
 282 455 282 455 323 455 c 0,31,32
 349 455 349 455 370.5 445.5 c 128,-1,33
 392 436 392 436 408.5 419.5 c 128,-1,34
 425 403 425 403 436 380 c 128,-1,35
 447 357 447 357 451 330 c 1,36,-1
 419 182 l 1,37,38
 404 157 404 157 384.5 136 c 128,-1,39
 365 115 365 115 342.5 99.5 c 128,-1,40
 320 84 320 84 295 75 c 128,-1,41
 270 66 270 66 244 66 c 0,21,22
EndSplineSet
Substitution2: "Single Substitution lookup 46 subtable" ordfeminine
Substitution2: "'ss02' Style Set 2 lookup 33 subtable" a.ss02
Substitution2: "'ss01' Style Set 1 lookup 32 subtable" a.ss01
Substitution2: "'salt' Stylistic Alternatives lookup 31 subtable" a.ss01
AlternateSubs2: "'aalt' Access All Alternates lookup 1 subtable" ordfeminine a.ss01 a.ss02
EndChar

StartChar: b
Encoding: 98 98 69
Width: 599
GlyphClass: 1
Flags: W
LayerCount: 2
Fore
SplineSet
263 -10 m 0,0,1
 319 -10 319 -10 372.5 16.5 c 128,-1,2
 426 43 426 43 467.5 88 c 128,-1,3
 509 133 509 133 534.5 192.5 c 128,-1,4
 560 252 560 252 560 318 c 0,5,6
 560 360 560 360 549 398.5 c 128,-1,7
 538 437 538 437 516 466.5 c 128,-1,8
 494 496 494 496 461.5 513.5 c 128,-1,9
 429 531 429 531 386 531 c 0,10,11
 328 531 328 531 276 500 c 128,-1,12
 224 469 224 469 182 418 c 1,13,-1
 248 730 l 1,14,-1
 160 730 l 1,15,-1
 5 0 l 1,16,-1
 83 0 l 1,17,-1
 104 98 l 1,18,19
 112 74 112 74 126.5 54.5 c 128,-1,20
 141 35 141 35 161 20.5 c 128,-1,21
 181 6 181 6 206.5 -2 c 128,-1,22
 232 -10 232 -10 263 -10 c 0,0,1
260 66 m 0,23,24
 234 66 234 66 210.5 75 c 128,-1,25
 187 84 187 84 169.5 100 c 128,-1,26
 152 116 152 116 142 137 c 128,-1,27
 132 158 132 158 132 182 c 1,28,-1
 164 333 l 1,29,30
 180 358 180 358 200.5 380 c 128,-1,31
 221 402 221 402 244.5 418.5 c 128,-1,32
 268 435 268 435 293 445 c 128,-1,33
 318 455 318 455 344 455 c 0,34,35
 374 455 374 455 396.5 442.5 c 128,-1,36
 419 430 419 430 435 408.5 c 128,-1,37
 451 387 451 387 459 359.5 c 128,-1,38
 467 332 467 332 467 302 c 0,39,40
 467 257 467 257 449.5 214.5 c 128,-1,41
 432 172 432 172 403 139 c 128,-1,42
 374 106 374 106 336.5 86 c 128,-1,43
 299 66 299 66 260 66 c 0,23,24
EndSplineSet
EndChar

StartChar: c
Encoding: 99 99 70
Width: 531
GlyphClass: 1
Flags: W
LayerCount: 2
Fore
SplineSet
227 -10 m 0,0,1
 264 -10 264 -10 299.5 0 c 128,-1,2
 335 10 335 10 366 27 c 128,-1,3
 397 44 397 44 423 68.5 c 128,-1,4
 449 93 449 93 466 121 c 1,5,-1
 385 147 l 1,6,7
 376 131 376 131 360 116 c 128,-1,8
 344 101 344 101 324.5 90 c 128,-1,9
 305 79 305 79 282.5 72.5 c 128,-1,10
 260 66 260 66 239 66 c 0,11,12
 211 66 211 66 187.5 77.5 c 128,-1,13
 164 89 164 89 147.5 110 c 128,-1,14
 131 131 131 131 122 159.5 c 128,-1,15
 113 188 113 188 113 222 c 0,16,17
 113 270 113 270 130.5 312.5 c 128,-1,18
 148 355 148 355 177.5 386.5 c 128,-1,19
 207 418 207 418 244.5 436.5 c 128,-1,20
 282 455 282 455 322 455 c 0,21,22
 363 455 363 455 391 435 c 128,-1,23
 419 415 419 415 431 377 c 1,24,-1
 522 404 l 1,25,26
 507 462 507 462 460.5 496.5 c 128,-1,27
 414 531 414 531 337 531 c 0,28,29
 270 531 270 531 212.5 504.5 c 128,-1,30
 155 478 155 478 112.5 433.5 c 128,-1,31
 70 389 70 389 46 331.5 c 128,-1,32
 22 274 22 274 22 211 c 0,33,34
 22 165 22 165 35.5 125 c 128,-1,35
 49 85 49 85 75 55 c 128,-1,36
 101 25 101 25 139.5 7.5 c 128,-1,37
 178 -10 178 -10 227 -10 c 0,0,1
EndSplineSet
EndChar

StartChar: d
Encoding: 100 100 71
Width: 600
GlyphClass: 1
Flags: W
LayerCount: 2
Fore
SplineSet
208 -10 m 0,0,1
 235 -10 235 -10 261 -3 c 128,-1,2
 287 4 287 4 311.5 17.5 c 128,-1,3
 336 31 336 31 358 50 c 128,-1,4
 380 69 380 69 398 92 c 1,5,-1
 379 0 l 1,6,-1
 467 0 l 1,7,-1
 622 730 l 1,8,-1
 534 730 l 1,9,-1
 467 418 l 1,10,11
 458 442 458 442 443.5 462.5 c 128,-1,12
 429 483 429 483 409.5 498 c 128,-1,13
 390 513 390 513 365 522 c 128,-1,14
 340 531 340 531 310 531 c 0,15,16
 254 531 254 531 202 504 c 128,-1,17
 150 477 150 477 110 432 c 128,-1,18
 70 387 70 387 46 328.5 c 128,-1,19
 22 270 22 270 22 207 c 0,20,21
 22 163 22 163 34.5 123.5 c 128,-1,22
 47 84 47 84 71 54.5 c 128,-1,23
 95 25 95 25 129.5 7.5 c 128,-1,24
 164 -10 164 -10 208 -10 c 0,0,1
245 66 m 0,25,26
 215 66 215 66 191 78 c 128,-1,27
 167 90 167 90 150 111 c 128,-1,28
 133 132 133 132 124 160.5 c 128,-1,29
 115 189 115 189 115 221 c 0,30,31
 115 263 115 263 131.5 305 c 128,-1,32
 148 347 148 347 176 380 c 128,-1,33
 204 413 204 413 241.5 434 c 128,-1,34
 279 455 279 455 320 455 c 0,35,36
 343 455 343 455 365 445.5 c 128,-1,37
 387 436 387 436 405 419.5 c 128,-1,38
 423 403 423 403 434.5 381 c 128,-1,39
 446 359 446 359 449 333 c 1,40,-1
 418 183 l 2,41,42
 409 159 409 159 389 137.5 c 128,-1,43
 369 116 369 116 344.5 100 c 128,-1,44
 320 84 320 84 294 75 c 128,-1,45
 268 66 268 66 245 66 c 0,25,26
EndSplineSet
Substitution2: "'ss03' Style Set 3 lookup 34 subtable" d.ss03
Substitution2: "'aalt' Access All Alternates lookup 0 subtable" d.ss03
EndChar

StartChar: e
Encoding: 101 101 72
Width: 539
GlyphClass: 1
Flags: W
LayerCount: 2
Fore
SplineSet
228 -10 m 0,0,1
 265 -10 265 -10 300.5 0 c 128,-1,2
 336 10 336 10 368 27.5 c 128,-1,3
 400 45 400 45 427 69 c 128,-1,4
 454 93 454 93 472 122 c 1,5,-1
 401 143 l 1,6,7
 389 123 389 123 371 107 c 128,-1,8
 353 91 353 91 332 79.5 c 128,-1,9
 311 68 311 68 288 62 c 128,-1,10
 265 56 265 56 242 56 c 0,11,12
 209 56 209 56 184.5 68.5 c 128,-1,13
 160 81 160 81 144 102.5 c 128,-1,14
 128 124 128 124 120 152 c 128,-1,15
 112 180 112 180 112 211 c 0,16,17
 112 251 112 251 125 295.5 c 128,-1,18
 138 340 138 340 165 377.5 c 128,-1,19
 192 415 192 415 234 440 c 128,-1,20
 276 465 276 465 333 465 c 0,21,22
 356 465 356 465 374.5 460.5 c 128,-1,23
 393 456 393 456 406.5 447 c 128,-1,24
 420 438 420 438 427 424 c 128,-1,25
 434 410 434 410 434 391 c 0,26,27
 434 369 434 369 423.5 350.5 c 128,-1,28
 413 332 413 332 389 318.5 c 128,-1,29
 365 305 365 305 326.5 297.5 c 128,-1,30
 288 290 288 290 231 290 c 0,31,32
 206 290 206 290 177.5 291.5 c 128,-1,33
 149 293 149 293 116 296 c 1,34,-1
 92 236 l 1,35,36
 131 232 131 232 165.5 230.5 c 128,-1,37
 200 229 200 229 228 229 c 0,38,39
 374 229 374 229 443.5 269.5 c 128,-1,40
 513 310 513 310 513 390 c 0,41,42
 513 425 513 425 500 451.5 c 128,-1,43
 487 478 487 478 464 495.5 c 128,-1,44
 441 513 441 513 409 522 c 128,-1,45
 377 531 377 531 339 531 c 0,46,47
 271 531 271 531 213 504.5 c 128,-1,48
 155 478 155 478 113 433.5 c 128,-1,49
 71 389 71 389 47 331.5 c 128,-1,50
 23 274 23 274 23 211 c 0,51,52
 23 165 23 165 36.5 124.5 c 128,-1,53
 50 84 50 84 76.5 54 c 128,-1,54
 103 24 103 24 141 7 c 128,-1,55
 179 -10 179 -10 228 -10 c 0,0,1
EndSplineSet
EndChar

StartChar: f
Encoding: 102 102 73
Width: 334
GlyphClass: 1
Flags: W
LayerCount: 2
Fore
SplineSet
-15 -212 m 1,0,-1
 73 -212 l 1,1,-1
 214 453 l 1,2,-1
 345 453 l 1,3,-1
 360 522 l 1,4,-1
 229 522 l 1,5,-1
 232 536 l 2,6,7
 246 599 246 599 274 632 c 128,-1,8
 302 665 302 665 343 665 c 0,9,10
 361 665 361 665 379.5 659 c 128,-1,11
 398 653 398 653 409 643 c 1,12,-1
 445 708 l 1,13,14
 424 723 424 723 397 731.5 c 128,-1,15
 370 740 370 740 341 740 c 0,16,17
 306 740 306 740 274 726 c 128,-1,18
 242 712 242 712 216 685 c 128,-1,19
 190 658 190 658 171 619.5 c 128,-1,20
 152 581 152 581 143 533 c 2,21,-1
 141 522 l 1,22,-1
 74 522 l 1,23,-1
 59 453 l 1,24,-1
 126 453 l 1,25,-1
 -15 -212 l 1,0,-1
EndSplineSet
EndChar

StartChar: g
Encoding: 103 103 74
Width: 599
GlyphClass: 1
Flags: W
LayerCount: 2
Fore
SplineSet
164 -223 m 0,0,1
 217 -223 217 -223 267 -208 c 128,-1,2
 317 -193 317 -193 357.5 -164 c 128,-1,3
 398 -135 398 -135 426.5 -92.5 c 128,-1,4
 455 -50 455 -50 467 6 c 2,5,-1
 577 522 l 1,6,-1
 499 522 l 1,7,-1
 477 418 l 1,8,9
 467 442 467 442 452 463 c 128,-1,10
 437 484 437 484 417.5 499 c 128,-1,11
 398 514 398 514 373 522.5 c 128,-1,12
 348 531 348 531 317 531 c 0,13,14
 258 531 258 531 204.5 504 c 128,-1,15
 151 477 151 477 110.5 432 c 128,-1,16
 70 387 70 387 46 328.5 c 128,-1,17
 22 270 22 270 22 207 c 0,18,19
 22 164 22 164 34 125.5 c 128,-1,20
 46 87 46 87 69 58 c 128,-1,21
 92 29 92 29 125.5 11.5 c 128,-1,22
 159 -6 159 -6 201 -6 c 0,23,24
 227 -6 227 -6 254.5 1.5 c 128,-1,25
 282 9 282 9 307.5 22.5 c 128,-1,26
 333 36 333 36 356.5 55 c 128,-1,27
 380 74 380 74 398 98 c 1,28,-1
 379 6 l 2,29,30
 370 -35 370 -35 350.5 -65 c 128,-1,31
 331 -95 331 -95 304 -115 c 128,-1,32
 277 -135 277 -135 244.5 -145 c 128,-1,33
 212 -155 212 -155 178 -155 c 0,34,35
 124 -155 124 -155 83 -132 c 128,-1,36
 42 -109 42 -109 22 -63 c 1,37,-1
 -38 -108 l 1,38,39
 -26 -135 -26 -135 -8.5 -156 c 128,-1,40
 9 -177 9 -177 33 -192 c 128,-1,41
 57 -207 57 -207 89.5 -215 c 128,-1,42
 122 -223 122 -223 164 -223 c 0,0,1
244 66 m 0,43,44
 214 66 214 66 190 78.5 c 128,-1,45
 166 91 166 91 149 112 c 128,-1,46
 132 133 132 133 122.5 161 c 128,-1,47
 113 189 113 189 113 221 c 0,48,49
 113 262 113 262 129 303.5 c 128,-1,50
 145 345 145 345 173 378.5 c 128,-1,51
 201 412 201 412 238.5 433.5 c 128,-1,52
 276 455 276 455 319 455 c 0,53,54
 343 455 343 455 365 446 c 128,-1,55
 387 437 387 437 404 420.5 c 128,-1,56
 421 404 421 404 433 382 c 128,-1,57
 445 360 445 360 449 333 c 1,58,-1
 417 183 l 1,59,60
 407 161 407 161 388.5 140 c 128,-1,61
 370 119 370 119 346.5 102.5 c 128,-1,62
 323 86 323 86 296.5 76 c 128,-1,63
 270 66 270 66 244 66 c 0,43,44
EndSplineSet
EndChar

StartChar: h
Encoding: 104 104 75
Width: 567
GlyphClass: 1
Flags: W
LayerCount: 2
Fore
SplineSet
5 0 m 1,0,-1
 93 0 l 1,1,-1
 160 315 l 1,2,3
 174 345 174 345 196 370 c 128,-1,4
 218 395 218 395 243 413 c 128,-1,5
 268 431 268 431 294 441.5 c 128,-1,6
 320 452 320 452 344 452 c 0,7,8
 382 452 382 452 401.5 429 c 128,-1,9
 421 406 421 406 421 360 c 0,10,11
 421 345 421 345 419 328.5 c 128,-1,12
 417 312 417 312 413 292 c 2,13,-1
 351 0 l 1,14,-1
 439 0 l 1,15,-1
 505 312 l 2,16,17
 510 336 510 336 512.5 358.5 c 128,-1,18
 515 381 515 381 515 401 c 0,19,20
 515 430 515 430 508.5 454 c 128,-1,21
 502 478 502 478 488 495 c 128,-1,22
 474 512 474 512 451 521.5 c 128,-1,23
 428 531 428 531 395 531 c 0,24,25
 365 531 365 531 335.5 522.5 c 128,-1,26
 306 514 306 514 278.5 498.5 c 128,-1,27
 251 483 251 483 226 460.5 c 128,-1,28
 201 438 201 438 180 410 c 1,29,-1
 248 730 l 1,30,-1
 160 730 l 1,31,-1
 5 0 l 1,0,-1
EndSplineSet
EndChar

StartChar: k
Encoding: 107 107 78
Width: 542
GlyphClass: 1
Flags: W
LayerCount: 2
Fore
SplineSet
365 0 m 1,0,-1
 460 0 l 1,1,-1
 345 219 l 1,2,3
 428 254 428 254 470.5 308 c 128,-1,4
 513 362 513 362 513 426 c 0,5,6
 513 474 513 474 488 502.5 c 128,-1,7
 463 531 463 531 409 531 c 0,8,9
 371 531 371 531 336 517.5 c 128,-1,10
 301 504 301 504 270 481.5 c 128,-1,11
 239 459 239 459 211.5 428.5 c 128,-1,12
 184 398 184 398 160 365 c 1,13,-1
 140 227 l 1,14,15
 157 275 157 275 184.5 317.5 c 128,-1,16
 212 360 212 360 245.5 391.5 c 128,-1,17
 279 423 279 423 315.5 441 c 128,-1,18
 352 459 352 459 386 459 c 0,19,20
 407 459 407 459 420 449.5 c 128,-1,21
 433 440 433 440 433 414 c 0,22,23
 433 366 433 366 384.5 321 c 128,-1,24
 336 276 336 276 241 255 c 1,25,-1
 365 0 l 1,0,-1
5 0 m 1,26,-1
 93 0 l 1,27,-1
 248 730 l 1,28,-1
 160 730 l 1,29,-1
 5 0 l 1,26,-1
EndSplineSet
EndChar

StartChar: l
Encoding: 108 108 79
Width: 280
GlyphClass: 1
Flags: W
LayerCount: 2
Fore
SplineSet
112 -7 m 0,0,1
 135 -7 135 -7 165 -1 c 128,-1,2
 195 5 195 5 218 14 c 1,3,-1
 221 85 l 1,4,5
 207 80 207 80 192 76.5 c 128,-1,6
 177 73 177 73 166 73 c 0,7,8
 144 73 144 73 132.5 84.5 c 128,-1,9
 121 96 121 96 121 116 c 0,10,11
 121 121 121 121 121.5 125.5 c 128,-1,12
 122 130 122 130 123 135 c 2,13,-1
 249 730 l 1,14,-1
 162 730 l 1,15,-1
 29 103 l 2,16,17
 27 95 27 95 26 87 c 128,-1,18
 25 79 25 79 25 71 c 0,19,20
 25 34 25 34 47.5 13.5 c 128,-1,21
 70 -7 70 -7 112 -7 c 0,0,1
EndSplineSet
Substitution2: "'ss05' Style Set 5 lookup 36 subtable" l.ss05
Substitution2: "'aalt' Access All Alternates lookup 0 subtable" l.ss05
EndChar

StartChar: m
Encoding: 109 109 80
Width: 883
GlyphClass: 1
Flags: W
LayerCount: 2
Fore
SplineSet
5 0 m 1,0,-1
 93 0 l 1,1,-1
 160 315 l 1,2,3
 175 346 175 346 195 371 c 128,-1,4
 215 396 215 396 238 414 c 128,-1,5
 261 432 261 432 286 442 c 128,-1,6
 311 452 311 452 336 452 c 0,7,8
 371 452 371 452 389 431.5 c 128,-1,9
 407 411 407 411 407 366 c 0,10,11
 407 350 407 350 405 332 c 128,-1,12
 403 314 403 314 398 292 c 2,13,-1
 336 0 l 1,14,-1
 424 0 l 1,15,-1
 490 314 l 1,16,17
 505 344 505 344 525 369.5 c 128,-1,18
 545 395 545 395 568 413.5 c 128,-1,19
 591 432 591 432 616 442 c 128,-1,20
 641 452 641 452 666 452 c 0,21,22
 701 452 701 452 719.5 431 c 128,-1,23
 738 410 738 410 738 365 c 0,24,25
 738 349 738 349 736 331 c 128,-1,26
 734 313 734 313 729 292 c 2,27,-1
 667 0 l 1,28,-1
 755 0 l 1,29,-1
 822 312 l 2,30,31
 827 337 827 337 830 360 c 128,-1,32
 833 383 833 383 833 404 c 0,33,34
 833 433 833 433 827 456 c 128,-1,35
 821 479 821 479 807 496 c 128,-1,36
 793 513 793 513 771 522 c 128,-1,37
 749 531 749 531 717 531 c 0,38,39
 687 531 687 531 658.5 523 c 128,-1,40
 630 515 630 515 603 499 c 128,-1,41
 576 483 576 483 551 459 c 128,-1,42
 526 435 526 435 503 404 c 1,43,44
 502 434 502 434 494 458 c 128,-1,45
 486 482 486 482 470.5 498 c 128,-1,46
 455 514 455 514 433 522.5 c 128,-1,47
 411 531 411 531 382 531 c 0,48,49
 324 531 324 531 268 498.5 c 128,-1,50
 212 466 212 466 172 410 c 1,51,-1
 196 522 l 1,52,-1
 116 522 l 1,53,-1
 5 0 l 1,0,-1
EndSplineSet
EndChar

StartChar: n
Encoding: 110 110 81
Width: 567
GlyphClass: 1
Flags: W
LayerCount: 2
Fore
SplineSet
5 0 m 1,0,-1
 93 0 l 1,1,-1
 160 315 l 1,2,3
 175 345 175 345 197 370 c 128,-1,4
 219 395 219 395 245 413 c 128,-1,5
 271 431 271 431 298.5 441.5 c 128,-1,6
 326 452 326 452 351 452 c 0,7,8
 386 452 386 452 404 431.5 c 128,-1,9
 422 411 422 411 422 367 c 0,10,11
 422 351 422 351 420 332.5 c 128,-1,12
 418 314 418 314 413 292 c 2,13,-1
 351 0 l 1,14,-1
 439 0 l 1,15,-1
 505 312 l 2,16,17
 510 338 510 338 513.5 362 c 128,-1,18
 517 386 517 386 517 408 c 0,19,20
 517 436 517 436 511 458.5 c 128,-1,21
 505 481 505 481 491.5 497 c 128,-1,22
 478 513 478 513 456.5 522 c 128,-1,23
 435 531 435 531 403 531 c 0,24,25
 370 531 370 531 337.5 522.5 c 128,-1,26
 305 514 305 514 275 498 c 128,-1,27
 245 482 245 482 218.5 459.5 c 128,-1,28
 192 437 192 437 172 410 c 1,29,-1
 196 522 l 1,30,-1
 116 522 l 1,31,-1
 5 0 l 1,0,-1
EndSplineSet
EndChar

StartChar: o
Encoding: 111 111 82
Width: 578
GlyphClass: 1
Flags: W
LayerCount: 2
Fore
SplineSet
229 -10 m 0,0,1
 293 -10 293 -10 349.5 15.5 c 128,-1,2
 406 41 406 41 448 84.5 c 128,-1,3
 490 128 490 128 514.5 186.5 c 128,-1,4
 539 245 539 245 539 310 c 0,5,6
 539 356 539 356 526 396 c 128,-1,7
 513 436 513 436 487 466 c 128,-1,8
 461 496 461 496 422 513.5 c 128,-1,9
 383 531 383 531 330 531 c 0,10,11
 267 531 267 531 211 505.5 c 128,-1,12
 155 480 155 480 113 436 c 128,-1,13
 71 392 71 392 46.5 334 c 128,-1,14
 22 276 22 276 22 210 c 0,15,16
 22 165 22 165 34.5 125 c 128,-1,17
 47 85 47 85 73 55 c 128,-1,18
 99 25 99 25 138 7.5 c 128,-1,19
 177 -10 177 -10 229 -10 c 0,0,1
244 66 m 0,20,21
 212 66 212 66 187.5 77.5 c 128,-1,22
 163 89 163 89 146.5 110 c 128,-1,23
 130 131 130 131 121.5 159.5 c 128,-1,24
 113 188 113 188 113 222 c 0,25,26
 113 272 113 272 130 314.5 c 128,-1,27
 147 357 147 357 175.5 388.5 c 128,-1,28
 204 420 204 420 240.5 437.5 c 128,-1,29
 277 455 277 455 316 455 c 0,30,31
 348 455 348 455 372.5 443 c 128,-1,32
 397 431 397 431 413.5 410 c 128,-1,33
 430 389 430 389 438.5 360 c 128,-1,34
 447 331 447 331 447 297 c 0,35,36
 447 247 447 247 430 204.5 c 128,-1,37
 413 162 413 162 384.5 131.5 c 128,-1,38
 356 101 356 101 319.5 83.5 c 128,-1,39
 283 66 283 66 244 66 c 0,20,21
EndSplineSet
Substitution2: "Single Substitution lookup 46 subtable" ordmasculine
Substitution2: "'aalt' Access All Alternates lookup 0 subtable" ordmasculine
EndChar

StartChar: p
Encoding: 112 112 83
Width: 600
GlyphClass: 1
Flags: W
LayerCount: 2
Fore
SplineSet
-40 -213 m 1,0,-1
 48 -213 l 1,1,-1
 115 103 l 1,2,3
 124 79 124 79 138 58 c 128,-1,4
 152 37 152 37 172 22 c 128,-1,5
 192 7 192 7 217.5 -1.5 c 128,-1,6
 243 -10 243 -10 273 -10 c 0,7,8
 331 -10 331 -10 383 17 c 128,-1,9
 435 44 435 44 474.5 89 c 128,-1,10
 514 134 514 134 537 192.5 c 128,-1,11
 560 251 560 251 560 313 c 0,12,13
 560 357 560 357 547.5 396.5 c 128,-1,14
 535 436 535 436 511 466 c 128,-1,15
 487 496 487 496 453 513.5 c 128,-1,16
 419 531 419 531 376 531 c 0,17,18
 348 531 348 531 320 523.5 c 128,-1,19
 292 516 292 516 266 501.5 c 128,-1,20
 240 487 240 487 216.5 467.5 c 128,-1,21
 193 448 193 448 173 424 c 1,22,-1
 194 522 l 1,23,-1
 116 522 l 1,24,-1
 -40 -213 l 1,0,-1
262 66 m 0,25,26
 237 66 237 66 215.5 75.5 c 128,-1,27
 194 85 194 85 177.5 101.5 c 128,-1,28
 161 118 161 118 149.5 140.5 c 128,-1,29
 138 163 138 163 133 189 c 1,30,-1
 165 338 l 1,31,32
 175 362 175 362 195 383.5 c 128,-1,33
 215 405 215 405 239 420.5 c 128,-1,34
 263 436 263 436 289 445.5 c 128,-1,35
 315 455 315 455 337 455 c 0,36,37
 367 455 367 455 391 442.5 c 128,-1,38
 415 430 415 430 432.5 409 c 128,-1,39
 450 388 450 388 459 359.5 c 128,-1,40
 468 331 468 331 468 299 c 0,41,42
 468 257 468 257 451.5 215.5 c 128,-1,43
 435 174 435 174 406.5 140.5 c 128,-1,44
 378 107 378 107 341 86.5 c 128,-1,45
 304 66 304 66 262 66 c 0,25,26
EndSplineSet
EndChar

StartChar: q
Encoding: 113 113 84
Width: 599
GlyphClass: 1
Flags: W
LayerCount: 2
Fore
SplineSet
333 -213 m 1,0,-1
 421 -213 l 1,1,-1
 577 522 l 1,2,-1
 499 522 l 1,3,-1
 478 423 l 1,4,5
 469 447 469 447 454.5 466.5 c 128,-1,6
 440 486 440 486 420 500.5 c 128,-1,7
 400 515 400 515 375 523 c 128,-1,8
 350 531 350 531 321 531 c 0,9,10
 264 531 264 531 210.5 504.5 c 128,-1,11
 157 478 157 478 115 433 c 128,-1,12
 73 388 73 388 47.5 328.5 c 128,-1,13
 22 269 22 269 22 203 c 0,14,15
 22 160 22 160 33.5 121 c 128,-1,16
 45 82 45 82 67 53 c 128,-1,17
 89 24 89 24 121 7 c 128,-1,18
 153 -10 153 -10 194 -10 c 0,19,20
 251 -10 251 -10 303 18.5 c 128,-1,21
 355 47 355 47 400 103 c 1,22,-1
 333 -213 l 1,0,-1
240 66 m 0,23,24
 210 66 210 66 187 78 c 128,-1,25
 164 90 164 90 147.5 110.5 c 128,-1,26
 131 131 131 131 122.5 159 c 128,-1,27
 114 187 114 187 114 218 c 0,28,29
 114 262 114 262 131.5 304.5 c 128,-1,30
 149 347 149 347 178.5 380.5 c 128,-1,31
 208 414 208 414 246 434.5 c 128,-1,32
 284 455 284 455 325 455 c 0,33,34
 350 455 350 455 372 444.5 c 128,-1,35
 394 434 394 434 411 417 c 128,-1,36
 428 400 428 400 438 377 c 128,-1,37
 448 354 448 354 448 328 c 1,38,-1
 416 178 l 1,39,40
 399 155 399 155 379 134.5 c 128,-1,41
 359 114 359 114 337 99 c 128,-1,42
 315 84 315 84 290.5 75 c 128,-1,43
 266 66 266 66 240 66 c 0,23,24
EndSplineSet
Substitution2: "'ss06' Style Set 6 lookup 37 subtable" q.ss06
Substitution2: "'aalt' Access All Alternates lookup 0 subtable" q.ss06
EndChar

StartChar: r
Encoding: 114 114 85
Width: 354
GlyphClass: 1
Flags: W
LayerCount: 2
Fore
SplineSet
5 0 m 1,0,-1
 93 0 l 1,1,-1
 161 322 l 1,2,3
 193 379 193 379 247.5 411 c 128,-1,4
 302 443 302 443 365 445 c 1,5,-1
 381 521 l 1,6,7
 376 522 376 522 370 522.5 c 128,-1,8
 364 523 364 523 355 523 c 0,9,10
 307 523 307 523 258.5 489 c 128,-1,11
 210 455 210 455 172 401 c 1,12,-1
 198 522 l 1,13,-1
 116 522 l 1,14,-1
 5 0 l 1,0,-1
EndSplineSet
EndChar

StartChar: s
Encoding: 115 115 86
Width: 475
GlyphClass: 1
Flags: W
LayerCount: 2
Fore
SplineSet
181 -10 m 0,0,1
 234 -10 234 -10 277 3.5 c 128,-1,2
 320 17 320 17 350 40 c 128,-1,3
 380 63 380 63 396.5 95 c 128,-1,4
 413 127 413 127 413 163 c 0,5,6
 413 193 413 193 402 213.5 c 128,-1,7
 391 234 391 234 370 249.5 c 128,-1,8
 349 265 349 265 318 276.5 c 128,-1,9
 287 288 287 288 246 299 c 0,10,11
 219 307 219 307 200 313 c 128,-1,12
 181 319 181 319 169 326.5 c 128,-1,13
 157 334 157 334 152 344 c 128,-1,14
 147 354 147 354 147 370 c 0,15,16
 147 393 147 393 157.5 410.5 c 128,-1,17
 168 428 168 428 186 440 c 128,-1,18
 204 452 204 452 228.5 458 c 128,-1,19
 253 464 253 464 282 464 c 0,20,21
 323 464 323 464 353.5 451 c 128,-1,22
 384 438 384 438 410 409 c 1,23,-1
 461 462 l 1,24,25
 433 493 433 493 389 512 c 128,-1,26
 345 531 345 531 286 531 c 0,27,28
 238 531 238 531 196.5 518 c 128,-1,29
 155 505 155 505 125 481 c 128,-1,30
 95 457 95 457 77.5 423.5 c 128,-1,31
 60 390 60 390 60 350 c 0,32,33
 60 323 60 323 68.5 305 c 128,-1,34
 77 287 77 287 95 274.5 c 128,-1,35
 113 262 113 262 140.5 252.5 c 128,-1,36
 168 243 168 243 205 232 c 0,37,38
 235 223 235 223 257 216.5 c 128,-1,39
 279 210 279 210 294 201.5 c 128,-1,40
 309 193 309 193 316.5 181.5 c 128,-1,41
 324 170 324 170 324 152 c 0,42,43
 324 131 324 131 314 113.5 c 128,-1,44
 304 96 304 96 286.5 83.5 c 128,-1,45
 269 71 269 71 244 64.5 c 128,-1,46
 219 58 219 58 189 58 c 0,47,48
 143 58 143 58 102.5 74 c 128,-1,49
 62 90 62 90 26 125 c 1,50,-1
 -24 66 l 1,51,52
 10 29 10 29 64 9.5 c 128,-1,53
 118 -10 118 -10 181 -10 c 0,0,1
EndSplineSet
EndChar

StartChar: t
Encoding: 116 116 87
Width: 338
GlyphClass: 1
Flags: W
LayerCount: 2
Fore
SplineSet
48 73 m 0,0,1
 48 32 48 32 75 12.5 c 128,-1,2
 102 -7 102 -7 142 -7 c 0,3,4
 162 -7 162 -7 181 -4 c 128,-1,5
 200 -1 200 -1 217 3.5 c 128,-1,6
 234 8 234 8 248 14 c 128,-1,7
 262 20 262 20 271 26 c 1,8,-1
 266 96 l 1,9,10
 262 94 262 94 253.5 90 c 128,-1,11
 245 86 245 86 234.5 82.5 c 128,-1,12
 224 79 224 79 212 76.5 c 128,-1,13
 200 74 200 74 188 74 c 0,14,15
 169 74 169 74 156 83.5 c 128,-1,16
 143 93 143 93 143 114 c 0,17,18
 143 118 143 118 143.5 121.5 c 128,-1,19
 144 125 144 125 145 129 c 2,20,-1
 214 453 l 1,21,-1
 324 453 l 1,22,-1
 339 522 l 1,23,-1
 228 522 l 1,24,-1
 265 696 l 1,25,-1
 177 696 l 1,26,-1
 140 522 l 1,27,-1
 73 522 l 1,28,-1
 58 453 l 1,29,-1
 126 453 l 1,30,-1
 51 102 l 2,31,32
 49 94 49 94 48.5 87 c 128,-1,33
 48 80 48 80 48 73 c 0,0,1
EndSplineSet
Substitution2: "'ss07' Style Set 7 lookup 38 subtable" t.ss07
Substitution2: "'aalt' Access All Alternates lookup 0 subtable" t.ss07
EndChar

StartChar: u
Encoding: 117 117 88
Width: 571
GlyphClass: 1
Flags: W
LayerCount: 2
Fore
SplineSet
161 -10 m 0,0,1
 190 -10 190 -10 219.5 -2 c 128,-1,2
 249 6 249 6 277.5 21 c 128,-1,3
 306 36 306 36 331 57.5 c 128,-1,4
 356 79 356 79 376 107 c 1,5,-1
 353 0 l 1,6,-1
 438 0 l 1,7,-1
 549 522 l 1,8,-1
 461 522 l 1,9,-1
 392 195 l 1,10,11
 376 168 376 168 355 144 c 128,-1,12
 334 120 334 120 310 103 c 128,-1,13
 286 86 286 86 260 76 c 128,-1,14
 234 66 234 66 208 66 c 0,15,16
 162 66 162 66 144 91 c 128,-1,17
 126 116 126 116 126 156 c 0,18,19
 126 172 126 172 128.5 189.5 c 128,-1,20
 131 207 131 207 135 226 c 2,21,-1
 198 522 l 1,22,-1
 111 522 l 1,23,-1
 44 209 l 2,24,25
 39 186 39 186 36 164 c 128,-1,26
 33 142 33 142 33 122 c 0,27,28
 33 93 33 93 39.5 68.5 c 128,-1,29
 46 44 46 44 61 26.5 c 128,-1,30
 76 9 76 9 100.5 -0.5 c 128,-1,31
 125 -10 125 -10 161 -10 c 0,0,1
EndSplineSet
Substitution2: "'ss08' Style Set 8 lookup 39 subtable" u.ss08
Substitution2: "'aalt' Access All Alternates lookup 0 subtable" u.ss08
EndChar

StartChar: v
Encoding: 118 118 89
Width: 508
GlyphClass: 1
Flags: W
LayerCount: 2
Fore
SplineSet
139 0 m 1,0,-1
 245 0 l 1,1,-1
 528 522 l 1,2,-1
 433 522 l 1,3,-1
 206 77 l 1,4,-1
 147 522 l 1,5,-1
 56 522 l 1,6,-1
 139 0 l 1,0,-1
EndSplineSet
EndChar

StartChar: w
Encoding: 119 119 90
Width: 805
GlyphClass: 1
Flags: W
LayerCount: 2
Fore
SplineSet
62 522 m 1,0,-1
 125 0 l 1,1,-1
 218 0 l 1,2,-1
 418 387 l 1,3,-1
 453 0 l 1,4,-1
 547 0 l 1,5,-1
 831 522 l 1,6,-1
 740 522 l 1,7,-1
 520 108 l 1,8,-1
 489 522 l 1,9,-1
 405 522 l 1,10,-1
 198 108 l 1,11,-1
 154 522 l 1,12,-1
 62 522 l 1,0,-1
EndSplineSet
Substitution2: "'ss09' Style Set 9 lookup 40 subtable" w.ss09
Substitution2: "'aalt' Access All Alternates lookup 0 subtable" w.ss09
EndChar

StartChar: x
Encoding: 120 120 91
Width: 492
GlyphClass: 1
Flags: W
LayerCount: 2
Fore
SplineSet
-52 0 m 1,0,-1
 41 0 l 1,1,-1
 214 191 l 1,2,-1
 225 206 l 1,3,-1
 231 191 l 1,4,-1
 323 0 l 1,5,-1
 416 0 l 1,6,-1
 286 260 l 1,7,-1
 526 522 l 1,8,-1
 433 522 l 1,9,-1
 260 330 l 1,10,-1
 248 314 l 1,11,-1
 244 330 l 1,12,-1
 152 522 l 1,13,-1
 60 522 l 1,14,-1
 189 260 l 1,15,-1
 -52 0 l 1,0,-1
EndSplineSet
EndChar

StartChar: y
Encoding: 121 121 92
Width: 517
GlyphClass: 1
Flags: W
LayerCount: 2
Fore
SplineSet
154 0 m 1,0,1
 142 -19 142 -19 127 -44 c 128,-1,2
 112 -69 112 -69 95.5 -97.5 c 128,-1,3
 79 -126 79 -126 61.5 -155.5 c 128,-1,4
 44 -185 44 -185 27 -213 c 1,5,-1
 127 -213 l 1,6,-1
 548 522 l 1,7,-1
 464 522 l 1,8,-1
 219 79 l 1,9,-1
 148 522 l 1,10,-1
 56 522 l 1,11,-1
 154 0 l 1,0,1
EndSplineSet
Substitution2: "'ss10' Style Set 10 lookup 41 subtable" y.ss10
Substitution2: "'aalt' Access All Alternates lookup 0 subtable" y.ss10
EndChar

StartChar: z
Encoding: 122 122 93
Width: 470
GlyphClass: 1
Flags: W
LayerCount: 2
Fore
SplineSet
-35 0 m 1,0,-1
 373 0 l 1,1,-1
 387 64 l 1,2,-1
 79 64 l 1,3,-1
 471 465 l 1,4,-1
 483 522 l 1,5,-1
 85 522 l 1,6,-1
 71 458 l 1,7,-1
 371 458 l 1,8,-1
 -23 57 l 1,9,-1
 -35 0 l 1,0,-1
EndSplineSet
EndChar

StartChar: braceleft
Encoding: 123 123 94
Width: 265
GlyphClass: 1
Flags: W
LayerCount: 2
Fore
SplineSet
297 668 m 1,0,-1
 313 740 l 1,1,-1
 202 740 l 2,2,3
 197 740 197 740 187.5 734.5 c 128,-1,4
 178 729 178 729 174 710 c 2,5,-1
 119 450 l 2,6,7
 118 443 118 443 113 433 c 128,-1,8
 108 423 108 423 101 414 c 128,-1,9
 94 405 94 405 85 399 c 128,-1,10
 76 393 76 393 66 393 c 1,11,-1
 52 329 l 1,12,13
 66 327 66 327 73.5 314.5 c 128,-1,14
 81 302 81 302 81 285 c 0,15,16
 81 281 81 281 81 277.5 c 128,-1,17
 81 274 81 274 80 270 c 2,18,-1
 23 -1 l 2,19,20
 22 -4 22 -4 22 -7 c 128,-1,21
 22 -10 22 -10 22 -12 c 0,22,23
 22 -23 22 -23 27 -27 c 128,-1,24
 32 -31 32 -31 38 -31 c 2,25,-1
 149 -31 l 1,26,-1
 164 41 l 1,27,-1
 112 41 l 1,28,-1
 166 296 l 2,29,30
 167 300 167 300 167 303.5 c 128,-1,31
 167 307 167 307 167 311 c 0,32,33
 167 324 167 324 163.5 337 c 128,-1,34
 160 350 160 350 151 360 c 1,35,36
 169 374 169 374 179.5 392 c 128,-1,37
 190 410 190 410 193 424 c 2,38,-1
 245 668 l 1,39,-1
 297 668 l 1,0,-1
EndSplineSet
EndChar

StartChar: bar
Encoding: 124 124 95
Width: 302
GlyphClass: 1
Flags: W
LayerCount: 2
Fore
SplineSet
194 -130 m 1,0,-1
 194 775 l 1,1,-1
 118 775 l 1,2,-1
 118 -130 l 1,3,-1
 194 -130 l 1,0,-1
EndSplineSet
EndChar

StartChar: braceright
Encoding: 125 125 96
Width: 264
GlyphClass: 1
Flags: W
LayerCount: 2
Fore
SplineSet
176 668 m 1,0,-1
 124 424 l 2,1,2
 123 420 123 420 122.5 416.5 c 128,-1,3
 122 413 122 413 122 408 c 0,4,5
 122 396 122 396 126 383.5 c 128,-1,6
 130 371 130 371 138 360 c 1,7,8
 121 346 121 346 110.5 328 c 128,-1,9
 100 310 100 310 97 296 c 2,10,-1
 43 41 l 1,11,-1
 -10 41 l 1,12,-1
 -25 -31 l 1,13,-1
 85 -31 l 2,14,15
 92 -31 92 -31 101 -24.5 c 128,-1,16
 110 -18 110 -18 114 -1 c 2,17,-1
 171 270 l 2,18,19
 176 292 176 292 190.5 309 c 128,-1,20
 205 326 205 326 224 329 c 1,21,-1
 238 393 l 1,22,23
 221 393 221 393 214.5 408 c 128,-1,24
 208 423 208 423 208 438 c 0,25,26
 208 441 208 441 208 444 c 128,-1,27
 208 447 208 447 209 450 c 2,28,-1
 265 710 l 2,29,30
 266 712 266 712 266 714.5 c 128,-1,31
 266 717 266 717 266 719 c 0,32,33
 266 732 266 732 259.5 736 c 128,-1,34
 253 740 253 740 249 740 c 2,35,-1
 139 740 l 1,36,-1
 124 668 l 1,37,-1
 176 668 l 1,0,-1
EndSplineSet
EndChar

StartChar: asciitilde
Encoding: 126 126 97
Width: 513
GlyphClass: 1
Flags: W
LayerCount: 2
Fore
SplineSet
49 237 m 1,0,-1
 101 237 l 1,1,2
 101 238 101 238 105.5 246.5 c 128,-1,3
 110 255 110 255 119.5 265.5 c 128,-1,4
 129 276 129 276 142.5 284.5 c 128,-1,5
 156 293 156 293 174 293 c 256,6,7
 192 293 192 293 208 284.5 c 128,-1,8
 224 276 224 276 240.5 265.5 c 128,-1,9
 257 255 257 255 276 246 c 128,-1,10
 295 237 295 237 319 237 c 0,11,12
 353 237 353 237 379 252.5 c 128,-1,13
 405 268 405 268 422.5 287.5 c 128,-1,14
 440 307 440 307 449.5 324 c 128,-1,15
 459 341 459 341 460 344 c 1,16,-1
 409 344 l 1,17,18
 409 342 409 342 404 333.5 c 128,-1,19
 399 325 399 325 389 316 c 128,-1,20
 379 307 379 307 365 299.5 c 128,-1,21
 351 292 351 292 332 292 c 0,22,23
 312 292 312 292 295.5 301 c 128,-1,24
 279 310 279 310 262.5 320.5 c 128,-1,25
 246 331 246 331 227.5 340 c 128,-1,26
 209 349 209 349 186 349 c 0,27,28
 155 349 155 349 130 334 c 128,-1,29
 105 319 105 319 87.5 299.5 c 128,-1,30
 70 280 70 280 60.5 261.5 c 128,-1,31
 51 243 51 243 49 237 c 1,0,-1
EndSplineSet
EndChar

StartChar: exclamdown
Encoding: 161 161 99
Width: 258
GlyphClass: 1
Flags: W
LayerCount: 2
Fore
SplineSet
253 467 m 256,0,1
 256 480 256 480 253.5 491 c 128,-1,2
 251 502 251 502 244 510.5 c 128,-1,3
 237 519 237 519 227 524 c 128,-1,4
 217 529 217 529 204 529 c 256,5,6
 191 529 191 529 179 524 c 128,-1,7
 167 519 167 519 156.5 510.5 c 128,-1,8
 146 502 146 502 139 491 c 128,-1,9
 132 480 132 480 129 467 c 256,10,11
 126 454 126 454 128.5 443 c 128,-1,12
 131 432 131 432 138 424 c 128,-1,13
 145 416 145 416 155 411 c 128,-1,14
 165 406 165 406 178 406 c 256,15,16
 191 406 191 406 203 411 c 128,-1,17
 215 416 215 416 225.5 424 c 128,-1,18
 236 432 236 432 243 443 c 128,-1,19
 250 454 250 454 253 467 c 256,0,1
119 279 m 1,20,-1
 53 19 l 1,21,-1
 7 -198 l 1,22,-1
 95 -198 l 1,23,-1
 141 19 l 1,24,-1
 187 279 l 1,25,-1
 119 279 l 1,20,-1
EndSplineSet
EndChar

StartChar: cent
Encoding: 162 162 100
Width: 548
GlyphClass: 1
Flags: W
LayerCount: 2
Fore
SplineSet
220 -120 m 1,0,-1
 243 -10 l 1,1,2
 268 -10 268 -10 300 -2 c 128,-1,3
 332 6 332 6 364 22.5 c 128,-1,4
 396 39 396 39 425 63.5 c 128,-1,5
 454 88 454 88 473 121 c 1,6,-1
 392 147 l 1,7,8
 384 130 384 130 368.5 116 c 128,-1,9
 353 102 353 102 334.5 92 c 128,-1,10
 316 82 316 82 296.5 76 c 128,-1,11
 277 70 277 70 260 68 c 1,12,-1
 341 452 l 1,13,14
 376 450 376 450 401.5 431.5 c 128,-1,15
 427 413 427 413 438 377 c 1,16,-1
 529 404 l 1,17,18
 513 462 513 462 469.5 495 c 128,-1,19
 426 528 426 528 358 530 c 1,20,-1
 382 645 l 1,21,-1
 339 645 l 1,22,-1
 314 530 l 1,23,24
 251 523 251 523 198.5 493 c 128,-1,25
 146 463 146 463 108 419 c 128,-1,26
 70 375 70 375 49 321 c 128,-1,27
 28 267 28 267 28 211 c 0,28,29
 28 171 28 171 39.5 133 c 128,-1,30
 51 95 51 95 73 64.5 c 128,-1,31
 95 34 95 34 127 14 c 128,-1,32
 159 -6 159 -6 200 -9 c 1,33,-1
 176 -120 l 1,34,-1
 220 -120 l 1,0,-1
119 221 m 0,35,36
 119 258 119 258 132.5 296.5 c 128,-1,37
 146 335 146 335 170 367.5 c 128,-1,38
 194 400 194 400 226.5 422 c 128,-1,39
 259 444 259 444 297 449 c 1,40,-1
 217 72 l 1,41,42
 194 77 194 77 176 90.5 c 128,-1,43
 158 104 158 104 145 124 c 128,-1,44
 132 144 132 144 125.5 169 c 128,-1,45
 119 194 119 194 119 221 c 0,35,36
EndSplineSet
EndChar

StartChar: sterling
Encoding: 163 163 101
Width: 491
GlyphClass: 1
Flags: W
LayerCount: 2
Fore
SplineSet
55 307 m 1,0,-1
 389 307 l 1,1,-1
 404 375 l 1,2,-1
 69 375 l 1,3,-1
 55 307 l 1,0,-1
9 -8 m 1,4,5
 37 0 37 0 68 5 c 128,-1,6
 99 10 99 10 122 10 c 256,7,8
 145 10 145 10 164.5 6 c 128,-1,9
 184 2 184 2 203 -2.5 c 128,-1,10
 222 -7 222 -7 241.5 -11 c 128,-1,11
 261 -15 261 -15 282 -15 c 0,12,13
 308 -15 308 -15 337.5 -8 c 128,-1,14
 367 -1 367 -1 393 12 c 1,15,-1
 386 79 l 1,16,17
 360 70 360 70 340 65.5 c 128,-1,18
 320 61 320 61 302 61 c 0,19,20
 285 61 285 61 270 64 c 128,-1,21
 255 67 255 67 240 70 c 128,-1,22
 225 73 225 73 208.5 76 c 128,-1,23
 192 79 192 79 173 79 c 0,24,25
 156 79 156 79 138.5 76.5 c 128,-1,26
 121 74 121 74 101 69 c 1,27,28
 145 110 145 110 172.5 141.5 c 128,-1,29
 200 173 200 173 215 200 c 128,-1,30
 230 227 230 227 235 252.5 c 128,-1,31
 240 278 240 278 240 307 c 0,32,33
 240 337 240 337 234 364.5 c 128,-1,34
 228 392 228 392 221.5 417 c 128,-1,35
 215 442 215 442 209 465.5 c 128,-1,36
 203 489 203 489 203 512 c 0,37,38
 203 539 203 539 213.5 562.5 c 128,-1,39
 224 586 224 586 241 604 c 128,-1,40
 258 622 258 622 281 632 c 128,-1,41
 304 642 304 642 328 642 c 0,42,43
 366 642 366 642 398 618.5 c 128,-1,44
 430 595 430 595 444 556 c 1,45,-1
 504 610 l 1,46,47
 483 659 483 659 441 687 c 128,-1,48
 399 715 399 715 345 715 c 0,49,50
 303 715 303 715 263 699 c 128,-1,51
 223 683 223 683 192 655 c 128,-1,52
 161 627 161 627 142 590.5 c 128,-1,53
 123 554 123 554 123 512 c 0,54,55
 123 486 123 486 129 460 c 128,-1,56
 135 434 135 434 142 408 c 128,-1,57
 149 382 149 382 155 354.5 c 128,-1,58
 161 327 161 327 161 298 c 0,59,60
 161 267 161 267 153 240 c 128,-1,61
 145 213 145 213 126.5 184.5 c 128,-1,62
 108 156 108 156 77.5 125 c 128,-1,63
 47 94 47 94 1 56 c 1,64,-1
 9 -8 l 1,4,5
EndSplineSet
EndChar

StartChar: currency
Encoding: 164 164 102
Width: 567
GlyphClass: 1
Flags: W
LayerCount: 2
Fore
SplineSet
110 558 m 1,0,-1
 69 517 l 1,1,-1
 140 445 l 1,2,3
 124 422 124 422 116 394.5 c 128,-1,4
 108 367 108 367 108 337 c 256,5,6
 108 307 108 307 116.5 279.5 c 128,-1,7
 125 252 125 252 141 229 c 1,8,-1
 69 157 l 1,9,-1
 105 121 l 1,10,-1
 178 190 l 1,11,12
 201 173 201 173 229 163.5 c 128,-1,13
 257 154 257 154 290 154 c 256,14,15
 323 154 323 154 351 163.5 c 128,-1,16
 379 173 379 173 401 190 c 1,17,-1
 475 121 l 1,18,-1
 511 157 l 1,19,-1
 438 229 l 1,20,21
 455 252 455 252 463.5 279.5 c 128,-1,22
 472 307 472 307 472 337 c 256,23,24
 472 367 472 367 463.5 394.5 c 128,-1,25
 455 422 455 422 439 445 c 1,26,-1
 511 517 l 1,27,-1
 470 558 l 1,28,-1
 399 486 l 1,29,30
 376 503 376 503 349 512 c 128,-1,31
 322 521 322 521 290 521 c 256,32,33
 258 521 258 521 230.5 512 c 128,-1,34
 203 503 203 503 181 486 c 1,35,-1
 110 558 l 1,0,-1
180 336 m 0,36,37
 180 362 180 362 188.5 384.5 c 128,-1,38
 197 407 197 407 212 423.5 c 128,-1,39
 227 440 227 440 247 449.5 c 128,-1,40
 267 459 267 459 290 459 c 256,41,42
 313 459 313 459 333 450 c 128,-1,43
 353 441 353 441 368 424.5 c 128,-1,44
 383 408 383 408 391.5 386 c 128,-1,45
 400 364 400 364 400 338 c 256,46,47
 400 312 400 312 391.5 289.5 c 128,-1,48
 383 267 383 267 368 250.5 c 128,-1,49
 353 234 353 234 333 224.5 c 128,-1,50
 313 215 313 215 290 215 c 256,51,52
 267 215 267 215 247 224.5 c 128,-1,53
 227 234 227 234 212 250 c 128,-1,54
 197 266 197 266 188.5 288.5 c 128,-1,55
 180 311 180 311 180 336 c 0,36,37
EndSplineSet
EndChar

StartChar: yen
Encoding: 165 165 103
Width: 660
GlyphClass: 1
Flags: W
LayerCount: 2
Fore
SplineSet
712 710 m 1,0,-1
 613 710 l 1,1,-1
 332 340 l 1,2,-1
 211 710 l 1,3,-1
 113 710 l 1,4,-1
 233 377 l 1,5,-1
 155 377 l 1,6,-1
 142 317 l 1,7,-1
 252 317 l 1,8,-1
 271 261 l 1,9,-1
 264 231 l 1,10,-1
 124 231 l 1,11,-1
 111 171 l 1,12,-1
 251 171 l 1,13,-1
 215 0 l 1,14,-1
 305 0 l 1,15,-1
 341 171 l 1,16,-1
 484 171 l 1,17,-1
 496 231 l 1,18,-1
 354 231 l 1,19,-1
 360 259 l 1,20,-1
 405 317 l 1,21,-1
 514 317 l 1,22,-1
 527 377 l 1,23,-1
 450 377 l 1,24,-1
 712 710 l 1,0,-1
EndSplineSet
EndChar

StartChar: brokenbar
Encoding: 166 166 104
Width: 296
GlyphClass: 1
Flags: W
LayerCount: 2
Fore
SplineSet
115 273 m 1,0,-1
 115 -130 l 1,1,-1
 191 -130 l 1,2,-1
 191 273 l 1,3,-1
 115 273 l 1,0,-1
115 775 m 1,4,-1
 115 372 l 1,5,-1
 191 372 l 1,6,-1
 191 775 l 1,7,-1
 115 775 l 1,4,-1
EndSplineSet
EndChar

StartChar: section
Encoding: 167 167 105
Width: 498
GlyphClass: 1
Flags: W
LayerCount: 2
Fore
SplineSet
392 201 m 1,0,1
 401 209 401 209 409.5 221.5 c 128,-1,2
 418 234 418 234 425 249.5 c 128,-1,3
 432 265 432 265 436.5 282.5 c 128,-1,4
 441 300 441 300 441 319 c 0,5,6
 441 355 441 355 426.5 379.5 c 128,-1,7
 412 404 412 404 388.5 419.5 c 128,-1,8
 365 435 365 435 335.5 442 c 128,-1,9
 306 449 306 449 275 449 c 0,10,11
 235 450 235 450 209 465 c 128,-1,12
 183 480 183 480 183 519 c 0,13,14
 183 546 183 546 194.5 567.5 c 128,-1,15
 206 589 206 589 225 604.5 c 128,-1,16
 244 620 244 620 267 628 c 128,-1,17
 290 636 290 636 314 636 c 0,18,19
 331 636 331 636 347 633 c 128,-1,20
 363 630 363 630 376.5 623 c 128,-1,21
 390 616 390 616 400 605 c 128,-1,22
 410 594 410 594 414 579 c 1,23,-1
 489 611 l 1,24,25
 481 629 481 629 469 647.5 c 128,-1,26
 457 666 457 666 437.5 681 c 128,-1,27
 418 696 418 696 391 705.5 c 128,-1,28
 364 715 364 715 326 715 c 0,29,30
 284 715 284 715 242.5 699 c 128,-1,31
 201 683 201 683 168 655.5 c 128,-1,32
 135 628 135 628 114 589.5 c 128,-1,33
 93 551 93 551 93 506 c 0,34,35
 93 479 93 479 99.5 456.5 c 128,-1,36
 106 434 106 434 117 423 c 1,37,38
 110 415 110 415 102 403.5 c 128,-1,39
 94 392 94 392 87.5 378 c 128,-1,40
 81 364 81 364 77 347 c 128,-1,41
 73 330 73 330 73 310 c 0,42,43
 73 279 73 279 84 254.5 c 128,-1,44
 95 230 95 230 115.5 213 c 128,-1,45
 136 196 136 196 165.5 186 c 128,-1,46
 195 176 195 176 232 174 c 0,47,48
 248 173 248 173 264 170.5 c 128,-1,49
 280 168 280 168 292.5 161 c 128,-1,50
 305 154 305 154 313 142.5 c 128,-1,51
 321 131 321 131 321 111 c 0,52,53
 321 84 321 84 308.5 62.5 c 128,-1,54
 296 41 296 41 276.5 26.5 c 128,-1,55
 257 12 257 12 233 4 c 128,-1,56
 209 -4 209 -4 186 -4 c 0,57,58
 149 -4 149 -4 120 11.5 c 128,-1,59
 91 27 91 27 65 61 c 1,60,-1
 -3 7 l 1,61,62
 7 -8 7 -8 22.5 -25 c 128,-1,63
 38 -42 38 -42 59.5 -56 c 128,-1,64
 81 -70 81 -70 109 -79 c 128,-1,65
 137 -88 137 -88 172 -88 c 0,66,67
 208 -88 208 -88 250.5 -75 c 128,-1,68
 293 -62 293 -62 329.5 -35 c 128,-1,69
 366 -8 366 -8 390.5 33.5 c 128,-1,70
 415 75 415 75 415 132 c 0,71,72
 415 155 415 155 409 173 c 128,-1,73
 403 191 403 191 392 201 c 1,0,1
158 310 m 0,74,75
 158 335 158 335 169 356.5 c 128,-1,76
 180 378 180 378 194 390 c 1,77,78
 206 384 206 384 224.5 380.5 c 128,-1,79
 243 377 243 377 263 377 c 0,80,81
 279 377 279 377 295 373.5 c 128,-1,82
 311 370 311 370 324.5 361.5 c 128,-1,83
 338 353 338 353 346.5 339 c 128,-1,84
 355 325 355 325 355 305 c 0,85,86
 355 282 355 282 343.5 259.5 c 128,-1,87
 332 237 332 237 315 225 c 1,88,89
 298 233 298 233 271.5 235 c 128,-1,90
 245 237 245 237 219.5 242.5 c 128,-1,91
 194 248 194 248 176 262.5 c 128,-1,92
 158 277 158 277 158 310 c 0,74,75
EndSplineSet
EndChar

StartChar: copyright
Encoding: 169 169 107
Width: 849
GlyphClass: 1
Flags: W
LayerCount: 2
Fore
SplineSet
434 -7 m 0,0,1
 514 -7 514 -7 582.5 20.5 c 128,-1,2
 651 48 651 48 701 96.5 c 128,-1,3
 751 145 751 145 779 211 c 128,-1,4
 807 277 807 277 807 355 c 0,5,6
 807 432 807 432 779 498 c 128,-1,7
 751 564 751 564 701 612 c 128,-1,8
 651 660 651 660 582.5 687.5 c 128,-1,9
 514 715 514 715 434 715 c 0,10,11
 355 715 355 715 287 687.5 c 128,-1,12
 219 660 219 660 170 612 c 128,-1,13
 121 564 121 564 93 498 c 128,-1,14
 65 432 65 432 65 355 c 0,15,16
 65 277 65 277 93 211 c 128,-1,17
 121 145 121 145 170 96.5 c 128,-1,18
 219 48 219 48 287 20.5 c 128,-1,19
 355 -7 355 -7 434 -7 c 0,0,1
434 31 m 0,20,21
 363 31 363 31 303 55.5 c 128,-1,22
 243 80 243 80 199 123.5 c 128,-1,23
 155 167 155 167 130 226 c 128,-1,24
 105 285 105 285 105 354 c 256,25,26
 105 423 105 423 130 482 c 128,-1,27
 155 541 155 541 199 584.5 c 128,-1,28
 243 628 243 628 303.5 652.5 c 128,-1,29
 364 677 364 677 434 677 c 0,30,31
 506 677 506 677 566.5 652.5 c 128,-1,32
 627 628 627 628 671.5 584.5 c 128,-1,33
 716 541 716 541 741 481.5 c 128,-1,34
 766 422 766 422 766 353 c 0,35,36
 766 281 766 281 740.5 222 c 128,-1,37
 715 163 715 163 670 120.5 c 128,-1,38
 625 78 625 78 564.5 54.5 c 128,-1,39
 504 31 504 31 434 31 c 0,20,21
442 121 m 0,40,41
 481 121 481 121 514.5 132 c 128,-1,42
 548 143 548 143 574 160.5 c 128,-1,43
 600 178 600 178 618 199.5 c 128,-1,44
 636 221 636 221 644 241 c 1,45,-1
 559 267 l 1,46,47
 551 251 551 251 538 238 c 128,-1,48
 525 225 525 225 508.5 216 c 128,-1,49
 492 207 492 207 474 202 c 128,-1,50
 456 197 456 197 439 197 c 0,51,52
 414 197 414 197 388 207.5 c 128,-1,53
 362 218 362 218 341 238 c 128,-1,54
 320 258 320 258 306.5 287.5 c 128,-1,55
 293 317 293 317 293 355 c 0,56,57
 293 385 293 385 302 413.5 c 128,-1,58
 311 442 311 442 329 464.5 c 128,-1,59
 347 487 347 487 374 500.5 c 128,-1,60
 401 514 401 514 437 514 c 0,61,62
 451 514 451 514 467.5 511 c 128,-1,63
 484 508 484 508 499.5 500.5 c 128,-1,64
 515 493 515 493 529.5 480 c 128,-1,65
 544 467 544 467 553 447 c 1,66,-1
 638 474 l 1,67,68
 614 530 614 530 560.5 560 c 128,-1,69
 507 590 507 590 437 590 c 0,70,71
 378 590 378 590 334 569.5 c 128,-1,72
 290 549 290 549 261 515.5 c 128,-1,73
 232 482 232 482 217.5 440 c 128,-1,74
 203 398 203 398 203 355 c 0,75,76
 203 303 203 303 222 260 c 128,-1,77
 241 217 241 217 273.5 186 c 128,-1,78
 306 155 306 155 349.5 138 c 128,-1,79
 393 121 393 121 442 121 c 0,40,41
EndSplineSet
EndChar

StartChar: ordfeminine
Encoding: 170 170 108
Width: 418
GlyphClass: 1
Flags: W
LayerCount: 2
Fore
SplineSet
165 344 m 0,0,1
 203 344 203 344 240.5 360.5 c 128,-1,2
 278 377 278 377 308 409 c 1,3,-1
 297 351 l 1,4,-1
 357 351 l 1,5,6
 357 352 357 352 359.5 365 c 128,-1,7
 362 378 362 378 365 393.5 c 128,-1,8
 368 409 368 409 370.5 422 c 128,-1,9
 373 435 373 435 373 436 c 2,10,-1
 401 567 l 2,11,12
 403 578 403 578 404.5 588 c 128,-1,13
 406 598 406 598 406 608 c 0,14,15
 406 659 406 659 374 685 c 128,-1,16
 342 711 342 711 284 711 c 0,17,18
 249 711 249 711 213 699.5 c 128,-1,19
 177 688 177 688 139 665 c 1,20,-1
 152 620 l 1,21,22
 185 640 185 640 213.5 650.5 c 128,-1,23
 242 661 242 661 268 661 c 0,24,25
 301 661 301 661 318.5 644.5 c 128,-1,26
 336 628 336 628 336 599 c 0,27,28
 336 594 336 594 335.5 588 c 128,-1,29
 335 582 335 582 333 575 c 2,30,-1
 328 550 l 1,31,32
 311 558 311 558 288.5 562.5 c 128,-1,33
 266 567 266 567 241 567 c 0,34,35
 206 567 206 567 175.5 557 c 128,-1,36
 145 547 145 547 122 529.5 c 128,-1,37
 99 512 99 512 86 488 c 128,-1,38
 73 464 73 464 73 435 c 0,39,40
 73 396 73 396 98 370 c 128,-1,41
 123 344 123 344 165 344 c 0,0,1
196 397 m 0,42,43
 171 397 171 397 156 412 c 128,-1,44
 141 427 141 427 141 450 c 0,45,46
 141 483 141 483 170.5 503.5 c 128,-1,47
 200 524 200 524 244 524 c 0,48,49
 264 524 264 524 283.5 520.5 c 128,-1,50
 303 517 303 517 318 509 c 1,51,-1
 308 461 l 2,52,53
 305 449 305 449 294 437.5 c 128,-1,54
 283 426 283 426 267 417 c 128,-1,55
 251 408 251 408 232 402.5 c 128,-1,56
 213 397 213 397 196 397 c 0,42,43
EndSplineSet
EndChar

StartChar: guillemotleft
Encoding: 171 171 109
Width: 576
GlyphClass: 1
Flags: W
LayerCount: 2
Fore
SplineSet
26 234 m 1,0,-1
 230 60 l 1,1,-1
 246 134 l 1,2,-1
 102 259 l 1,3,-1
 300 387 l 1,4,-1
 316 461 l 1,5,-1
 36 280 l 1,6,-1
 26 234 l 1,0,-1
261 234 m 1,7,-1
 465 60 l 1,8,-1
 481 134 l 1,9,-1
 337 259 l 1,10,-1
 535 387 l 1,11,-1
 550 461 l 1,12,-1
 270 280 l 1,13,-1
 261 234 l 1,7,-1
EndSplineSet
EndChar

StartChar: logicalnot
Encoding: 172 172 110
Width: 571
GlyphClass: 1
Flags: W
LayerCount: 2
Fore
SplineSet
82 375 m 1,0,-1
 65 295 l 1,1,-1
 424 295 l 1,2,-1
 387 120 l 1,3,-1
 462 120 l 1,4,-1
 517 375 l 1,5,-1
 82 375 l 1,0,-1
EndSplineSet
EndChar

StartChar: uni00AD
Encoding: 173 173 111
Width: 560
GlyphClass: 1
Flags: W
LayerCount: 2
Fore
SplineSet
483 233 m 1,0,-1
 500 313 l 1,1,-1
 65 313 l 1,2,-1
 48 233 l 1,3,-1
 483 233 l 1,0,-1
EndSplineSet
EndChar

StartChar: registered
Encoding: 174 174 112
Width: 849
GlyphClass: 1
Flags: W
LayerCount: 2
Fore
SplineSet
435 -7 m 256,0,1
 515 -7 515 -7 583 20.5 c 128,-1,2
 651 48 651 48 701 96.5 c 128,-1,3
 751 145 751 145 779 211 c 128,-1,4
 807 277 807 277 807 355 c 0,5,6
 807 432 807 432 779 498 c 128,-1,7
 751 564 751 564 701 612 c 128,-1,8
 651 660 651 660 583 687.5 c 128,-1,9
 515 715 515 715 435 715 c 256,10,11
 355 715 355 715 287.5 687.5 c 128,-1,12
 220 660 220 660 170.5 612 c 128,-1,13
 121 564 121 564 93 498 c 128,-1,14
 65 432 65 432 65 355 c 0,15,16
 65 277 65 277 93 211 c 128,-1,17
 121 145 121 145 170.5 96.5 c 128,-1,18
 220 48 220 48 287.5 20.5 c 128,-1,19
 355 -7 355 -7 435 -7 c 256,0,1
435 30 m 0,20,21
 364 30 364 30 303.5 55 c 128,-1,22
 243 80 243 80 199.5 123.5 c 128,-1,23
 156 167 156 167 131.5 226.5 c 128,-1,24
 107 286 107 286 107 355 c 0,25,26
 107 423 107 423 131.5 482 c 128,-1,27
 156 541 156 541 199.5 584.5 c 128,-1,28
 243 628 243 628 303.5 652.5 c 128,-1,29
 364 677 364 677 435 677 c 256,30,31
 506 677 506 677 566.5 652.5 c 128,-1,32
 627 628 627 628 671 584.5 c 128,-1,33
 715 541 715 541 740 482 c 128,-1,34
 765 423 765 423 765 354 c 0,35,36
 765 282 765 282 739.5 222.5 c 128,-1,37
 714 163 714 163 669.5 120 c 128,-1,38
 625 77 625 77 565 53.5 c 128,-1,39
 505 30 505 30 435 30 c 0,20,21
280 130 m 1,40,-1
 345 130 l 1,41,-1
 345 292 l 1,42,-1
 446 292 l 1,43,-1
 548 130 l 1,44,-1
 621 130 l 1,45,-1
 512 302 l 1,46,47
 533 307 533 307 551 320 c 128,-1,48
 569 333 569 333 581.5 350.5 c 128,-1,49
 594 368 594 368 601 390 c 128,-1,50
 608 412 608 412 608 435 c 0,51,52
 608 461 608 461 598 487 c 128,-1,53
 588 513 588 513 570 533.5 c 128,-1,54
 552 554 552 554 527 566.5 c 128,-1,55
 502 579 502 579 472 579 c 2,56,-1
 280 579 l 1,57,-1
 280 130 l 1,40,-1
345 349 m 1,58,-1
 345 520 l 1,59,-1
 466 520 l 2,60,61
 483 520 483 520 497 514 c 128,-1,62
 511 508 511 508 521.5 496.5 c 128,-1,63
 532 485 532 485 538 469.5 c 128,-1,64
 544 454 544 454 544 435 c 256,65,66
 544 416 544 416 539 400.5 c 128,-1,67
 534 385 534 385 524.5 373.5 c 128,-1,68
 515 362 515 362 501 355.5 c 128,-1,69
 487 349 487 349 469 349 c 2,70,-1
 345 349 l 1,58,-1
EndSplineSet
EndChar

StartChar: degree
Encoding: 176 176 114
Width: 265
GlyphClass: 1
Flags: W
LayerCount: 2
Fore
SplineSet
182 546 m 0,0,1
 203 546 203 546 222.5 554.5 c 128,-1,2
 242 563 242 563 257 577.5 c 128,-1,3
 272 592 272 592 280.5 611.5 c 128,-1,4
 289 631 289 631 289 653 c 0,5,6
 289 683 289 683 270.5 703.5 c 128,-1,7
 252 724 252 724 220 724 c 0,8,9
 198 724 198 724 178.5 714.5 c 128,-1,10
 159 705 159 705 144.5 690 c 128,-1,11
 130 675 130 675 121.5 655.5 c 128,-1,12
 113 636 113 636 113 616 c 0,13,14
 113 585 113 585 132 565.5 c 128,-1,15
 151 546 151 546 182 546 c 0,0,1
192 593 m 0,16,17
 178 593 178 593 169 602 c 128,-1,18
 160 611 160 611 160 628 c 0,19,20
 160 648 160 648 176 662.5 c 128,-1,21
 192 677 192 677 210 677 c 0,22,23
 224 677 224 677 232.5 667.5 c 128,-1,24
 241 658 241 658 241 643 c 0,25,26
 241 623 241 623 225 608 c 128,-1,27
 209 593 209 593 192 593 c 0,16,17
EndSplineSet
EndChar

StartChar: plusminus
Encoding: 177 177 115
Width: 485
GlyphClass: 1
Flags: W
LayerCount: 2
Fore
SplineSet
396 51 m 1,0,-1
 396 123 l 1,1,-1
 64 123 l 1,2,-1
 64 51 l 1,3,-1
 396 51 l 1,0,-1
270 404 m 1,4,-1
 270 540 l 1,5,-1
 190 540 l 1,6,-1
 190 404 l 1,7,-1
 64 404 l 1,8,-1
 64 332 l 1,9,-1
 190 332 l 1,10,-1
 190 196 l 1,11,-1
 270 196 l 1,12,-1
 270 332 l 1,13,-1
 396 332 l 1,14,-1
 396 404 l 1,15,-1
 270 404 l 1,4,-1
EndSplineSet
EndChar

StartChar: twosuperior
Encoding: 178 178 116
Width: 383
GlyphClass: 1
Flags: W
LayerCount: 2
Fore
SplineSet
366 400 m 1,0,-1
 378 454 l 1,1,-1
 153 454 l 1,2,3
 156 467 156 467 163 480.5 c 128,-1,4
 170 494 170 494 183.5 507 c 128,-1,5
 197 520 197 520 218 532 c 128,-1,6
 239 544 239 544 270 554 c 0,7,8
 311 568 311 568 341.5 583 c 128,-1,9
 372 598 372 598 391.5 617 c 128,-1,10
 411 636 411 636 420.5 659.5 c 128,-1,11
 430 683 430 683 430 712 c 0,12,13
 430 756 430 756 400 783.5 c 128,-1,14
 370 811 370 811 308 811 c 0,15,16
 273 811 273 811 243 803 c 128,-1,17
 213 795 213 795 190.5 784 c 128,-1,18
 168 773 168 773 152.5 761.5 c 128,-1,19
 137 750 137 750 131 743 c 1,20,-1
 158 701 l 1,21,22
 167 710 167 710 181.5 719.5 c 128,-1,23
 196 729 196 729 213.5 737.5 c 128,-1,24
 231 746 231 746 252 751.5 c 128,-1,25
 273 757 273 757 296 757 c 0,26,27
 335 757 335 757 351 741 c 128,-1,28
 367 725 367 725 367 700 c 256,29,30
 367 675 367 675 353 658 c 128,-1,31
 339 641 339 641 317.5 629 c 128,-1,32
 296 617 296 617 269 607.5 c 128,-1,33
 242 598 242 598 216 588 c 0,34,35
 181 575 181 575 154.5 558.5 c 128,-1,36
 128 542 128 542 108.5 520 c 128,-1,37
 89 498 89 498 75.5 468.5 c 128,-1,38
 62 439 62 439 54 400 c 1,39,-1
 366 400 l 1,0,-1
EndSplineSet
EndChar

StartChar: threesuperior
Encoding: 179 179 117
Width: 379
GlyphClass: 1
Flags: W
LayerCount: 2
Fore
SplineSet
202 395 m 0,0,1
 237 395 237 395 270.5 403.5 c 128,-1,2
 304 412 304 412 330.5 428.5 c 128,-1,3
 357 445 357 445 373 469.5 c 128,-1,4
 389 494 389 494 389 525 c 0,5,6
 389 557 389 557 368.5 581 c 128,-1,7
 348 605 348 605 310 611 c 1,8,9
 362 622 362 622 390.5 648 c 128,-1,10
 419 674 419 674 419 715 c 0,11,12
 419 757 419 757 383.5 784 c 128,-1,13
 348 811 348 811 288 811 c 0,14,15
 265 811 265 811 242 807 c 128,-1,16
 219 803 219 803 198.5 795 c 128,-1,17
 178 787 178 787 160 775.5 c 128,-1,18
 142 764 142 764 130 749 c 1,19,-1
 157 706 l 1,20,21
 177 730 177 730 208 745 c 128,-1,22
 239 760 239 760 278 760 c 0,23,24
 310 760 310 760 334.5 745.5 c 128,-1,25
 359 731 359 731 359 705 c 0,26,27
 359 687 359 687 349 673.5 c 128,-1,28
 339 660 339 660 320 651.5 c 128,-1,29
 301 643 301 643 274.5 638.5 c 128,-1,30
 248 634 248 634 216 634 c 2,31,-1
 194 634 l 1,32,-1
 184 584 l 1,33,-1
 206 584 l 2,34,35
 266 584 266 584 299.5 568 c 128,-1,36
 333 552 333 552 333 523 c 0,37,38
 333 507 333 507 323 492 c 128,-1,39
 313 477 313 477 296.5 466.5 c 128,-1,40
 280 456 280 456 258 449.5 c 128,-1,41
 236 443 236 443 212 443 c 0,42,43
 186 443 186 443 166.5 449.5 c 128,-1,44
 147 456 147 456 134 466.5 c 128,-1,45
 121 477 121 477 114.5 489 c 128,-1,46
 108 501 108 501 108 511 c 1,47,-1
 70 481 l 1,48,49
 71 440 71 440 107 417.5 c 128,-1,50
 143 395 143 395 202 395 c 0,0,1
EndSplineSet
EndChar

StartChar: uni00B5
Encoding: 181 181 119
Width: 606
GlyphClass: 1
Flags: W
LayerCount: 2
Fore
SplineSet
-32 -212 m 1,0,-1
 56 -212 l 1,1,-1
 110 67 l 1,2,3
 114 35 114 35 135 12.5 c 128,-1,4
 156 -10 156 -10 199 -10 c 0,5,6
 227 -10 227 -10 256 0 c 128,-1,7
 285 10 285 10 312 27 c 128,-1,8
 339 44 339 44 362 66 c 128,-1,9
 385 88 385 88 401 112 c 1,10,-1
 397 0 l 1,11,-1
 456 0 l 1,12,-1
 564 522 l 1,13,-1
 476 522 l 1,14,-1
 406 195 l 1,15,16
 389 165 389 165 367 141 c 128,-1,17
 345 117 345 117 320.5 100.5 c 128,-1,18
 296 84 296 84 270 75 c 128,-1,19
 244 66 244 66 220 66 c 0,20,21
 180 66 180 66 160 88.5 c 128,-1,22
 140 111 140 111 140 157 c 0,23,24
 140 172 140 172 142 189 c 128,-1,25
 144 206 144 206 149 226 c 2,26,-1
 212 522 l 1,27,-1
 124 522 l 1,28,-1
 -32 -212 l 1,0,-1
EndSplineSet
EndChar

StartChar: paragraph
Encoding: 182 182 120
Width: 595
GlyphClass: 1
Flags: W
LayerCount: 2
Fore
SplineSet
64 412 m 0,0,1
 64 369 64 369 77 334.5 c 128,-1,2
 90 300 90 300 114.5 276 c 128,-1,3
 139 252 139 252 174.5 238.5 c 128,-1,4
 210 225 210 225 255 224 c 1,5,-1
 190 -80 l 1,6,-1
 266 -80 l 1,7,-1
 331 224 l 1,8,-1
 393 224 l 1,9,-1
 328 -80 l 1,10,-1
 404 -80 l 1,11,-1
 558 642 l 1,12,-1
 624 642 l 1,13,-1
 639 710 l 1,14,-1
 391 710 l 2,15,16
 316 710 316 710 255.5 688.5 c 128,-1,17
 195 667 195 667 152.5 628 c 128,-1,18
 110 589 110 589 87 534 c 128,-1,19
 64 479 64 479 64 412 c 0,0,1
141 428 m 0,20,21
 141 473 141 473 155 512 c 128,-1,22
 169 551 169 551 195 579.5 c 128,-1,23
 221 608 221 608 258.5 624.5 c 128,-1,24
 296 641 296 641 344 642 c 1,25,-1
 269 292 l 1,26,27
 242 294 242 294 218.5 303 c 128,-1,28
 195 312 195 312 177.5 329 c 128,-1,29
 160 346 160 346 150.5 370.5 c 128,-1,30
 141 395 141 395 141 428 c 0,20,21
407 292 m 1,31,-1
 345 292 l 1,32,-1
 420 642 l 1,33,-1
 482 642 l 1,34,-1
 407 292 l 1,31,-1
EndSplineSet
EndChar

StartChar: onesuperior
Encoding: 185 185 123
Width: 269
GlyphClass: 1
Flags: W
LayerCount: 2
Fore
SplineSet
212 455 m 1,0,-1
 288 811 l 1,1,-1
 232 811 l 1,2,3
 232 810 232 810 221.5 801 c 128,-1,4
 211 792 211 792 195.5 782 c 128,-1,5
 180 772 180 772 162.5 763.5 c 128,-1,6
 145 755 145 755 130 755 c 1,7,-1
 118 700 l 1,8,9
 130 700 130 700 144.5 705.5 c 128,-1,10
 159 711 159 711 173.5 718.5 c 128,-1,11
 188 726 188 726 200.5 734.5 c 128,-1,12
 213 743 213 743 219 749 c 1,13,-1
 157 455 l 1,14,-1
 81 455 l 1,15,-1
 69 400 l 1,16,-1
 270 400 l 1,17,-1
 282 455 l 1,18,-1
 212 455 l 1,0,-1
EndSplineSet
EndChar

StartChar: ordmasculine
Encoding: 186 186 124
Width: 431
GlyphClass: 1
Flags: W
LayerCount: 2
Fore
SplineSet
223 344 m 0,0,1
 268 344 268 344 308 362.5 c 128,-1,2
 348 381 348 381 377 411.5 c 128,-1,3
 406 442 406 442 423 481.5 c 128,-1,4
 440 521 440 521 440 563 c 0,5,6
 440 594 440 594 431 621 c 128,-1,7
 422 648 422 648 404 668 c 128,-1,8
 386 688 386 688 360 699.5 c 128,-1,9
 334 711 334 711 301 711 c 0,10,11
 256 711 256 711 216.5 693 c 128,-1,12
 177 675 177 675 147.5 644.5 c 128,-1,13
 118 614 118 614 101 574.5 c 128,-1,14
 84 535 84 535 84 492 c 0,15,16
 84 462 84 462 93 435 c 128,-1,17
 102 408 102 408 119.5 388 c 128,-1,18
 137 368 137 368 163 356 c 128,-1,19
 189 344 189 344 223 344 c 0,0,1
236 405 m 0,20,21
 218 405 218 405 203.5 412.5 c 128,-1,22
 189 420 189 420 178.5 432.5 c 128,-1,23
 168 445 168 445 162 462.5 c 128,-1,24
 156 480 156 480 156 501 c 0,25,26
 156 531 156 531 167.5 558 c 128,-1,27
 179 585 179 585 197.5 605.5 c 128,-1,28
 216 626 216 626 239.5 637.5 c 128,-1,29
 263 649 263 649 288 649 c 0,30,31
 306 649 306 649 321 641.5 c 128,-1,32
 336 634 336 634 346.5 621.5 c 128,-1,33
 357 609 357 609 362.5 591.5 c 128,-1,34
 368 574 368 574 368 553 c 0,35,36
 368 523 368 523 356.5 496 c 128,-1,37
 345 469 345 469 326.5 449 c 128,-1,38
 308 429 308 429 284.5 417 c 128,-1,39
 261 405 261 405 236 405 c 0,20,21
EndSplineSet
EndChar

StartChar: guillemotright
Encoding: 187 187 125
Width: 576
GlyphClass: 1
Flags: W
LayerCount: 2
Fore
SplineSet
531 280 m 1,0,-1
 328 461 l 1,1,-1
 312 387 l 1,2,-1
 455 259 l 1,3,-1
 258 134 l 1,4,-1
 243 60 l 1,5,-1
 521 234 l 1,6,-1
 531 280 l 1,0,-1
296 280 m 1,7,-1
 93 461 l 1,8,-1
 78 387 l 1,9,-1
 221 259 l 1,10,-1
 24 134 l 1,11,-1
 8 60 l 1,12,-1
 286 234 l 1,13,-1
 296 280 l 1,7,-1
EndSplineSet
EndChar

StartChar: onehalf
Encoding: 189 189 127
Width: 809
GlyphClass: 1
Flags: W
LayerCount: 2
Fore
SplineSet
195 375 m 1,0,-1
 271 731 l 1,1,-1
 215 731 l 1,2,3
 215 730 215 730 204.5 721 c 128,-1,4
 194 712 194 712 178.5 702 c 128,-1,5
 163 692 163 692 145.5 683.5 c 128,-1,6
 128 675 128 675 113 675 c 1,7,-1
 101 620 l 1,8,9
 113 620 113 620 127.5 625.5 c 128,-1,10
 142 631 142 631 156.5 638.5 c 128,-1,11
 171 646 171 646 183.5 654.5 c 128,-1,12
 196 663 196 663 202 669 c 1,13,-1
 140 375 l 1,14,-1
 64 375 l 1,15,-1
 52 320 l 1,16,-1
 253 320 l 1,17,-1
 265 375 l 1,18,-1
 195 375 l 1,0,-1
49 -5 m 1,19,-1
 381 343 l 1,20,-1
 715 678 l 1,21,-1
 680 715 l 1,22,-1
 353 370 l 1,23,-1
 15 33 l 1,24,-1
 49 -5 l 1,19,-1
710 0 m 1,25,-1
 721 54 l 1,26,-1
 504 54 l 1,27,28
 507 67 507 67 514 80.5 c 128,-1,29
 521 94 521 94 534 107 c 128,-1,30
 547 120 547 120 567 132 c 128,-1,31
 587 144 587 144 617 154 c 0,32,33
 657 168 657 168 686 183 c 128,-1,34
 715 198 715 198 734 217 c 128,-1,35
 753 236 753 236 762.5 259.5 c 128,-1,36
 772 283 772 283 772 312 c 0,37,38
 772 356 772 356 743 383.5 c 128,-1,39
 714 411 714 411 654 411 c 0,40,41
 620 411 620 411 591.5 403 c 128,-1,42
 563 395 563 395 541 384 c 128,-1,43
 519 373 519 373 504 361.5 c 128,-1,44
 489 350 489 350 483 343 c 1,45,-1
 509 301 l 1,46,47
 518 310 518 310 532 319.5 c 128,-1,48
 546 329 546 329 563 337.5 c 128,-1,49
 580 346 580 346 600 351.5 c 128,-1,50
 620 357 620 357 642 357 c 0,51,52
 680 357 680 357 695.5 341 c 128,-1,53
 711 325 711 325 711 300 c 256,54,55
 711 275 711 275 697.5 258 c 128,-1,56
 684 241 684 241 663 229 c 128,-1,57
 642 217 642 217 616 207.5 c 128,-1,58
 590 198 590 198 565 188 c 0,59,60
 532 175 532 175 506 158.5 c 128,-1,61
 480 142 480 142 461.5 120 c 128,-1,62
 443 98 443 98 430 68.5 c 128,-1,63
 417 39 417 39 409 0 c 1,64,-1
 710 0 l 1,25,-1
EndSplineSet
EndChar

StartChar: questiondown
Encoding: 191 191 129
Width: 457
GlyphClass: 1
Flags: W
LayerCount: 2
Fore
SplineSet
251 295 m 1,0,1
 244 262 244 262 231 240 c 128,-1,2
 218 218 218 218 201.5 202.5 c 128,-1,3
 185 187 185 187 166 176 c 128,-1,4
 147 165 147 165 127 155 c 0,5,6
 100 141 100 141 74.5 126 c 128,-1,7
 49 111 49 111 28 91 c 128,-1,8
 7 71 7 71 -8.5 44 c 128,-1,9
 -24 17 -24 17 -32 -21 c 0,10,11
 -43 -70 -43 -70 -34 -106 c 128,-1,12
 -25 -142 -25 -142 -3 -166 c 128,-1,13
 19 -190 19 -190 51 -201.5 c 128,-1,14
 83 -213 83 -213 119 -213 c 0,15,16
 151 -213 151 -213 183 -204.5 c 128,-1,17
 215 -196 215 -196 245 -179.5 c 128,-1,18
 275 -163 275 -163 301.5 -139 c 128,-1,19
 328 -115 328 -115 347 -84 c 1,20,-1
 298 -45 l 1,21,22
 285 -64 285 -64 267 -81.5 c 128,-1,23
 249 -99 249 -99 228 -112 c 128,-1,24
 207 -125 207 -125 183.5 -132.5 c 128,-1,25
 160 -140 160 -140 136 -140 c 0,26,27
 114 -140 114 -140 94 -132.5 c 128,-1,28
 74 -125 74 -125 61 -110.5 c 128,-1,29
 48 -96 48 -96 42.5 -74.5 c 128,-1,30
 37 -53 37 -53 43 -25 c 0,31,32
 50 9 50 9 69 33.5 c 128,-1,33
 88 58 88 58 112 75.5 c 128,-1,34
 136 93 136 93 161 106 c 128,-1,35
 186 119 186 119 206 131 c 0,36,37
 231 146 231 146 250 163 c 128,-1,38
 269 180 269 180 283 200.5 c 128,-1,39
 297 221 297 221 306.5 244.5 c 128,-1,40
 316 268 316 268 322 295 c 1,41,-1
 251 295 l 1,0,1
374 460 m 0,42,43
 379 483 379 483 367 499.5 c 128,-1,44
 355 516 355 516 332 516 c 0,45,46
 321 516 321 516 310 511.5 c 128,-1,47
 299 507 299 507 290.5 499.5 c 128,-1,48
 282 492 282 492 275.5 482 c 128,-1,49
 269 472 269 472 267 460 c 0,50,51
 262 437 262 437 274 420.5 c 128,-1,52
 286 404 286 404 308 404 c 0,53,54
 319 404 319 404 330 408.5 c 128,-1,55
 341 413 341 413 350 420.5 c 128,-1,56
 359 428 359 428 365.5 438 c 128,-1,57
 372 448 372 448 374 460 c 0,42,43
EndSplineSet
EndChar

StartChar: AE
Encoding: 198 198 136
Width: 924
GlyphClass: 1
Flags: W
LayerCount: 2
Fore
SplineSet
-80 0 m 1,0,-1
 18 0 l 1,1,-1
 183 208 l 1,2,-1
 418 208 l 1,3,-1
 373 0 l 1,4,-1
 823 0 l 1,5,-1
 840 80 l 1,6,-1
 479 80 l 1,7,-1
 531 322 l 1,8,-1
 832 322 l 1,9,-1
 849 402 l 1,10,-1
 548 402 l 1,11,-1
 596 630 l 1,12,-1
 949 630 l 1,13,-1
 966 710 l 1,14,-1
 500 710 l 1,15,-1
 -80 0 l 1,0,-1
240 288 m 1,16,-1
 496 605 l 1,17,-1
 428 288 l 1,18,-1
 240 288 l 1,16,-1
EndSplineSet
EndChar

StartChar: Idieresis
Encoding: 207 207 145
Width: 258
GlyphClass: 1
Flags: W
LayerCount: 2
Fore
SplineSet
20 0 m 1,0,-1
 110 0 l 1,1,-1
 261 709 l 1,2,-1
 171 709 l 1,3,-1
 20 0 l 1,0,-1
268 862 m 256,4,5
 263 839 263 839 273 822.5 c 128,-1,6
 283 806 283 806 303 806 c 256,7,8
 323 806 323 806 339.5 822.5 c 128,-1,9
 356 839 356 839 361 862 c 256,10,11
 366 885 366 885 356.5 901.5 c 128,-1,12
 347 918 347 918 327 918 c 256,13,14
 307 918 307 918 290 901.5 c 128,-1,15
 273 885 273 885 268 862 c 256,4,5
134 862 m 256,16,17
 129 839 129 839 138.5 822.5 c 128,-1,18
 148 806 148 806 168 806 c 256,19,20
 188 806 188 806 205 822.5 c 128,-1,21
 222 839 222 839 227 862 c 256,22,23
 232 885 232 885 222 901.5 c 128,-1,24
 212 918 212 918 192 918 c 256,25,26
 172 918 172 918 155.5 901.5 c 128,-1,27
 139 885 139 885 134 862 c 256,16,17
EndSplineSet
EndChar

StartChar: Eth
Encoding: 208 208 146
Width: 699
GlyphClass: 1
Flags: W
LayerCount: 2
Fore
SplineSet
42 323 m 1,0,-1
 337 323 l 1,1,-1
 351 391 l 1,2,-1
 57 391 l 1,3,-1
 42 323 l 1,0,-1
27 0 m 1,4,-1
 262 0 l 2,5,6
 351 0 351 0 426.5 33 c 128,-1,7
 502 66 502 66 557.5 124.5 c 128,-1,8
 613 183 613 183 644 263 c 128,-1,9
 675 343 675 343 675 437 c 0,10,11
 675 494 675 494 659 544 c 128,-1,12
 643 594 643 594 611 631 c 128,-1,13
 579 668 579 668 529.5 689 c 128,-1,14
 480 710 480 710 413 710 c 2,15,-1
 178 710 l 1,16,-1
 27 0 l 1,4,-1
134 80 m 1,17,-1
 251 630 l 1,18,-1
 396 630 l 2,19,20
 442 630 442 630 477 614.5 c 128,-1,21
 512 599 512 599 535 571.5 c 128,-1,22
 558 544 558 544 570 506 c 128,-1,23
 582 468 582 468 582 423 c 0,24,25
 582 355 582 355 561 293 c 128,-1,26
 540 231 540 231 500.5 183.5 c 128,-1,27
 461 136 461 136 405 108 c 128,-1,28
 349 80 349 80 279 80 c 2,29,-1
 134 80 l 1,17,-1
EndSplineSet
EndChar

StartChar: multiply
Encoding: 215 215 153
Width: 471
GlyphClass: 1
Flags: W
LayerCount: 2
Fore
SplineSet
284 273 m 1,0,-1
 397 387 l 1,1,-1
 342 443 l 1,2,-1
 228 329 l 1,3,-1
 115 442 l 1,4,-1
 59 387 l 1,5,-1
 172 273 l 1,6,-1
 57 158 l 1,7,-1
 112 102 l 1,8,-1
 228 218 l 1,9,-1
 344 102 l 1,10,-1
 400 157 l 1,11,-1
 284 273 l 1,0,-1
EndSplineSet
EndChar

StartChar: Thorn
Encoding: 222 222 160
Width: 581
GlyphClass: 1
Flags: W
LayerCount: 2
Fore
SplineSet
20 0 m 1,0,-1
 110 0 l 1,1,-1
 135 118 l 1,2,-1
 315 118 l 2,3,4
 367 118 367 118 413 141.5 c 128,-1,5
 459 165 459 165 493.5 203 c 128,-1,6
 528 241 528 241 548.5 288.5 c 128,-1,7
 569 336 569 336 569 385 c 0,8,9
 569 421 569 421 558 455 c 128,-1,10
 547 489 547 489 526 515 c 128,-1,11
 505 541 505 541 475 557 c 128,-1,12
 445 573 445 573 406 573 c 2,13,-1
 232 573 l 1,14,-1
 261 710 l 1,15,-1
 171 710 l 1,16,-1
 20 0 l 1,0,-1
152 198 m 1,17,-1
 215 493 l 1,18,-1
 385 493 l 2,19,20
 406 493 406 493 423 484 c 128,-1,21
 440 475 440 475 452 459 c 128,-1,22
 464 443 464 443 470.5 421.5 c 128,-1,23
 477 400 477 400 477 376 c 0,24,25
 477 344 477 344 465.5 312 c 128,-1,26
 454 280 454 280 433.5 254.5 c 128,-1,27
 413 229 413 229 386 213.5 c 128,-1,28
 359 198 359 198 328 198 c 2,29,-1
 152 198 l 1,17,-1
EndSplineSet
EndChar

StartChar: germandbls
Encoding: 223 223 161
Width: 532
GlyphClass: 1
Flags: W
LayerCount: 2
Fore
SplineSet
167 -6 m 1,0,1
 232 -4 232 -4 289.5 13.5 c 128,-1,2
 347 31 347 31 389.5 63 c 128,-1,3
 432 95 432 95 456.5 141.5 c 128,-1,4
 481 188 481 188 481 249 c 0,5,6
 481 305 481 305 454.5 347.5 c 128,-1,7
 428 390 428 390 375 402 c 1,8,9
 399 409 399 409 422.5 426.5 c 128,-1,10
 446 444 446 444 464 468 c 128,-1,11
 482 492 482 492 493.5 521.5 c 128,-1,12
 505 551 505 551 505 581 c 0,13,14
 505 641 505 641 463.5 677.5 c 128,-1,15
 422 714 422 714 355 714 c 0,16,17
 312 714 312 714 272.5 699.5 c 128,-1,18
 233 685 233 685 201 659 c 128,-1,19
 169 633 169 633 146.5 597 c 128,-1,20
 124 561 124 561 115 517 c 2,21,-1
 5 0 l 1,22,-1
 89 0 l 1,23,-1
 196 503 l 2,24,25
 202 530 202 530 213.5 554 c 128,-1,26
 225 578 225 578 242.5 597 c 128,-1,27
 260 616 260 616 283 627 c 128,-1,28
 306 638 306 638 335 638 c 0,29,30
 369 638 369 638 393 619 c 128,-1,31
 417 600 417 600 417 561 c 0,32,33
 417 534 417 534 407.5 511.5 c 128,-1,34
 398 489 398 489 381 472.5 c 128,-1,35
 364 456 364 456 341.5 446.5 c 128,-1,36
 319 437 319 437 293 437 c 2,37,-1
 275 437 l 1,38,-1
 258 357 l 1,39,-1
 277 357 l 2,40,41
 303 357 303 357 324 349 c 128,-1,42
 345 341 345 341 359.5 326.5 c 128,-1,43
 374 312 374 312 382 291.5 c 128,-1,44
 390 271 390 271 390 245 c 0,45,46
 390 202 390 202 374.5 170 c 128,-1,47
 359 138 359 138 331.5 117 c 128,-1,48
 304 96 304 96 266 86 c 128,-1,49
 228 76 228 76 184 75 c 1,50,-1
 167 -6 l 1,0,1
EndSplineSet
EndChar

StartChar: ae
Encoding: 230 230 168
Width: 934
GlyphClass: 1
Flags: W
LayerCount: 2
Fore
SplineSet
207 -10 m 0,0,1
 265 -10 265 -10 315 19.5 c 128,-1,2
 365 49 365 49 402 99 c 1,3,-1
 381 0 l 1,4,-1
 469 0 l 1,5,-1
 493 115 l 1,6,-1
 472 252 l 1,7,-1
 551 386 l 1,8,-1
 579 517 l 1,9,-1
 491 517 l 1,10,-1
 469 417 l 1,11,12
 454 468 454 468 414 499.5 c 128,-1,13
 374 531 374 531 314 531 c 0,14,15
 259 531 259 531 206 504.5 c 128,-1,16
 153 478 153 478 112.5 433 c 128,-1,17
 72 388 72 388 47 329.5 c 128,-1,18
 22 271 22 271 22 206 c 0,19,20
 22 162 22 162 34.5 122.5 c 128,-1,21
 47 83 47 83 70.5 53.5 c 128,-1,22
 94 24 94 24 128.5 7 c 128,-1,23
 163 -10 163 -10 207 -10 c 0,0,1
244 66 m 0,24,25
 214 66 214 66 190 78 c 128,-1,26
 166 90 166 90 149.5 111 c 128,-1,27
 133 132 133 132 124 160 c 128,-1,28
 115 188 115 188 115 220 c 0,29,30
 115 262 115 262 132 303.5 c 128,-1,31
 149 345 149 345 177.5 379 c 128,-1,32
 206 413 206 413 244 434 c 128,-1,33
 282 455 282 455 323 455 c 0,34,35
 349 455 349 455 370.5 445.5 c 128,-1,36
 392 436 392 436 408.5 419.5 c 128,-1,37
 425 403 425 403 436 380 c 128,-1,38
 447 357 447 357 451 330 c 1,39,-1
 419 182 l 1,40,41
 404 157 404 157 384.5 136 c 128,-1,42
 365 115 365 115 342.5 99.5 c 128,-1,43
 320 84 320 84 295 75 c 128,-1,44
 270 66 270 66 244 66 c 0,24,25
623 -10 m 0,45,46
 660 -10 660 -10 695.5 0 c 128,-1,47
 731 10 731 10 763 27.5 c 128,-1,48
 795 45 795 45 822 69 c 128,-1,49
 849 93 849 93 867 122 c 1,50,-1
 796 143 l 1,51,52
 784 123 784 123 766 107 c 128,-1,53
 748 91 748 91 727 79.5 c 128,-1,54
 706 68 706 68 683 62 c 128,-1,55
 660 56 660 56 637 56 c 0,56,57
 604 56 604 56 579.5 68.5 c 128,-1,58
 555 81 555 81 539 102.5 c 128,-1,59
 523 124 523 124 515 152 c 128,-1,60
 507 180 507 180 507 211 c 0,61,62
 507 251 507 251 520 295.5 c 128,-1,63
 533 340 533 340 560 377.5 c 128,-1,64
 587 415 587 415 629 440 c 128,-1,65
 671 465 671 465 728 465 c 0,66,67
 751 465 751 465 769.5 460.5 c 128,-1,68
 788 456 788 456 801.5 447 c 128,-1,69
 815 438 815 438 822 424 c 128,-1,70
 829 410 829 410 829 391 c 0,71,72
 829 369 829 369 818.5 350.5 c 128,-1,73
 808 332 808 332 784 318.5 c 128,-1,74
 760 305 760 305 721.5 297.5 c 128,-1,75
 683 290 683 290 626 290 c 0,76,77
 601 290 601 290 572.5 291.5 c 128,-1,78
 544 293 544 293 511 296 c 1,79,-1
 487 236 l 1,80,81
 526 232 526 232 560.5 230.5 c 128,-1,82
 595 229 595 229 623 229 c 0,83,84
 769 229 769 229 838.5 269.5 c 128,-1,85
 908 310 908 310 908 390 c 0,86,87
 908 425 908 425 895 451.5 c 128,-1,88
 882 478 882 478 859 495.5 c 128,-1,89
 836 513 836 513 804 522 c 128,-1,90
 772 531 772 531 734 531 c 0,91,92
 666 531 666 531 611.5 504.5 c 128,-1,93
 557 478 557 478 518.5 433.5 c 128,-1,94
 480 389 480 389 459 331.5 c 128,-1,95
 438 274 438 274 438 211 c 0,96,97
 438 165 438 165 448.5 124.5 c 128,-1,98
 459 84 459 84 481.5 54 c 128,-1,99
 504 24 504 24 539 7 c 128,-1,100
 574 -10 574 -10 623 -10 c 0,45,46
EndSplineSet
EndChar

StartChar: idieresis
Encoding: 239 239 177
Width: 230
GlyphClass: 1
Flags: W
LayerCount: 2
Fore
SplineSet
85 674 m 256,0,1
 80 651 80 651 89.5 634.5 c 128,-1,2
 99 618 99 618 118 618 c 256,3,4
 137 618 137 618 153.5 634.5 c 128,-1,5
 170 651 170 651 175 674 c 256,6,7
 180 697 180 697 170.5 713.5 c 128,-1,8
 161 730 161 730 142 730 c 256,9,10
 123 730 123 730 106.5 713.5 c 128,-1,11
 90 697 90 697 85 674 c 256,0,1
214 674 m 256,12,13
 209 651 209 651 218.5 634.5 c 128,-1,14
 228 618 228 618 247 618 c 256,15,16
 266 618 266 618 282.5 634.5 c 128,-1,17
 299 651 299 651 304 674 c 256,18,19
 309 697 309 697 299.5 713.5 c 128,-1,20
 290 730 290 730 271 730 c 256,21,22
 252 730 252 730 235.5 713.5 c 128,-1,23
 219 697 219 697 214 674 c 256,12,13
5 0 m 1,24,-1
 93 0 l 1,25,-1
 204 522 l 1,26,-1
 116 522 l 1,27,-1
 5 0 l 1,24,-1
EndSplineSet
EndChar

StartChar: eth
Encoding: 240 240 178
Width: 583
GlyphClass: 1
Flags: W
LayerCount: 2
Fore
SplineSet
549 372 m 0,0,1
 549 415 549 415 540.5 463.5 c 128,-1,2
 532 512 532 512 512 560 c 128,-1,3
 492 608 492 608 460 652 c 128,-1,4
 428 696 428 696 380 730 c 1,5,-1
 258 730 l 1,6,7
 312 694 312 694 348.5 657.5 c 128,-1,8
 385 621 385 621 408.5 583.5 c 128,-1,9
 432 546 432 546 444.5 508.5 c 128,-1,10
 457 471 457 471 461 432 c 0,11,12
 463 416 463 416 464 400.5 c 128,-1,13
 465 385 465 385 465 368 c 1,14,15
 449 416 449 416 407 444.5 c 128,-1,16
 365 473 365 473 306 473 c 0,17,18
 252 473 252 473 200 450 c 128,-1,19
 148 427 148 427 107.5 388 c 128,-1,20
 67 349 67 349 42.5 298 c 128,-1,21
 18 247 18 247 18 191 c 0,22,23
 18 149 18 149 32.5 112 c 128,-1,24
 47 75 47 75 73.5 48 c 128,-1,25
 100 21 100 21 137 5.5 c 128,-1,26
 174 -10 174 -10 218 -10 c 0,27,28
 280 -10 280 -10 339 17 c 128,-1,29
 398 44 398 44 445 93.5 c 128,-1,30
 492 143 492 143 520.5 213.5 c 128,-1,31
 549 284 549 284 549 372 c 0,0,1
109 202 m 0,32,33
 109 242 109 242 126 278 c 128,-1,34
 143 314 143 314 171.5 341.5 c 128,-1,35
 200 369 200 369 236.5 385 c 128,-1,36
 273 401 273 401 312 401 c 0,37,38
 341 401 341 401 364.5 391 c 128,-1,39
 388 381 388 381 405 363 c 128,-1,40
 422 345 422 345 431.5 321 c 128,-1,41
 441 297 441 297 441 268 c 0,42,43
 441 229 441 229 424 192.5 c 128,-1,44
 407 156 407 156 378.5 128 c 128,-1,45
 350 100 350 100 313 83 c 128,-1,46
 276 66 276 66 237 66 c 0,47,48
 209 66 209 66 185 76.5 c 128,-1,49
 161 87 161 87 144.5 105.5 c 128,-1,50
 128 124 128 124 118.5 149 c 128,-1,51
 109 174 109 174 109 202 c 0,32,33
544 713 m 1,52,-1
 426 647 l 1,53,-1
 398 639 l 1,54,-1
 273 569 l 1,55,-1
 292 532 l 1,56,-1
 420 604 l 1,57,-1
 450 614 l 1,58,-1
 563 676 l 1,59,-1
 544 713 l 1,52,-1
EndSplineSet
EndChar

StartChar: divide
Encoding: 247 247 185
Width: 533
GlyphClass: 1
Flags: W
LayerCount: 2
Fore
SplineSet
468 251 m 1,0,-1
 468 323 l 1,1,-1
 65 323 l 1,2,-1
 65 251 l 1,3,-1
 468 251 l 1,0,-1
210 112 m 256,4,5
 210 89 210 89 226.5 72.5 c 128,-1,6
 243 56 243 56 266 56 c 256,7,8
 289 56 289 56 305.5 72.5 c 128,-1,9
 322 89 322 89 322 112 c 256,10,11
 322 135 322 135 305.5 151.5 c 128,-1,12
 289 168 289 168 266 168 c 256,13,14
 243 168 243 168 226.5 151.5 c 128,-1,15
 210 135 210 135 210 112 c 256,4,5
211 463 m 256,16,17
 211 440 211 440 227.5 423 c 128,-1,18
 244 406 244 406 267 406 c 256,19,20
 290 406 290 406 306.5 423 c 128,-1,21
 323 440 323 440 323 463 c 256,22,23
 323 486 323 486 306.5 502.5 c 128,-1,24
 290 519 290 519 267 519 c 256,25,26
 244 519 244 519 227.5 502.5 c 128,-1,27
 211 486 211 486 211 463 c 256,16,17
EndSplineSet
EndChar

StartChar: oslash
Encoding: 248 248 186
Width: 578
GlyphClass: 1
Flags: W
LayerCount: 2
Fore
SplineSet
223 -10 m 0,0,1
 288 -10 288 -10 345.5 17 c 128,-1,2
 403 44 403 44 446 89 c 128,-1,3
 489 134 489 134 514 192 c 128,-1,4
 539 250 539 250 539 312 c 0,5,6
 539 357 539 357 525.5 397 c 128,-1,7
 512 437 512 437 486 466.5 c 128,-1,8
 460 496 460 496 423 513.5 c 128,-1,9
 386 531 386 531 338 531 c 0,10,11
 274 531 274 531 216.5 504 c 128,-1,12
 159 477 159 477 116 432 c 128,-1,13
 73 387 73 387 47.5 329 c 128,-1,14
 22 271 22 271 22 208 c 0,15,16
 22 163 22 163 35.5 123.5 c 128,-1,17
 49 84 49 84 74.5 54.5 c 128,-1,18
 100 25 100 25 137.5 7.5 c 128,-1,19
 175 -10 175 -10 223 -10 c 0,0,1
239 66 m 0,20,21
 211 66 211 66 187.5 77.5 c 128,-1,22
 164 89 164 89 147.5 109.5 c 128,-1,23
 131 130 131 130 122 158 c 128,-1,24
 113 186 113 186 113 219 c 0,25,26
 113 266 113 266 131 309 c 128,-1,27
 149 352 149 352 178.5 384.5 c 128,-1,28
 208 417 208 417 245.5 436 c 128,-1,29
 283 455 283 455 321 455 c 0,30,31
 350 455 350 455 373 443 c 128,-1,32
 396 431 396 431 412.5 410.5 c 128,-1,33
 429 390 429 390 438 362 c 128,-1,34
 447 334 447 334 447 301 c 0,35,36
 447 253 447 253 429 210.5 c 128,-1,37
 411 168 411 168 381.5 136 c 128,-1,38
 352 104 352 104 315 85 c 128,-1,39
 278 66 278 66 239 66 c 0,20,21
13 -2 m 1,40,-1
 67 -2 l 1,41,-1
 133 64 l 1,42,-1
 109 94 l 1,43,-1
 13 -2 l 1,40,-1
139 71 m 1,44,-1
 452 432 l 1,45,-1
 424 455 l 1,46,-1
 116 98 l 1,47,-1
 139 71 l 1,44,-1
460 437 m 1,48,-1
 546 524 l 1,49,-1
 491 524 l 1,50,-1
 429 461 l 1,51,-1
 460 437 l 1,48,-1
EndSplineSet
EndChar

StartChar: thorn
Encoding: 254 254 192
Width: 578
GlyphClass: 1
Flags: W
LayerCount: 2
Fore
SplineSet
48 -213 m 1,0,-1
 115 103 l 1,1,2
 124 79 124 79 138 58 c 128,-1,3
 152 37 152 37 172 22 c 128,-1,4
 192 7 192 7 217.5 -1.5 c 128,-1,5
 243 -10 243 -10 273 -10 c 0,6,7
 331 -10 331 -10 383 17 c 128,-1,8
 435 44 435 44 474.5 89 c 128,-1,9
 514 134 514 134 537 192.5 c 128,-1,10
 560 251 560 251 560 313 c 0,11,12
 560 357 560 357 547.5 396.5 c 128,-1,13
 535 436 535 436 511 466 c 128,-1,14
 487 496 487 496 453 513.5 c 128,-1,15
 419 531 419 531 376 531 c 0,16,17
 350 531 350 531 324 524.5 c 128,-1,18
 298 518 298 518 273.5 505.5 c 128,-1,19
 249 493 249 493 227 476 c 128,-1,20
 205 459 205 459 187 438 c 1,21,-1
 246 710 l 1,22,-1
 156 710 l 1,23,-1
 -40 -213 l 1,24,-1
 48 -213 l 1,0,-1
262 66 m 0,25,26
 237 66 237 66 215.5 75.5 c 128,-1,27
 194 85 194 85 177.5 101.5 c 128,-1,28
 161 118 161 118 149.5 140.5 c 128,-1,29
 138 163 138 163 133 189 c 1,30,-1
 165 338 l 1,31,32
 175 362 175 362 195 383.5 c 128,-1,33
 215 405 215 405 239 420.5 c 128,-1,34
 263 436 263 436 289 445.5 c 128,-1,35
 315 455 315 455 337 455 c 0,36,37
 367 455 367 455 391 442.5 c 128,-1,38
 415 430 415 430 432.5 409 c 128,-1,39
 450 388 450 388 459 359.5 c 128,-1,40
 468 331 468 331 468 299 c 0,41,42
 468 257 468 257 451.5 215.5 c 128,-1,43
 435 174 435 174 406.5 140.5 c 128,-1,44
 378 107 378 107 341 86.5 c 128,-1,45
 304 66 304 66 262 66 c 0,25,26
EndSplineSet
EndChar

StartChar: Dcroat
Encoding: 272 272 210
Width: 699
GlyphClass: 1
Flags: W
LayerCount: 2
Fore
SplineSet
42 323 m 1,0,-1
 337 323 l 1,1,-1
 351 391 l 1,2,-1
 57 391 l 1,3,-1
 42 323 l 1,0,-1
27 0 m 1,4,-1
 262 0 l 2,5,6
 351 0 351 0 426.5 33 c 128,-1,7
 502 66 502 66 557.5 124.5 c 128,-1,8
 613 183 613 183 644 263 c 128,-1,9
 675 343 675 343 675 437 c 0,10,11
 675 494 675 494 659 544 c 128,-1,12
 643 594 643 594 611 631 c 128,-1,13
 579 668 579 668 529.5 689 c 128,-1,14
 480 710 480 710 413 710 c 2,15,-1
 178 710 l 1,16,-1
 27 0 l 1,4,-1
134 80 m 1,17,-1
 251 630 l 1,18,-1
 396 630 l 2,19,20
 442 630 442 630 477 614.5 c 128,-1,21
 512 599 512 599 535 571.5 c 128,-1,22
 558 544 558 544 570 506 c 128,-1,23
 582 468 582 468 582 423 c 0,24,25
 582 355 582 355 561 293 c 128,-1,26
 540 231 540 231 500.5 183.5 c 128,-1,27
 461 136 461 136 405 108 c 128,-1,28
 349 80 349 80 279 80 c 2,29,-1
 134 80 l 1,17,-1
EndSplineSet
EndChar

StartChar: dcroat
Encoding: 273 273 211
Width: 606
GlyphClass: 1
Flags: W
LayerCount: 2
Fore
SplineSet
415 601 m 1,0,-1
 671 601 l 1,1,-1
 683 657 l 1,2,-1
 427 657 l 1,3,-1
 415 601 l 1,0,-1
208 -10 m 0,4,5
 235 -10 235 -10 261 -3 c 128,-1,6
 287 4 287 4 311.5 17.5 c 128,-1,7
 336 31 336 31 358 50 c 128,-1,8
 380 69 380 69 398 92 c 1,9,-1
 379 0 l 1,10,-1
 467 0 l 1,11,-1
 622 730 l 1,12,-1
 534 730 l 1,13,-1
 467 418 l 1,14,15
 458 442 458 442 443.5 462.5 c 128,-1,16
 429 483 429 483 409.5 498 c 128,-1,17
 390 513 390 513 365 522 c 128,-1,18
 340 531 340 531 310 531 c 0,19,20
 254 531 254 531 202 504 c 128,-1,21
 150 477 150 477 110 432 c 128,-1,22
 70 387 70 387 46 328.5 c 128,-1,23
 22 270 22 270 22 207 c 0,24,25
 22 163 22 163 34.5 123.5 c 128,-1,26
 47 84 47 84 71 54.5 c 128,-1,27
 95 25 95 25 129.5 7.5 c 128,-1,28
 164 -10 164 -10 208 -10 c 0,4,5
245 66 m 0,29,30
 215 66 215 66 191 78 c 128,-1,31
 167 90 167 90 150 111 c 128,-1,32
 133 132 133 132 124 160.5 c 128,-1,33
 115 189 115 189 115 221 c 0,34,35
 115 263 115 263 131.5 305 c 128,-1,36
 148 347 148 347 176 380 c 128,-1,37
 204 413 204 413 241.5 434 c 128,-1,38
 279 455 279 455 320 455 c 0,39,40
 343 455 343 455 365 445.5 c 128,-1,41
 387 436 387 436 405 419.5 c 128,-1,42
 423 403 423 403 434.5 381 c 128,-1,43
 446 359 446 359 449 333 c 1,44,-1
 418 183 l 2,45,46
 409 159 409 159 389 137.5 c 128,-1,47
 369 116 369 116 344.5 100 c 128,-1,48
 320 84 320 84 294 75 c 128,-1,49
 268 66 268 66 245 66 c 0,29,30
EndSplineSet
EndChar

StartChar: hcircumflex
Encoding: 293 293 231
Width: 567
GlyphClass: 1
Flags: W
LayerCount: 2
Fore
SplineSet
5 0 m 1,0,-1
 93 0 l 1,1,-1
 160 315 l 1,2,3
 174 345 174 345 196 370 c 128,-1,4
 218 395 218 395 243 413 c 128,-1,5
 268 431 268 431 294 441.5 c 128,-1,6
 320 452 320 452 344 452 c 0,7,8
 382 452 382 452 401.5 429 c 128,-1,9
 421 406 421 406 421 360 c 0,10,11
 421 345 421 345 419 328.5 c 128,-1,12
 417 312 417 312 413 292 c 2,13,-1
 351 0 l 1,14,-1
 439 0 l 1,15,-1
 505 312 l 2,16,17
 510 336 510 336 512.5 358.5 c 128,-1,18
 515 381 515 381 515 401 c 0,19,20
 515 430 515 430 508.5 454 c 128,-1,21
 502 478 502 478 488 495 c 128,-1,22
 474 512 474 512 451 521.5 c 128,-1,23
 428 531 428 531 395 531 c 0,24,25
 365 531 365 531 335.5 522.5 c 128,-1,26
 306 514 306 514 278.5 498.5 c 128,-1,27
 251 483 251 483 226 460.5 c 128,-1,28
 201 438 201 438 180 410 c 1,29,-1
 248 730 l 1,30,-1
 160 730 l 1,31,-1
 5 0 l 1,0,-1
441 915 m 1,32,-1
 359 915 l 1,33,-1
 249 777 l 1,34,-1
 294 777 l 1,35,-1
 441 915 l 1,32,-1
378 915 m 1,36,-1
 469 777 l 1,37,-1
 515 777 l 1,38,-1
 460 915 l 1,39,-1
 378 915 l 1,36,-1
EndSplineSet
EndChar

StartChar: Hbar
Encoding: 294 294 232
Width: 723
GlyphClass: 1
Flags: W
LayerCount: 2
Fore
SplineSet
95 548 m 1,0,-1
 735 548 l 1,1,-1
 745 595 l 1,2,-1
 105 595 l 1,3,-1
 95 548 l 1,0,-1
26 0 m 1,4,-1
 116 0 l 1,5,-1
 185 323 l 1,6,-1
 550 323 l 1,7,-1
 481 0 l 1,8,-1
 571 0 l 1,9,-1
 722 710 l 1,10,-1
 632 710 l 1,11,-1
 567 403 l 1,12,-1
 202 403 l 1,13,-1
 267 710 l 1,14,-1
 177 710 l 1,15,-1
 26 0 l 1,4,-1
EndSplineSet
EndChar

StartChar: hbar
Encoding: 295 295 233
Width: 567
GlyphClass: 1
Flags: W
LayerCount: 2
Fore
SplineSet
63 601 m 1,0,-1
 319 601 l 1,1,-1
 331 657 l 1,2,-1
 75 657 l 1,3,-1
 63 601 l 1,0,-1
5 0 m 1,4,-1
 93 0 l 1,5,-1
 160 315 l 1,6,7
 174 345 174 345 196 370 c 128,-1,8
 218 395 218 395 243 413 c 128,-1,9
 268 431 268 431 294 441.5 c 128,-1,10
 320 452 320 452 344 452 c 0,11,12
 382 452 382 452 401.5 429 c 128,-1,13
 421 406 421 406 421 360 c 0,14,15
 421 345 421 345 419 328.5 c 128,-1,16
 417 312 417 312 413 292 c 2,17,-1
 351 0 l 1,18,-1
 439 0 l 1,19,-1
 505 312 l 2,20,21
 510 336 510 336 512.5 358.5 c 128,-1,22
 515 381 515 381 515 401 c 0,23,24
 515 430 515 430 508.5 454 c 128,-1,25
 502 478 502 478 488 495 c 128,-1,26
 474 512 474 512 451 521.5 c 128,-1,27
 428 531 428 531 395 531 c 0,28,29
 365 531 365 531 335.5 522.5 c 128,-1,30
 306 514 306 514 278.5 498.5 c 128,-1,31
 251 483 251 483 226 460.5 c 128,-1,32
 201 438 201 438 180 410 c 1,33,-1
 248 730 l 1,34,-1
 160 730 l 1,35,-1
 5 0 l 1,4,-1
EndSplineSet
EndChar

StartChar: dotlessi
Encoding: 305 305 243
Width: 226
GlyphClass: 1
Flags: W
LayerCount: 2
Fore
SplineSet
5 0 m 1,0,-1
 93 0 l 1,1,-1
 204 522 l 1,2,-1
 116 522 l 1,3,-1
 5 0 l 1,0,-1
EndSplineSet
EndChar

StartChar: kgreenlandic
Encoding: 312 312 248
Width: 518
GlyphClass: 1
Flags: W
LayerCount: 2
Fore
SplineSet
5 0 m 1,0,-1
 93 0 l 1,1,-1
 127 161 l 1,2,-1
 240 255 l 1,3,-1
 354 0 l 1,4,-1
 449 0 l 1,5,-1
 307 305 l 1,6,-1
 549 521 l 1,7,-1
 453 521 l 1,8,-1
 146 250 l 1,9,-1
 204 522 l 1,10,-1
 116 522 l 1,11,-1
 5 0 l 1,0,-1
EndSplineSet
EndChar

StartChar: Lslash
Encoding: 321 321 257
Width: 565
GlyphClass: 1
Flags: W
LayerCount: 2
Fore
SplineSet
24 233 m 1,0,-1
 374 474 l 1,1,-1
 360 523 l 1,2,-1
 9 283 l 1,3,-1
 24 233 l 1,0,-1
20 0 m 1,4,-1
 483 0 l 1,5,-1
 500 80 l 1,6,-1
 127 80 l 1,7,-1
 261 710 l 1,8,-1
 171 710 l 1,9,-1
 20 0 l 1,4,-1
EndSplineSet
EndChar

StartChar: lslash
Encoding: 322 322 258
Width: 301
GlyphClass: 1
Flags: W
LayerCount: 2
Fore
SplineSet
30 283 m 1,0,-1
 324 473 l 1,1,-1
 308 522 l 1,2,-1
 15 332 l 1,3,-1
 30 283 l 1,0,-1
131 -7 m 0,4,5
 154 -7 154 -7 184.5 -1 c 128,-1,6
 215 5 215 5 238 14 c 1,7,-1
 241 85 l 1,8,9
 227 80 227 80 211.5 76.5 c 128,-1,10
 196 73 196 73 185 73 c 0,11,12
 163 73 163 73 152 84.5 c 128,-1,13
 141 96 141 96 141 116 c 0,14,15
 141 124 141 124 142.5 133 c 128,-1,16
 144 142 144 142 147 155 c 2,17,-1
 269 730 l 1,18,-1
 181 730 l 1,19,-1
 48 103 l 2,20,21
 46 95 46 95 45 87 c 128,-1,22
 44 79 44 79 44 71 c 0,23,24
 44 34 44 34 66.5 13.5 c 128,-1,25
 89 -7 89 -7 131 -7 c 0,4,5
EndSplineSet
EndChar

StartChar: Eng
Encoding: 330 330 265
Width: 732
GlyphClass: 1
Flags: W
LayerCount: 2
Fore
SplineSet
387 -186 m 0,0,1
 417 -186 417 -186 448 -174 c 128,-1,2
 479 -162 479 -162 505.5 -140 c 128,-1,3
 532 -118 532 -118 551.5 -87.5 c 128,-1,4
 571 -57 571 -57 579 -20 c 2,5,-1
 734 709 l 1,6,-1
 644 709 l 1,7,-1
 527 161 l 1,8,-1
 240 710 l 1,9,-1
 171 710 l 1,10,-1
 20 0 l 1,11,-1
 110 0 l 1,12,-1
 225 540 l 1,13,-1
 498 15 l 1,14,-1
 490 -23 l 2,15,16
 486 -41 486 -41 476.5 -57 c 128,-1,17
 467 -73 467 -73 453.5 -84 c 128,-1,18
 440 -95 440 -95 424 -101.5 c 128,-1,19
 408 -108 408 -108 393 -108 c 0,20,21
 376 -108 376 -108 360.5 -103 c 128,-1,22
 345 -98 345 -98 335 -85 c 1,23,-1
 282 -144 l 1,24,25
 300 -166 300 -166 327.5 -176 c 128,-1,26
 355 -186 355 -186 387 -186 c 0,0,1
EndSplineSet
EndChar

StartChar: eng
Encoding: 331 331 266
Width: 567
GlyphClass: 1
Flags: W
LayerCount: 2
Fore
SplineSet
243 -186 m 0,0,1
 274 -186 274 -186 305 -173.5 c 128,-1,2
 336 -161 336 -161 362 -138.5 c 128,-1,3
 388 -116 388 -116 407.5 -85 c 128,-1,4
 427 -54 427 -54 435 -17 c 2,5,-1
 505 312 l 2,6,7
 510 338 510 338 513.5 362 c 128,-1,8
 517 386 517 386 517 408 c 0,9,10
 517 436 517 436 511 458.5 c 128,-1,11
 505 481 505 481 491.5 497 c 128,-1,12
 478 513 478 513 456.5 522 c 128,-1,13
 435 531 435 531 403 531 c 0,14,15
 370 531 370 531 337.5 522.5 c 128,-1,16
 305 514 305 514 275 498 c 128,-1,17
 245 482 245 482 218.5 459.5 c 128,-1,18
 192 437 192 437 172 410 c 1,19,-1
 196 522 l 1,20,-1
 116 522 l 1,21,-1
 5 0 l 1,22,-1
 93 0 l 1,23,-1
 160 315 l 1,24,25
 175 345 175 345 197 370 c 128,-1,26
 219 395 219 395 245 413 c 128,-1,27
 271 431 271 431 298.5 441.5 c 128,-1,28
 326 452 326 452 351 452 c 0,29,30
 386 452 386 452 404 431.5 c 128,-1,31
 422 411 422 411 422 367 c 0,32,33
 422 351 422 351 420 332.5 c 128,-1,34
 418 314 418 314 413 292 c 2,35,-1
 346 -23 l 2,36,37
 342 -41 342 -41 332 -57 c 128,-1,38
 322 -73 322 -73 308.5 -84 c 128,-1,39
 295 -95 295 -95 280 -101.5 c 128,-1,40
 265 -108 265 -108 250 -108 c 0,41,42
 233 -108 233 -108 217 -103 c 128,-1,43
 201 -98 201 -98 190 -85 c 1,44,-1
 137 -144 l 1,45,46
 156 -166 156 -166 183 -176 c 128,-1,47
 210 -186 210 -186 243 -186 c 0,0,1
EndSplineSet
EndChar

StartChar: OE
Encoding: 338 338 273
Width: 1077
GlyphClass: 1
Flags: W
LayerCount: 2
Fore
SplineSet
295 -5 m 0,0,1
 333 -5 333 -5 370 7.5 c 128,-1,2
 407 20 407 20 441 41.5 c 128,-1,3
 475 63 475 63 505 93 c 128,-1,4
 535 123 535 123 559 157 c 1,5,-1
 525 0 l 1,6,-1
 976 0 l 1,7,-1
 993 80 l 1,8,-1
 632 80 l 1,9,-1
 684 322 l 1,10,-1
 985 322 l 1,11,-1
 1002 402 l 1,12,-1
 701 402 l 1,13,-1
 749 630 l 1,14,-1
 1102 630 l 1,15,-1
 1119 710 l 1,16,-1
 676 710 l 1,17,-1
 643 553 l 1,18,19
 634 587 634 587 617.5 616.5 c 128,-1,20
 601 646 601 646 576.5 668 c 128,-1,21
 552 690 552 690 520 702.5 c 128,-1,22
 488 715 488 715 449 715 c 0,23,24
 371 715 371 715 297.5 679 c 128,-1,25
 224 643 224 643 168 583 c 128,-1,26
 112 523 112 523 78 446 c 128,-1,27
 44 369 44 369 44 288 c 0,28,29
 44 231 44 231 60.5 178 c 128,-1,30
 77 125 77 125 109 84.5 c 128,-1,31
 141 44 141 44 188 19.5 c 128,-1,32
 235 -5 235 -5 295 -5 c 0,0,1
312 76 m 0,33,34
 269 76 269 76 236.5 94 c 128,-1,35
 204 112 204 112 181.5 142 c 128,-1,36
 159 172 159 172 147.5 212 c 128,-1,37
 136 252 136 252 136 296 c 0,38,39
 136 356 136 356 159 416.5 c 128,-1,40
 182 477 182 477 222 525 c 128,-1,41
 262 573 262 573 316 603.5 c 128,-1,42
 370 634 370 634 431 634 c 0,43,44
 473 634 473 634 505.5 616 c 128,-1,45
 538 598 538 598 560.5 568 c 128,-1,46
 583 538 583 538 594.5 498 c 128,-1,47
 606 458 606 458 606 414 c 0,48,49
 606 354 606 354 583 294 c 128,-1,50
 560 234 560 234 520.5 185.5 c 128,-1,51
 481 137 481 137 427.5 106.5 c 128,-1,52
 374 76 374 76 312 76 c 0,33,34
EndSplineSet
EndChar

StartChar: Tbar
Encoding: 358 358 293
Width: 617
GlyphClass: 1
Flags: W
LayerCount: 2
Fore
SplineSet
74 350 m 1,0,-1
 561 350 l 1,1,-1
 571 397 l 1,2,-1
 84 397 l 1,3,-1
 74 350 l 1,0,-1
198 0 m 1,4,-1
 288 0 l 1,5,-1
 422 630 l 1,6,-1
 653 630 l 1,7,-1
 670 710 l 1,8,-1
 118 710 l 1,9,-1
 101 630 l 1,10,-1
 332 630 l 1,11,-1
 198 0 l 1,4,-1
EndSplineSet
EndChar

StartChar: tbar
Encoding: 359 359 294
Width: 338
GlyphClass: 1
Flags: W
LayerCount: 2
Fore
SplineSet
22 293 m 1,0,-1
 288 293 l 1,1,-1
 300 349 l 1,2,-1
 34 349 l 1,3,-1
 22 293 l 1,0,-1
48 73 m 0,4,5
 48 32 48 32 75 12.5 c 128,-1,6
 102 -7 102 -7 142 -7 c 0,7,8
 162 -7 162 -7 181 -4 c 128,-1,9
 200 -1 200 -1 217 3.5 c 128,-1,10
 234 8 234 8 248 14 c 128,-1,11
 262 20 262 20 271 26 c 1,12,-1
 266 96 l 1,13,14
 262 94 262 94 253.5 90 c 128,-1,15
 245 86 245 86 234.5 82.5 c 128,-1,16
 224 79 224 79 212 76.5 c 128,-1,17
 200 74 200 74 188 74 c 0,18,19
 169 74 169 74 156 83.5 c 128,-1,20
 143 93 143 93 143 114 c 0,21,22
 143 118 143 118 143.5 121.5 c 128,-1,23
 144 125 144 125 145 129 c 2,24,-1
 214 453 l 1,25,-1
 324 453 l 1,26,-1
 339 522 l 1,27,-1
 228 522 l 1,28,-1
 265 696 l 1,29,-1
 177 696 l 1,30,-1
 140 522 l 1,31,-1
 73 522 l 1,32,-1
 58 453 l 1,33,-1
 126 453 l 1,34,-1
 51 102 l 2,35,36
 49 94 49 94 48.5 87 c 128,-1,37
 48 80 48 80 48 73 c 0,4,5
EndSplineSet
EndChar

StartChar: uni018F
Encoding: 399 399 318
Width: 706
GlyphClass: 1
Flags: W
LayerCount: 2
Fore
SplineSet
282 -5 m 0,0,1
 359 -5 359 -5 431.5 29.5 c 128,-1,2
 504 64 504 64 560 123 c 128,-1,3
 616 182 616 182 650 260 c 128,-1,4
 684 338 684 338 684 426 c 0,5,6
 684 487 684 487 666.5 540 c 128,-1,7
 649 593 649 593 617 632 c 128,-1,8
 585 671 585 671 539.5 693 c 128,-1,9
 494 715 494 715 438 715 c 0,10,11
 394 715 394 715 348.5 702 c 128,-1,12
 303 689 303 689 261 666 c 128,-1,13
 219 643 219 643 182.5 610 c 128,-1,14
 146 577 146 577 119 538 c 1,15,-1
 197 499 l 1,16,17
 212 528 212 528 235.5 552.5 c 128,-1,18
 259 577 259 577 287.5 594.5 c 128,-1,19
 316 612 316 612 348.5 622 c 128,-1,20
 381 632 381 632 413 632 c 0,21,22
 452 632 452 632 483.5 617 c 128,-1,23
 515 602 515 602 538 575 c 128,-1,24
 561 548 561 548 573.5 510.5 c 128,-1,25
 586 473 586 473 586 428 c 0,26,27
 586 419 586 419 585.5 410 c 128,-1,28
 585 401 585 401 584 392 c 1,29,-1
 48 392 l 1,30,31
 43 381 43 381 35 353 c 128,-1,32
 27 325 27 325 27 282 c 0,33,34
 27 222 27 222 45.5 169.5 c 128,-1,35
 64 117 64 117 97.5 78.5 c 128,-1,36
 131 40 131 40 178 17.5 c 128,-1,37
 225 -5 225 -5 282 -5 c 0,0,1
301 76 m 0,38,39
 256 76 256 76 221.5 90.5 c 128,-1,40
 187 105 187 105 163.5 130.5 c 128,-1,41
 140 156 140 156 127.5 190 c 128,-1,42
 115 224 115 224 115 263 c 0,43,44
 115 276 115 276 116 288.5 c 128,-1,45
 117 301 117 301 120 314 c 1,46,-1
 569 314 l 1,47,48
 555 263 555 263 527.5 219 c 128,-1,49
 500 175 500 175 464.5 143.5 c 128,-1,50
 429 112 429 112 387 94 c 128,-1,51
 345 76 345 76 301 76 c 0,38,39
EndSplineSet
EndChar

StartChar: florin
Encoding: 402 402 319
Width: 512
GlyphClass: 1
Flags: W
LayerCount: 2
Fore
SplineSet
42 -186 m 0,0,1
 73 -186 73 -186 103.5 -174 c 128,-1,2
 134 -162 134 -162 160.5 -140 c 128,-1,3
 187 -118 187 -118 206 -87.5 c 128,-1,4
 225 -57 225 -57 233 -21 c 2,5,-1
 321 392 l 1,6,-1
 452 392 l 1,7,-1
 467 461 l 1,8,-1
 336 461 l 1,9,-1
 352 536 l 2,10,11
 366 599 366 599 393.5 632 c 128,-1,12
 421 665 421 665 462 665 c 0,13,14
 481 665 481 665 499.5 659 c 128,-1,15
 518 653 518 653 529 643 c 1,16,-1
 564 708 l 1,17,18
 544 723 544 723 516.5 731.5 c 128,-1,19
 489 740 489 740 460 740 c 0,20,21
 425 740 425 740 393.5 725.5 c 128,-1,22
 362 711 362 711 336.5 684.5 c 128,-1,23
 311 658 311 658 292 619.5 c 128,-1,24
 273 581 273 581 263 533 c 2,25,-1
 248 461 l 1,26,-1
 180 461 l 1,27,-1
 166 392 l 1,28,-1
 233 392 l 1,29,-1
 145 -23 l 2,30,31
 141 -41 141 -41 131.5 -57 c 128,-1,32
 122 -73 122 -73 108.5 -84 c 128,-1,33
 95 -95 95 -95 79.5 -101.5 c 128,-1,34
 64 -108 64 -108 49 -108 c 0,35,36
 32 -108 32 -108 16 -103 c 128,-1,37
 0 -98 0 -98 -11 -85 c 1,38,-1
 -64 -144 l 1,39,40
 -45 -166 -45 -166 -17.5 -176 c 128,-1,41
 10 -186 10 -186 42 -186 c 0,0,1
EndSplineSet
EndChar

StartChar: Aringacute
Encoding: 506 506 328
Width: 652
GlyphClass: 1
Flags: W
LayerCount: 2
Fore
SplineSet
-47 0 m 1,0,-1
 49 0 l 1,1,-1
 170 208 l 1,2,-1
 448 208 l 1,3,-1
 482 0 l 1,4,-1
 578 0 l 1,5,-1
 455 710 l 1,6,-1
 378 710 l 1,7,-1
 -47 0 l 1,0,-1
202 278 m 1,8,-1
 395 606 l 1,9,-1
 444 278 l 1,10,-1
 202 278 l 1,8,-1
601 964 m 1,11,-1
 508 964 l 1,12,-1
 412 812 l 1,13,-1
 466 812 l 1,14,-1
 601 964 l 1,11,-1
349 761 m 0,15,16
 349 735 349 735 366.5 720 c 128,-1,17
 384 705 384 705 414 705 c 0,18,19
 455 705 455 705 482 728 c 128,-1,20
 509 751 509 751 509 787 c 0,21,22
 509 813 509 813 492 828 c 128,-1,23
 475 843 475 843 444 843 c 0,24,25
 405 843 405 843 377 820.5 c 128,-1,26
 349 798 349 798 349 761 c 0,15,16
437 812 m 0,27,28
 451 812 451 812 460 803.5 c 128,-1,29
 469 795 469 795 469 781 c 0,30,31
 469 761 469 761 453.5 748.5 c 128,-1,32
 438 736 438 736 421 736 c 0,33,34
 407 736 407 736 398.5 745 c 128,-1,35
 390 754 390 754 390 767 c 0,36,37
 390 787 390 787 404.5 799.5 c 128,-1,38
 419 812 419 812 437 812 c 0,27,28
EndSplineSet
EndChar

StartChar: uni0237
Encoding: 567 567 370
Width: 226
GlyphClass: 1
Flags: W
LayerCount: 2
Fore
SplineSet
-103 -186 m 0,0,1
 -72 -186 -72 -186 -41 -173.5 c 128,-1,2
 -10 -161 -10 -161 16.5 -138.5 c 128,-1,3
 43 -116 43 -116 62 -85 c 128,-1,4
 81 -54 81 -54 89 -17 c 2,5,-1
 204 522 l 1,6,-1
 116 522 l 1,7,-1
 0 -23 l 2,8,9
 -4 -41 -4 -41 -13.5 -57 c 128,-1,10
 -23 -73 -23 -73 -36.5 -84 c 128,-1,11
 -50 -95 -50 -95 -65.5 -101.5 c 128,-1,12
 -81 -108 -81 -108 -96 -108 c 0,13,14
 -113 -108 -113 -108 -129 -103 c 128,-1,15
 -145 -98 -145 -98 -156 -85 c 1,16,-1
 -209 -144 l 1,17,18
 -190 -166 -190 -166 -163 -176 c 128,-1,19
 -136 -186 -136 -186 -103 -186 c 0,0,1
EndSplineSet
EndChar

StartChar: uni0259
Encoding: 601 601 371
Width: 567
GlyphClass: 1
Flags: W
LayerCount: 2
Fore
SplineSet
213 -10 m 0,0,1
 278 -10 278 -10 335.5 16.5 c 128,-1,2
 393 43 393 43 435.5 87.5 c 128,-1,3
 478 132 478 132 503 190 c 128,-1,4
 528 248 528 248 528 311 c 0,5,6
 528 357 528 357 514.5 397 c 128,-1,7
 501 437 501 437 475 467 c 128,-1,8
 449 497 449 497 411.5 514 c 128,-1,9
 374 531 374 531 326 531 c 0,10,11
 288 531 288 531 251.5 521 c 128,-1,12
 215 511 215 511 182.5 493.5 c 128,-1,13
 150 476 150 476 123.5 452 c 128,-1,14
 97 428 97 428 79 399 c 1,15,-1
 150 378 l 1,16,17
 162 397 162 397 180 413 c 128,-1,18
 198 429 198 429 219 440 c 128,-1,19
 240 451 240 451 263 457.5 c 128,-1,20
 286 464 286 464 308 464 c 0,21,22
 336 464 336 464 359.5 454 c 128,-1,23
 383 444 383 444 400 425 c 128,-1,24
 417 406 417 406 426.5 380 c 128,-1,25
 436 354 436 354 436 322 c 0,26,27
 436 314 436 314 435.5 306 c 128,-1,28
 435 298 435 298 434 290 c 1,29,-1
 26 290 l 1,30,31
 17 269 17 269 13.5 244 c 128,-1,32
 10 219 10 219 10 197 c 0,33,34
 10 153 10 153 23.5 115 c 128,-1,35
 37 77 37 77 63 49.5 c 128,-1,36
 89 22 89 22 127 6 c 128,-1,37
 165 -10 165 -10 213 -10 c 0,0,1
228 56 m 0,38,39
 199 56 199 56 174.5 66.5 c 128,-1,40
 150 77 150 77 132.5 96 c 128,-1,41
 115 115 115 115 105 141.5 c 128,-1,42
 95 168 95 168 95 200 c 0,43,44
 95 208 95 208 95 216 c 128,-1,45
 95 224 95 224 97 232 c 1,46,-1
 424 232 l 1,47,48
 414 194 414 194 394 161.5 c 128,-1,49
 374 129 374 129 348 105.5 c 128,-1,50
 322 82 322 82 291 69 c 128,-1,51
 260 56 260 56 228 56 c 0,38,39
EndSplineSet
EndChar

StartChar: uni02BC
Encoding: 700 700 375
Width: 206
GlyphClass: 1
Flags: W
LayerCount: 2
Fore
SplineSet
284 730 m 1,0,-1
 191 730 l 1,1,-1
 95 570 l 1,2,-1
 149 570 l 1,3,-1
 284 730 l 1,0,-1
EndSplineSet
EndChar

StartChar: uni02BE
Encoding: 702 702 376
Width: 134
GlyphClass: 1
Flags: W
LayerCount: 2
Fore
SplineSet
99 579 m 1,0,1
 117 579 117 579 134 587 c 128,-1,2
 151 595 151 595 163.5 610 c 128,-1,3
 176 625 176 625 183.5 645.5 c 128,-1,4
 191 666 191 666 191 690 c 0,5,6
 191 719 191 719 179.5 736 c 128,-1,7
 168 753 168 753 146 753 c 1,8,-1
 135 713 l 1,9,10
 143 713 143 713 148 705 c 128,-1,11
 153 697 153 697 153 682 c 0,12,13
 153 653 153 653 138.5 635.5 c 128,-1,14
 124 618 124 618 110 618 c 1,15,-1
 99 579 l 1,0,1
EndSplineSet
EndChar

StartChar: uni02BF
Encoding: 703 703 377
Width: 133
GlyphClass: 1
Flags: W
LayerCount: 2
Fore
SplineSet
171 618 m 1,0,1
 163 618 163 618 158.5 627 c 128,-1,2
 154 636 154 636 154 650 c 0,3,4
 154 679 154 679 167 696 c 128,-1,5
 180 713 180 713 195 713 c 1,6,-1
 207 753 l 1,7,8
 189 753 189 753 172 744.5 c 128,-1,9
 155 736 155 736 142.5 721 c 128,-1,10
 130 706 130 706 122.5 685.5 c 128,-1,11
 115 665 115 665 115 641 c 0,12,13
 115 613 115 613 127 596 c 128,-1,14
 139 579 139 579 160 579 c 1,15,-1
 171 618 l 1,0,1
EndSplineSet
EndChar

StartChar: uni02C8
Encoding: 712 712 380
Width: 189
GlyphClass: 1
Flags: W
LayerCount: 2
Fore
SplineSet
115 775 m 1,0,-1
 115 372 l 1,1,-1
 191 372 l 1,2,-1
 191 775 l 1,3,-1
 115 775 l 1,0,-1
EndSplineSet
EndChar

StartChar: uni02C9
Encoding: 713 713 381
Width: 379
GlyphClass: 1
Flags: W
LayerCount: 2
Fore
SplineSet
405 654 m 1,0,-1
 419 712 l 1,1,-1
 154 712 l 1,2,-1
 140 654 l 1,3,-1
 405 654 l 1,0,-1
EndSplineSet
EndChar

StartChar: uni02CB
Encoding: 715 715 382
Width: 203
GlyphClass: 1
Flags: W
LayerCount: 2
Fore
SplineSet
174 501 m 1,0,-1
 233 718 l 1,1,-1
 164 718 l 1,2,-1
 127 501 l 1,3,-1
 174 501 l 1,0,-1
EndSplineSet
EndChar

StartChar: uni02CC
Encoding: 716 716 383
Width: 190
GlyphClass: 1
Flags: W
LayerCount: 2
Fore
SplineSet
9 273 m 1,0,-1
 9 -130 l 1,1,-1
 85 -130 l 1,2,-1
 85 273 l 1,3,-1
 9 273 l 1,0,-1
EndSplineSet
EndChar

StartChar: hungarumlaut
Encoding: 733 733 389
Width: 338
GlyphClass: 1
Flags: W
LayerCount: 2
Fore
SplineSet
419 730 m 1,0,-1
 331 730 l 1,1,-1
 232 590 l 1,2,-1
 281 590 l 1,3,-1
 419 730 l 1,0,-1
283 730 m 1,4,-1
 195 730 l 1,5,-1
 96 590 l 1,6,-1
 145 590 l 1,7,-1
 283 730 l 1,4,-1
EndSplineSet
EndChar

StartChar: gravecomb
Encoding: 768 768 390
Width: 232
GlyphClass: 1
Flags: W
LayerCount: 2
Fore
SplineSet
77 760 m 1,0,-1
 178 600 l 1,1,-1
 227 600 l 1,2,-1
 165 760 l 1,3,-1
 77 760 l 1,0,-1
EndSplineSet
EndChar

StartChar: acutecomb
Encoding: 769 769 391
Width: 232
GlyphClass: 1
Flags: W
LayerCount: 2
Fore
SplineSet
249 760 m 1,0,-1
 156 760 l 1,1,-1
 60 600 l 1,2,-1
 114 600 l 1,3,-1
 249 760 l 1,0,-1
EndSplineSet
EndChar

StartChar: uni0302
Encoding: 770 770 392
Width: 342
GlyphClass: 1
Flags: W
LayerCount: 2
Fore
SplineSet
72 600 m 1,0,-1
 121 600 l 1,1,-1
 235 690 l 1,2,-1
 310 600 l 1,3,-1
 359 600 l 1,4,-1
 290 740 l 1,5,-1
 201 740 l 1,6,-1
 72 600 l 1,0,-1
EndSplineSet
EndChar

StartChar: tildecomb
Encoding: 771 771 393
Width: 423
GlyphClass: 1
Flags: W
LayerCount: 2
Fore
SplineSet
349 627 m 0,0,1
 380 627 380 627 402.5 641 c 128,-1,2
 425 655 425 655 440.5 673 c 128,-1,3
 456 691 456 691 464 707.5 c 128,-1,4
 472 724 472 724 473 730 c 1,5,-1
 422 730 l 1,6,7
 422 729 422 729 418.5 721 c 128,-1,8
 415 713 415 713 407.5 704 c 128,-1,9
 400 695 400 695 388 688 c 128,-1,10
 376 681 376 681 358 681 c 0,11,12
 341 681 341 681 328.5 687.5 c 128,-1,13
 316 694 316 694 304.5 702.5 c 128,-1,14
 293 711 293 711 279 717.5 c 128,-1,15
 265 724 265 724 245 724 c 0,16,17
 217 724 217 724 195.5 710.5 c 128,-1,18
 174 697 174 697 159 679 c 128,-1,19
 144 661 144 661 136.5 644 c 128,-1,20
 129 627 129 627 127 621 c 1,21,-1
 179 621 l 1,22,23
 179 623 179 623 182 630.5 c 128,-1,24
 185 638 185 638 191.5 646.5 c 128,-1,25
 198 655 198 655 208.5 662 c 128,-1,26
 219 669 219 669 235 669 c 0,27,28
 250 669 250 669 262 662.5 c 128,-1,29
 274 656 274 656 286 648 c 128,-1,30
 298 640 298 640 313 633.5 c 128,-1,31
 328 627 328 627 349 627 c 0,0,1
EndSplineSet
EndChar

StartChar: uni0304
Encoding: 772 772 394
Width: 379
GlyphClass: 1
Flags: W
LayerCount: 2
Fore
SplineSet
411 652 m 1,0,-1
 424 710 l 1,1,-1
 145 710 l 1,2,-1
 133 652 l 1,3,-1
 411 652 l 1,0,-1
EndSplineSet
EndChar

StartChar: uni0306
Encoding: 774 774 395
Width: 310
GlyphClass: 1
Flags: W
LayerCount: 2
Fore
SplineSet
241 662 m 0,0,1
 222 662 222 662 210.5 677 c 128,-1,2
 199 692 199 692 199 713 c 0,3,4
 199 718 199 718 199.5 721.5 c 128,-1,5
 200 725 200 725 201 730 c 1,6,-1
 150 730 l 1,7,8
 148 723 148 723 147.5 717 c 128,-1,9
 147 711 147 711 147 704 c 0,10,11
 147 666 147 666 170 642.5 c 128,-1,12
 193 619 193 619 232 619 c 0,13,14
 254 619 254 619 275 627.5 c 128,-1,15
 296 636 296 636 313.5 651 c 128,-1,16
 331 666 331 666 343 686 c 128,-1,17
 355 706 355 706 360 730 c 1,18,-1
 310 730 l 1,19,20
 301 701 301 701 281 681.5 c 128,-1,21
 261 662 261 662 241 662 c 0,0,1
EndSplineSet
EndChar

StartChar: uni0307
Encoding: 775 775 396
Width: 180
GlyphClass: 1
Flags: W
LayerCount: 2
Fore
SplineSet
99 674 m 0,0,1
 94 651 94 651 107 634.5 c 128,-1,2
 120 618 120 618 143 618 c 0,3,4
 155 618 155 618 166 622.5 c 128,-1,5
 177 627 177 627 186.5 634.5 c 128,-1,6
 196 642 196 642 202.5 652 c 128,-1,7
 209 662 209 662 211 674 c 0,8,9
 216 697 216 697 203 713.5 c 128,-1,10
 190 730 190 730 167 730 c 0,11,12
 155 730 155 730 144 725.5 c 128,-1,13
 133 721 133 721 124 713.5 c 128,-1,14
 115 706 115 706 108.5 696 c 128,-1,15
 102 686 102 686 99 674 c 0,0,1
EndSplineSet
EndChar

StartChar: uni0308
Encoding: 776 776 397
Width: 368
GlyphClass: 1
Flags: W
LayerCount: 2
Fore
SplineSet
137 618 m 0,0,1
 149 618 149 618 160 622.5 c 128,-1,2
 171 627 171 627 180.5 634.5 c 128,-1,3
 190 642 190 642 196.5 652 c 128,-1,4
 203 662 203 662 205 674 c 0,5,6
 210 697 210 697 197 713.5 c 128,-1,7
 184 730 184 730 161 730 c 0,8,9
 149 730 149 730 138 725.5 c 128,-1,10
 127 721 127 721 118 713.5 c 128,-1,11
 109 706 109 706 102.5 696 c 128,-1,12
 96 686 96 686 93 674 c 0,13,14
 88 651 88 651 101 634.5 c 128,-1,15
 114 618 114 618 137 618 c 0,0,1
338 618 m 0,16,17
 350 618 350 618 361 622.5 c 128,-1,18
 372 627 372 627 381.5 634.5 c 128,-1,19
 391 642 391 642 397.5 652 c 128,-1,20
 404 662 404 662 406 674 c 0,21,22
 411 697 411 697 398 713.5 c 128,-1,23
 385 730 385 730 362 730 c 0,24,25
 350 730 350 730 339 725.5 c 128,-1,26
 328 721 328 721 319 713.5 c 128,-1,27
 310 706 310 706 303.5 696 c 128,-1,28
 297 686 297 686 294 674 c 0,29,30
 289 651 289 651 302 634.5 c 128,-1,31
 315 618 315 618 338 618 c 0,16,17
EndSplineSet
EndChar

StartChar: hookabovecomb
Encoding: 777 777 398
Width: 253
GlyphClass: 1
Flags: W
LayerCount: 2
Fore
SplineSet
169 696 m 1,0,1
 189 709 189 709 200 713.5 c 128,-1,2
 211 718 211 718 224 718 c 0,3,4
 236 718 236 718 240.5 710 c 128,-1,5
 245 702 245 702 240 691 c 0,6,7
 235 679 235 679 225 667.5 c 128,-1,8
 215 656 215 656 191 640 c 1,9,-1
 205 611 l 1,10,11
 244 635 244 635 266 657 c 128,-1,12
 288 679 288 679 295 699 c 0,13,14
 304 724 304 724 295 744.5 c 128,-1,15
 286 765 286 765 250 765 c 0,16,17
 224 765 224 765 199 755.5 c 128,-1,18
 174 746 174 746 149 729 c 1,19,-1
 169 696 l 1,0,1
EndSplineSet
EndChar

StartChar: uni030A
Encoding: 778 778 399
Width: 258
GlyphClass: 1
Flags: W
LayerCount: 2
Fore
SplineSet
134 648 m 0,0,1
 134 622 134 622 151.5 607 c 128,-1,2
 169 592 169 592 199 592 c 0,3,4
 240 592 240 592 267 615 c 128,-1,5
 294 638 294 638 294 674 c 0,6,7
 294 700 294 700 277 715 c 128,-1,8
 260 730 260 730 229 730 c 0,9,10
 190 730 190 730 162 707.5 c 128,-1,11
 134 685 134 685 134 648 c 0,0,1
222 699 m 0,12,13
 236 699 236 699 245 690.5 c 128,-1,14
 254 682 254 682 254 668 c 0,15,16
 254 648 254 648 238.5 635.5 c 128,-1,17
 223 623 223 623 206 623 c 0,18,19
 192 623 192 623 183.5 632 c 128,-1,20
 175 641 175 641 175 654 c 0,21,22
 175 674 175 674 189.5 686.5 c 128,-1,23
 204 699 204 699 222 699 c 0,12,13
EndSplineSet
EndChar

StartChar: uni030B
Encoding: 779 779 400
Width: 338
GlyphClass: 1
Flags: W
LayerCount: 2
Fore
SplineSet
463 760 m 1,0,-1
 370 760 l 1,1,-1
 257 600 l 1,2,-1
 311 600 l 1,3,-1
 463 760 l 1,0,-1
288 760 m 1,4,-1
 195 760 l 1,5,-1
 82 600 l 1,6,-1
 136 600 l 1,7,-1
 288 760 l 1,4,-1
EndSplineSet
EndChar

StartChar: uni030C
Encoding: 780 780 401
Width: 342
GlyphClass: 1
Flags: W
LayerCount: 2
Fore
SplineSet
102 740 m 1,0,-1
 171 600 l 1,1,-1
 260 600 l 1,2,-1
 389 740 l 1,3,-1
 340 740 l 1,4,-1
 227 650 l 1,5,-1
 151 740 l 1,6,-1
 102 740 l 1,0,-1
EndSplineSet
EndChar

StartChar: uni030F
Encoding: 783 783 402
Width: 338
GlyphClass: 1
Flags: W
LayerCount: 2
Fore
SplineSet
210 760 m 1,0,-1
 294 600 l 1,1,-1
 343 600 l 1,2,-1
 298 760 l 1,3,-1
 210 760 l 1,0,-1
35 760 m 1,4,-1
 119 600 l 1,5,-1
 168 600 l 1,6,-1
 123 760 l 1,7,-1
 35 760 l 1,4,-1
EndSplineSet
EndChar

StartChar: uni0311
Encoding: 785 785 403
Width: 309
GlyphClass: 1
Flags: W
LayerCount: 2
Fore
SplineSet
126 619 m 1,0,-1
 176 619 l 1,1,2
 183 648 183 648 199 667.5 c 128,-1,3
 215 687 215 687 247 687 c 0,4,5
 269 687 269 687 278.5 676.5 c 128,-1,6
 288 666 288 666 288 644 c 0,7,8
 288 638 288 638 287.5 632 c 128,-1,9
 287 626 287 626 286 619 c 1,10,-1
 335 619 l 1,11,12
 337 625 337 625 337.5 631 c 128,-1,13
 338 637 338 637 338 643 c 0,14,15
 338 679 338 679 314.5 704.5 c 128,-1,16
 291 730 291 730 253 730 c 0,17,18
 231 730 231 730 210.5 721.5 c 128,-1,19
 190 713 190 713 172.5 698 c 128,-1,20
 155 683 155 683 143 663 c 128,-1,21
 131 643 131 643 126 619 c 1,0,-1
EndSplineSet
EndChar

StartChar: uni0312
Encoding: 786 786 404
Width: 168
GlyphClass: 1
Flags: W
LayerCount: 2
Fore
SplineSet
72 588 m 1,0,-1
 160 588 l 1,1,-1
 259 728 l 1,2,-1
 210 728 l 1,3,-1
 72 588 l 1,0,-1
EndSplineSet
EndChar

StartChar: uni031B
Encoding: 795 795 405
Width: 267
GlyphClass: 1
Flags: W
LayerCount: 2
Fore
SplineSet
99 493 m 1,0,1
 121 493 121 493 142 496 c 128,-1,2
 163 499 163 499 181.5 504.5 c 128,-1,3
 200 510 200 510 216 518.5 c 128,-1,4
 232 527 232 527 244 539 c 0,5,6
 256 550 256 550 264.5 562.5 c 128,-1,7
 273 575 273 575 279 587.5 c 128,-1,8
 285 600 285 600 289.5 613.5 c 128,-1,9
 294 627 294 627 298 641 c 1,10,-1
 226 641 l 1,11,12
 221 621 221 621 215.5 607 c 128,-1,13
 210 593 210 593 198 580 c 0,14,15
 187 568 187 568 167.5 562.5 c 128,-1,16
 148 557 148 557 113 557 c 1,17,-1
 99 493 l 1,0,1
EndSplineSet
EndChar

StartChar: dotbelowcomb
Encoding: 803 803 406
Width: 180
GlyphClass: 1
Flags: W
LayerCount: 2
Fore
SplineSet
-66 -136 m 0,0,1
 -71 -159 -71 -159 -58 -175.5 c 128,-1,2
 -45 -192 -45 -192 -22 -192 c 0,3,4
 -10 -192 -10 -192 1 -187.5 c 128,-1,5
 12 -183 12 -183 21.5 -175.5 c 128,-1,6
 31 -168 31 -168 37.5 -158 c 128,-1,7
 44 -148 44 -148 46 -136 c 0,8,9
 51 -113 51 -113 38 -96.5 c 128,-1,10
 25 -80 25 -80 2 -80 c 0,11,12
 -10 -80 -10 -80 -21 -84.5 c 128,-1,13
 -32 -89 -32 -89 -41 -96.5 c 128,-1,14
 -50 -104 -50 -104 -56.5 -114 c 128,-1,15
 -63 -124 -63 -124 -66 -136 c 0,0,1
EndSplineSet
EndChar

StartChar: uni0324
Encoding: 804 804 407
Width: 368
GlyphClass: 1
Flags: W
LayerCount: 2
Fore
SplineSet
51 -192 m 0,0,1
 63 -192 63 -192 74 -187.5 c 128,-1,2
 85 -183 85 -183 94.5 -175.5 c 128,-1,3
 104 -168 104 -168 110.5 -158 c 128,-1,4
 117 -148 117 -148 119 -136 c 0,5,6
 124 -113 124 -113 111 -96.5 c 128,-1,7
 98 -80 98 -80 75 -80 c 0,8,9
 63 -80 63 -80 52 -84.5 c 128,-1,10
 41 -89 41 -89 32 -96.5 c 128,-1,11
 23 -104 23 -104 16.5 -114 c 128,-1,12
 10 -124 10 -124 7 -136 c 0,13,14
 2 -159 2 -159 15 -175.5 c 128,-1,15
 28 -192 28 -192 51 -192 c 0,0,1
252 -192 m 0,16,17
 264 -192 264 -192 275 -187.5 c 128,-1,18
 286 -183 286 -183 295.5 -175.5 c 128,-1,19
 305 -168 305 -168 311.5 -158 c 128,-1,20
 318 -148 318 -148 320 -136 c 0,21,22
 325 -113 325 -113 312 -96.5 c 128,-1,23
 299 -80 299 -80 276 -80 c 0,24,25
 264 -80 264 -80 253 -84.5 c 128,-1,26
 242 -89 242 -89 233 -96.5 c 128,-1,27
 224 -104 224 -104 217.5 -114 c 128,-1,28
 211 -124 211 -124 208 -136 c 0,29,30
 203 -159 203 -159 216 -175.5 c 128,-1,31
 229 -192 229 -192 252 -192 c 0,16,17
EndSplineSet
EndChar

StartChar: uni0326
Encoding: 806 806 408
Width: 168
GlyphClass: 1
Flags: W
LayerCount: 2
Fore
SplineSet
56 -241 m 1,0,-1
 167 -48 l 1,1,-1
 84 -48 l 1,2,-1
 13 -241 l 1,3,-1
 56 -241 l 1,0,-1
EndSplineSet
EndChar

StartChar: uni0327
Encoding: 807 807 409
Width: 283
GlyphClass: 1
Flags: W
LayerCount: 2
Fore
SplineSet
-44 -166 m 1,0,1
 -21 -177 -21 -177 1 -181 c 128,-1,2
 23 -185 23 -185 48 -185 c 0,3,4
 69 -185 69 -185 91 -181 c 128,-1,5
 113 -177 113 -177 131 -166.5 c 128,-1,6
 149 -156 149 -156 160.5 -139.5 c 128,-1,7
 172 -123 172 -123 172 -97 c 0,8,9
 172 -68 172 -68 153.5 -57 c 128,-1,10
 135 -46 135 -46 109 -46 c 0,11,12
 100 -46 100 -46 91 -47 c 128,-1,13
 82 -48 82 -48 74 -51 c 1,14,-1
 119 4 l 1,15,-1
 83 18 l 1,16,-1
 5 -91 l 1,17,18
 25 -85 25 -85 44.5 -81.5 c 128,-1,19
 64 -78 64 -78 84 -78 c 0,20,21
 92 -78 92 -78 99.5 -79 c 128,-1,22
 107 -80 107 -80 113 -83 c 128,-1,23
 119 -86 119 -86 122.5 -91.5 c 128,-1,24
 126 -97 126 -97 126 -106 c 0,25,26
 126 -119 126 -119 120 -127.5 c 128,-1,27
 114 -136 114 -136 105 -140.5 c 128,-1,28
 96 -145 96 -145 85 -146.5 c 128,-1,29
 74 -148 74 -148 63 -148 c 0,30,31
 54 -148 54 -148 43.5 -147 c 128,-1,32
 33 -146 33 -146 22.5 -143.5 c 128,-1,33
 12 -141 12 -141 2 -137.5 c 128,-1,34
 -8 -134 -8 -134 -16 -129 c 1,35,36
 -24 -138 -24 -138 -30.5 -147 c 128,-1,37
 -37 -156 -37 -156 -44 -166 c 1,0,1
EndSplineSet
EndChar

StartChar: uni0328
Encoding: 808 808 410
Width: 213
GlyphClass: 1
Flags: W
LayerCount: 2
Fore
SplineSet
-29 -123 m 0,0,1
 -29 -145 -29 -145 -14.5 -164.5 c 128,-1,2
 0 -184 0 -184 41 -189 c 1,3,-1
 74 -133 l 1,4,5
 53 -131 53 -131 41 -124.5 c 128,-1,6
 29 -118 29 -118 29 -103 c 0,7,8
 29 -83 29 -83 47.5 -59.5 c 128,-1,9
 66 -36 66 -36 108 0 c 1,10,-1
 100 18 l 1,11,-1
 75 18 l 1,12,13
 21 -19 21 -19 -4 -53 c 128,-1,14
 -29 -87 -29 -87 -29 -123 c 0,0,1
EndSplineSet
EndChar

StartChar: uni032E
Encoding: 814 814 411
Width: 271
GlyphClass: 1
Flags: W
LayerCount: 2
Fore
SplineSet
41 -166 m 0,0,1
 61 -166 61 -166 80.5 -157.5 c 128,-1,2
 100 -149 100 -149 116.5 -134 c 128,-1,3
 133 -119 133 -119 145.5 -99 c 128,-1,4
 158 -79 158 -79 164 -55 c 1,5,-1
 117 -55 l 1,6,7
 107 -84 107 -84 88.5 -103.5 c 128,-1,8
 70 -123 70 -123 52 -123 c 0,9,10
 33 -123 33 -123 23.5 -102.5 c 128,-1,11
 14 -82 14 -82 21 -55 c 1,12,-1
 -27 -55 l 1,13,14
 -39 -103 -39 -103 -19.5 -134.5 c 128,-1,15
 0 -166 0 -166 41 -166 c 0,0,1
EndSplineSet
EndChar

StartChar: uni0331
Encoding: 817 817 412
Width: 367
GlyphClass: 1
Flags: W
LayerCount: 2
Fore
SplineSet
229 -143 m 1,0,-1
 243 -85 l 1,1,-1
 -22 -85 l 1,2,-1
 -36 -143 l 1,3,-1
 229 -143 l 1,0,-1
EndSplineSet
EndChar

StartChar: uni0335
Encoding: 821 821 413
Width: 328
GlyphClass: 1
Flags: W
LayerCount: 2
Fore
SplineSet
278 272 m 1,0,-1
 292 328 l 1,1,-1
 66 328 l 1,2,-1
 52 272 l 1,3,-1
 278 272 l 1,0,-1
EndSplineSet
EndChar

StartChar: tonos
Encoding: 900 900 415
Width: 182
GlyphClass: 1
Flags: W
LayerCount: 2
Fore
SplineSet
190 804 m 1,0,-1
 114 579 l 1,1,-1
 170 570 l 1,2,-1
 261 789 l 1,3,-1
 190 804 l 1,0,-1
EndSplineSet
EndChar

StartChar: dieresistonos
Encoding: 901 901 416
Width: 449
GlyphClass: 1
Flags: W
LayerCount: 2
Fore
SplineSet
110 656 m 0,0,1
 102 627 102 627 117.5 605 c 128,-1,2
 133 583 133 583 163 583 c 0,3,4
 189 583 189 583 209 599.5 c 128,-1,5
 229 616 229 616 234 640 c 0,6,7
 241 671 241 671 226 691.5 c 128,-1,8
 211 712 211 712 182 712 c 0,9,10
 156 712 156 712 135.5 697 c 128,-1,11
 115 682 115 682 110 656 c 0,0,1
392 656 m 0,12,13
 385 627 385 627 401 605 c 128,-1,14
 417 583 417 583 446 583 c 0,15,16
 472 583 472 583 492 599.5 c 128,-1,17
 512 616 512 616 517 640 c 0,18,19
 524 671 524 671 508.5 691.5 c 128,-1,20
 493 712 493 712 464 712 c 0,21,22
 439 712 439 712 418 697 c 128,-1,23
 397 682 397 682 392 656 c 0,12,13
336 816 m 1,24,-1
 260 591 l 1,25,-1
 316 582 l 1,26,-1
 407 801 l 1,27,-1
 336 816 l 1,24,-1
EndSplineSet
EndChar

StartChar: Gamma
Encoding: 915 915 428
Width: 489
GlyphClass: 1
Flags: W
LayerCount: 2
Fore
SplineSet
160 714 m 1,0,-1
 619 714 l 1,1,-1
 598 635 l 1,2,-1
 228 635 l 1,3,-1
 61 10 l 1,4,-1
 -28 10 l 1,5,-1
 160 714 l 1,0,-1
EndSplineSet
EndChar

StartChar: uni0394
Encoding: 916 916 429
Width: 643
GlyphClass: 1
Flags: W
LayerCount: 2
Fore
SplineSet
-44 0 m 1,0,-1
 570 0 l 1,1,-1
 573 21 l 1,2,-1
 484 714 l 1,3,-1
 363 714 l 1,4,-1
 -40 21 l 1,5,-1
 -44 0 l 1,0,-1
90 82 m 1,6,-1
 281 400 l 1,7,-1
 404 625 l 1,8,-1
 408 625 l 1,9,-1
 431 400 l 1,10,-1
 471 82 l 1,11,-1
 90 82 l 1,6,-1
EndSplineSet
EndChar

StartChar: Eta
Encoding: 919 919 432
Width: 713
GlyphClass: 1
Flags: W
LayerCount: 2
Fore
SplineSet
-7 0 m 1,0,-1
 82 0 l 1,1,-1
 150 320 l 1,2,-1
 512 320 l 1,3,-1
 444 0 l 1,4,-1
 533 0 l 1,5,-1
 683 704 l 1,6,-1
 594 704 l 1,7,-1
 529 400 l 1,8,-1
 167 400 l 1,9,-1
 232 704 l 1,10,-1
 143 704 l 1,11,-1
 -7 0 l 1,0,-1
EndSplineSet
EndChar

StartChar: Theta
Encoding: 920 920 433
Width: 721
GlyphClass: 1
Flags: W
LayerCount: 2
Fore
SplineSet
188 313 m 1,0,-1
 535 313 l 1,1,-1
 554 403 l 1,2,-1
 208 403 l 1,3,-1
 188 313 l 1,0,-1
293 -5 m 0,4,5
 370 -5 370 -5 442.5 31 c 128,-1,6
 515 67 515 67 570.5 126 c 128,-1,7
 626 185 626 185 659.5 261 c 128,-1,8
 693 337 693 337 693 416 c 0,9,10
 693 473 693 473 677 525.5 c 128,-1,11
 661 578 661 578 629.5 619 c 128,-1,12
 598 660 598 660 552 684.5 c 128,-1,13
 506 709 506 709 446 709 c 0,14,15
 369 709 369 709 296 673 c 128,-1,16
 223 637 223 637 167 578 c 128,-1,17
 111 519 111 519 77.5 442.5 c 128,-1,18
 44 366 44 366 44 286 c 0,19,20
 44 229 44 229 60.5 176.5 c 128,-1,21
 77 124 77 124 108.5 83.5 c 128,-1,22
 140 43 140 43 186.5 19 c 128,-1,23
 233 -5 233 -5 293 -5 c 0,4,5
310 75 m 0,24,25
 268 75 268 75 235 93 c 128,-1,26
 202 111 202 111 180 140.5 c 128,-1,27
 158 170 158 170 146.5 210 c 128,-1,28
 135 250 135 250 135 294 c 0,29,30
 135 353 135 353 158 412.5 c 128,-1,31
 181 472 181 472 220.5 520 c 128,-1,32
 260 568 260 568 313 598 c 128,-1,33
 366 628 366 628 427 628 c 0,34,35
 469 628 469 628 501.5 610 c 128,-1,36
 534 592 534 592 556.5 562.5 c 128,-1,37
 579 533 579 533 590.5 493 c 128,-1,38
 602 453 602 453 602 410 c 0,39,40
 602 351 602 351 579.5 291.5 c 128,-1,41
 557 232 557 232 517.5 184 c 128,-1,42
 478 136 478 136 424.5 105.5 c 128,-1,43
 371 75 371 75 310 75 c 0,24,25
EndSplineSet
EndChar

StartChar: Lambda
Encoding: 923 923 436
Width: 671
GlyphClass: 1
Flags: W
LayerCount: 2
Fore
SplineSet
-40 0 m 1,0,-1
 63 0 l 1,1,-1
 289 392 l 1,2,-1
 418 621 l 1,3,-1
 422 621 l 1,4,-1
 449 392 l 1,5,-1
 494 0 l 1,6,-1
 593 0 l 1,7,-1
 503 714 l 1,8,-1
 377 714 l 1,9,-1
 -40 0 l 1,0,-1
EndSplineSet
EndChar

StartChar: Xi
Encoding: 926 926 439
Width: 639
GlyphClass: 1
Flags: W
LayerCount: 2
Fore
SplineSet
11 0 m 1,0,-1
 510 0 l 1,1,-1
 529 82 l 1,2,-1
 30 82 l 1,3,-1
 11 0 l 1,0,-1
153 319 m 1,4,-1
 511 319 l 1,5,-1
 530 400 l 1,6,-1
 172 400 l 1,7,-1
 153 319 l 1,4,-1
155 632 m 1,8,-1
 654 632 l 1,9,-1
 672 715 l 1,10,-1
 172 715 l 1,11,-1
 155 632 l 1,8,-1
EndSplineSet
EndChar

StartChar: Pi
Encoding: 928 928 441
Width: 651
GlyphClass: 1
Flags: W
LayerCount: 2
Fore
SplineSet
23 0 m 1,0,-1
 121 0 l 1,1,-1
 265 632 l 1,2,-1
 558 632 l 1,3,-1
 414 0 l 1,4,-1
 511 0 l 1,5,-1
 673 715 l 1,6,-1
 185 715 l 1,7,-1
 23 0 l 1,0,-1
EndSplineSet
EndChar

StartChar: Sigma
Encoding: 931 931 443
Width: 558
GlyphClass: 1
Flags: W
LayerCount: 2
Fore
SplineSet
-9 0 m 1,0,-1
 456 0 l 1,1,-1
 475 82 l 1,2,-1
 145 82 l 1,3,-1
 423 365 l 1,4,-1
 271 632 l 1,5,-1
 575 632 l 1,6,-1
 593 715 l 1,7,-1
 157 715 l 1,8,-1
 146 657 l 1,9,-1
 317 363 l 1,10,-1
 3 58 l 1,11,-1
 -9 0 l 1,0,-1
EndSplineSet
EndChar

StartChar: Upsilon
Encoding: 933 933 445
Width: 629
GlyphClass: 1
Flags: W
LayerCount: 2
Fore
SplineSet
207 0 m 1,0,-1
 304 0 l 1,1,-1
 358 235 l 2,2,3
 374 303 374 303 406.5 361.5 c 128,-1,4
 439 420 439 420 482.5 471 c 128,-1,5
 526 522 526 522 577.5 568 c 128,-1,6
 629 614 629 614 683 658 c 1,7,-1
 621 719 l 1,8,9
 567 675 567 675 526.5 639.5 c 128,-1,10
 486 604 486 604 454.5 570 c 128,-1,11
 423 536 423 536 398.5 500 c 128,-1,12
 374 464 374 464 352 419 c 1,13,-1
 345 411 l 1,14,15
 343 455 343 455 335 491.5 c 128,-1,16
 327 528 327 528 311.5 562 c 128,-1,17
 296 596 296 596 271.5 632 c 128,-1,18
 247 668 247 668 211 712 c 1,19,-1
 132 663 l 1,20,21
 164 623 164 623 194.5 579 c 128,-1,22
 225 535 225 535 245.5 485 c 128,-1,23
 266 435 266 435 272.5 375.5 c 128,-1,24
 279 316 279 316 263 245 c 2,25,-1
 207 0 l 1,0,-1
EndSplineSet
EndChar

StartChar: Phi
Encoding: 934 934 446
Width: 732
GlyphClass: 1
Flags: W
LayerCount: 2
Fore
SplineSet
322 158 m 1,0,1
 277 158 277 158 242 172.5 c 128,-1,2
 207 187 207 187 185.5 212.5 c 128,-1,3
 164 238 164 238 156.5 273 c 128,-1,4
 149 308 149 308 158 350 c 0,5,6
 169 395 169 395 194 433.5 c 128,-1,7
 219 472 219 472 254 500 c 128,-1,8
 289 528 289 528 331.5 543.5 c 128,-1,9
 374 559 374 559 419 559 c 1,10,-1
 432 640 l 1,11,12
 366 640 366 640 306 620 c 128,-1,13
 246 600 246 600 198.5 564 c 128,-1,14
 151 528 151 528 117.5 477.5 c 128,-1,15
 84 427 84 427 70 366 c 0,16,17
 56 303 56 303 67 250 c 128,-1,18
 78 197 78 197 109.5 158.5 c 128,-1,19
 141 120 141 120 192 98.5 c 128,-1,20
 243 77 243 77 309 77 c 1,21,-1
 322 158 l 1,0,1
347 -30 m 1,22,-1
 523 745 l 1,23,-1
 431 745 l 1,24,-1
 256 -30 l 1,25,-1
 347 -30 l 1,22,-1
350 77 m 1,26,27
 416 77 416 77 475.5 97 c 128,-1,28
 535 117 535 117 582 153.5 c 128,-1,29
 629 190 629 190 662 240 c 128,-1,30
 695 290 695 290 709 350 c 0,31,32
 723 413 723 413 713 466.5 c 128,-1,33
 703 520 703 520 671.5 558.5 c 128,-1,34
 640 597 640 597 589.5 618.5 c 128,-1,35
 539 640 539 640 473 640 c 1,36,-1
 460 559 l 1,37,38
 505 559 505 559 539.5 545 c 128,-1,39
 574 531 574 531 595 505.5 c 128,-1,40
 616 480 616 480 623 444.5 c 128,-1,41
 630 409 630 409 620 366 c 0,42,43
 610 322 610 322 586 284 c 128,-1,44
 562 246 562 246 527.5 218 c 128,-1,45
 493 190 493 190 450.5 174 c 128,-1,46
 408 158 408 158 363 158 c 1,47,-1
 350 77 l 1,26,27
EndSplineSet
EndChar

StartChar: Psi
Encoding: 936 936 448
Width: 757
GlyphClass: 1
Flags: W
LayerCount: 2
Fore
SplineSet
275 0 m 1,0,-1
 367 0 l 1,1,-1
 530 714 l 1,2,-1
 437 714 l 1,3,-1
 275 0 l 1,0,-1
121 442 m 2,4,5
 108 385 108 385 113.5 337 c 128,-1,6
 119 289 119 289 145 254.5 c 128,-1,7
 171 220 171 220 218.5 200 c 128,-1,8
 266 180 266 180 337 180 c 1,9,-1
 345 257 l 1,10,11
 298 257 298 257 267 269 c 128,-1,12
 236 281 236 281 220 303 c 128,-1,13
 204 325 204 325 201 355.5 c 128,-1,14
 198 386 198 386 206 423 c 0,15,16
 210 438 210 438 215 457 c 128,-1,17
 220 476 220 476 225 497 c 128,-1,18
 230 518 230 518 235.5 540 c 128,-1,19
 241 562 241 562 245 583 c 0,20,21
 254 621 254 621 259.5 653.5 c 128,-1,22
 265 686 265 686 261 709 c 1,23,-1
 173 719 l 1,24,25
 173 697 173 697 170.5 676.5 c 128,-1,26
 168 656 168 656 165 638 c 128,-1,27
 162 620 162 620 158.5 603.5 c 128,-1,28
 155 587 155 587 151 571 c 2,29,-1
 121 442 l 2,4,5
744 562 m 2,30,31
 748 579 748 579 752.5 595.5 c 128,-1,32
 757 612 757 612 762.5 630 c 128,-1,33
 768 648 768 648 775 667.5 c 128,-1,34
 782 687 782 687 792 709 c 1,35,-1
 699 719 l 1,36,37
 693 708 693 708 687.5 694 c 128,-1,38
 682 680 682 680 677.5 664 c 128,-1,39
 673 648 673 648 669.5 632 c 128,-1,40
 666 616 666 616 663 600 c 0,41,42
 658 576 658 576 653 552.5 c 128,-1,43
 648 529 648 529 644 508 c 128,-1,44
 640 487 640 487 636.5 469.5 c 128,-1,45
 633 452 633 452 630 440 c 0,46,47
 620 401 620 401 601.5 367.5 c 128,-1,48
 583 334 583 334 555.5 309.5 c 128,-1,49
 528 285 528 285 491.5 271 c 128,-1,50
 455 257 455 257 408 257 c 1,51,-1
 392 180 l 1,52,53
 463 180 463 180 517.5 198.5 c 128,-1,54
 572 217 572 217 611.5 250.5 c 128,-1,55
 651 284 651 284 677 330 c 128,-1,56
 703 376 703 376 715 432 c 2,57,-1
 744 562 l 2,30,31
EndSplineSet
EndChar

StartChar: uni03A9
Encoding: 937 937 449
Width: 713
GlyphClass: 1
Flags: W
LayerCount: 2
Fore
SplineSet
-10 0 m 1,0,-1
 255 0 l 1,1,-1
 297 183 l 1,2,3
 259 194 259 194 233 215.5 c 128,-1,4
 207 237 207 237 192.5 266 c 128,-1,5
 178 295 178 295 175.5 330.5 c 128,-1,6
 173 366 173 366 182 407 c 0,7,8
 193 454 193 454 217 495.5 c 128,-1,9
 241 537 241 537 274.5 567.5 c 128,-1,10
 308 598 308 598 350 615.5 c 128,-1,11
 392 633 392 633 439 633 c 0,12,13
 484 633 484 633 519 615.5 c 128,-1,14
 554 598 554 598 576 568.5 c 128,-1,15
 598 539 598 539 605 499 c 128,-1,16
 612 459 612 459 602 414 c 0,17,18
 592 371 592 371 570 333.5 c 128,-1,19
 548 296 548 296 518.5 265.5 c 128,-1,20
 489 235 489 235 453 213.5 c 128,-1,21
 417 192 417 192 380 183 c 1,22,-1
 337 0 l 1,23,-1
 605 0 l 1,24,-1
 625 86 l 1,25,-1
 391 86 l 1,26,-1
 433 38 l 1,27,-1
 464 172 l 1,28,-1
 413 106 l 1,29,30
 466 119 466 119 513 148.5 c 128,-1,31
 560 178 560 178 598 219 c 128,-1,32
 636 260 636 260 662.5 309.5 c 128,-1,33
 689 359 689 359 700 413 c 0,34,35
 715 479 715 479 702 535.5 c 128,-1,36
 689 592 689 592 655 633.5 c 128,-1,37
 621 675 621 675 568 698.5 c 128,-1,38
 515 722 515 722 449 722 c 0,39,40
 384 722 384 722 324 699.5 c 128,-1,41
 264 677 264 677 215.5 636 c 128,-1,42
 167 595 167 595 132.5 538.5 c 128,-1,43
 98 482 98 482 84 416 c 0,44,45
 72 361 72 361 77.5 313.5 c 128,-1,46
 83 266 83 266 104 227 c 128,-1,47
 125 188 125 188 160.5 158.5 c 128,-1,48
 196 129 196 129 244 111 c 1,49,-1
 211 172 l 1,50,-1
 181 38 l 1,51,-1
 247 86 l 1,52,-1
 13 86 l 1,53,-1
 -10 0 l 1,0,-1
EndSplineSet
EndChar

StartChar: Iotadieresis
Encoding: 938 938 450
Width: 327
GlyphClass: 1
Flags: W
LayerCount: 2
Fore
SplineSet
20 0 m 1,0,-1
 109 0 l 1,1,-1
 259 703 l 1,2,-1
 170 703 l 1,3,-1
 20 0 l 1,0,-1
266 855 m 256,4,5
 261 832 261 832 271 815.5 c 128,-1,6
 281 799 281 799 300 799 c 0,7,8
 320 799 320 799 336.5 815.5 c 128,-1,9
 353 832 353 832 358 855 c 256,10,11
 363 878 363 878 353.5 894 c 128,-1,12
 344 910 344 910 324 910 c 0,13,14
 305 910 305 910 288 894 c 128,-1,15
 271 878 271 878 266 855 c 256,4,5
133 855 m 0,16,17
 128 832 128 832 137.5 815.5 c 128,-1,18
 147 799 147 799 167 799 c 0,19,20
 186 799 186 799 203 815.5 c 128,-1,21
 220 832 220 832 225 855 c 256,22,23
 230 878 230 878 220 894 c 128,-1,24
 210 910 210 910 190 910 c 0,25,26
 171 910 171 910 154 894 c 128,-1,27
 137 878 137 878 133 855 c 0,16,17
EndSplineSet
EndChar

StartChar: alphatonos
Encoding: 940 940 452
Width: 650
GlyphClass: 1
Flags: W
LayerCount: 2
Fore
SplineSet
415 250 m 2,0,1
 403 227 403 227 387 197 c 128,-1,2
 371 167 371 167 348 141 c 128,-1,3
 325 115 325 115 295 97 c 128,-1,4
 265 79 265 79 225 79 c 0,5,6
 197 79 197 79 174 89 c 128,-1,7
 151 99 151 99 136 120.5 c 128,-1,8
 121 142 121 142 117.5 174.5 c 128,-1,9
 114 207 114 207 124 253 c 0,10,11
 135 303 135 303 155.5 339 c 128,-1,12
 176 375 176 375 201 398 c 128,-1,13
 226 421 226 421 252.5 432.5 c 128,-1,14
 279 444 279 444 303 444 c 0,15,16
 328 444 328 444 345.5 433 c 128,-1,17
 363 422 363 422 374.5 403.5 c 128,-1,18
 386 385 386 385 392.5 360.5 c 128,-1,19
 399 336 399 336 402 309 c 128,-1,20
 405 282 405 282 405 255 c 128,-1,21
 405 228 405 228 403 203 c 1,22,-1
 469 281 l 1,23,24
 472 328 472 328 465.5 372.5 c 128,-1,25
 459 417 459 417 440.5 451.5 c 128,-1,26
 422 486 422 486 390.5 507 c 128,-1,27
 359 528 359 528 311 528 c 0,28,29
 266 528 266 528 223 507.5 c 128,-1,30
 180 487 180 487 144.5 451.5 c 128,-1,31
 109 416 109 416 82.5 366.5 c 128,-1,32
 56 317 56 317 43 259 c 256,33,34
 30 201 30 201 35 152 c 128,-1,35
 40 103 40 103 61 67.5 c 128,-1,36
 82 32 82 32 117.5 12 c 128,-1,37
 153 -8 153 -8 199 -8 c 0,38,39
 239 -8 239 -8 276.5 6 c 128,-1,40
 314 20 314 20 348 45.5 c 128,-1,41
 382 71 382 71 410.5 106 c 128,-1,42
 439 141 439 141 462 182 c 2,43,-1
 646 520 l 1,44,-1
 559 520 l 1,45,-1
 415 250 l 2,0,1
551 71 m 1,46,-1
 528 84 l 2,47,48
 519 89 519 89 510 97.5 c 128,-1,49
 501 106 501 106 492.5 120.5 c 128,-1,50
 484 135 484 135 477 155 c 128,-1,51
 470 175 470 175 466 201 c 1,52,-1
 404 143 l 1,53,54
 402 115 402 115 406 92.5 c 128,-1,55
 410 70 410 70 419 53 c 128,-1,56
 428 36 428 36 441.5 23 c 128,-1,57
 455 10 455 10 471 1 c 2,58,-1
 489 -8 l 1,59,-1
 551 71 l 1,46,-1
405 809 m 1,60,-1
 329 582 l 1,61,-1
 385 573 l 1,62,-1
 476 793 l 1,63,-1
 405 809 l 1,60,-1
EndSplineSet
EndChar

StartChar: epsilontonos
Encoding: 941 941 453
Width: 487
GlyphClass: 1
Flags: W
LayerCount: 2
Fore
SplineSet
381 99 m 1,0,1
 335 87 335 87 301.5 82 c 128,-1,2
 268 77 268 77 234 77 c 0,3,4
 169 77 169 77 139.5 97.5 c 128,-1,5
 110 118 110 118 117 156 c 0,6,7
 122 176 122 176 136.5 189.5 c 128,-1,8
 151 203 151 203 172 211 c 128,-1,9
 193 219 193 219 219 222 c 128,-1,10
 245 225 245 225 273 225 c 2,11,-1
 321 225 l 1,12,-1
 340 310 l 1,13,-1
 286 310 l 2,14,15
 262 310 262 310 241.5 314.5 c 128,-1,16
 221 319 221 319 207.5 327 c 128,-1,17
 194 335 194 335 188 347 c 128,-1,18
 182 359 182 359 186 374 c 0,19,20
 190 388 190 388 199 400 c 128,-1,21
 208 412 208 412 224 421.5 c 128,-1,22
 240 431 240 431 264 436.5 c 128,-1,23
 288 442 288 442 321 442 c 0,24,25
 338 442 338 442 355.5 440.5 c 128,-1,26
 373 439 373 439 389 436 c 128,-1,27
 405 433 405 433 419 429.5 c 128,-1,28
 433 426 433 426 443 421 c 1,29,-1
 486 505 l 1,30,31
 455 522 455 522 415 525 c 128,-1,32
 375 528 375 528 340 528 c 0,33,34
 289 528 289 528 248.5 517.5 c 128,-1,35
 208 507 208 507 178.5 488.5 c 128,-1,36
 149 470 149 470 130.5 445.5 c 128,-1,37
 112 421 112 421 105 393 c 0,38,39
 101 372 101 372 103.5 353 c 128,-1,40
 106 334 106 334 113 318.5 c 128,-1,41
 120 303 120 303 130 292 c 128,-1,42
 140 281 140 281 151 276 c 1,43,-1
 148 274 l 1,44,45
 131 268 131 268 112.5 256 c 128,-1,46
 94 244 94 244 77 227 c 128,-1,47
 60 210 60 210 47 189 c 128,-1,48
 34 168 34 168 29 143 c 0,49,50
 20 108 20 108 31 79.5 c 128,-1,51
 42 51 42 51 68 31.5 c 128,-1,52
 94 12 94 12 133 2 c 128,-1,53
 172 -8 172 -8 218 -8 c 0,54,55
 240 -8 240 -8 263 -6.5 c 128,-1,56
 286 -5 286 -5 308.5 -2 c 128,-1,57
 331 1 331 1 350 4.5 c 128,-1,58
 369 8 369 8 381 12 c 1,59,-1
 381 99 l 1,0,1
406 852 m 1,60,-1
 330 625 l 1,61,-1
 386 616 l 1,62,-1
 477 836 l 1,63,-1
 406 852 l 1,60,-1
EndSplineSet
EndChar

StartChar: etatonos
Encoding: 942 942 454
Width: 595
GlyphClass: 1
Flags: W
LayerCount: 2
Fore
SplineSet
87 -2 m 1,0,1
 119 93 119 93 144 175 c 128,-1,2
 169 257 169 257 187 336 c 0,3,4
 195 372 195 372 197 401.5 c 128,-1,5
 199 431 199 431 192.5 454.5 c 128,-1,6
 186 478 186 478 171 496 c 128,-1,7
 156 514 156 514 131 528 c 1,8,-1
 69 451 l 1,9,10
 83 443 83 443 91 432.5 c 128,-1,11
 99 422 99 422 101.5 404.5 c 128,-1,12
 104 387 104 387 101 360 c 128,-1,13
 98 333 98 333 89 293 c 0,14,15
 72 229 72 229 49 153.5 c 128,-1,16
 26 78 26 78 0 2 c 1,17,-1
 87 -2 l 1,0,1
344 -208 m 1,18,19
 364 -165 364 -165 386.5 -106.5 c 128,-1,20
 409 -48 409 -48 430.5 15.5 c 128,-1,21
 452 79 452 79 470.5 141.5 c 128,-1,22
 489 204 489 204 501 255 c 0,23,24
 534 398 534 398 510.5 463 c 128,-1,25
 487 528 487 528 405 528 c 0,26,27
 371 528 371 528 335 515.5 c 128,-1,28
 299 503 299 503 266.5 482 c 128,-1,29
 234 461 234 461 208 432 c 128,-1,30
 182 403 182 403 168 369 c 1,31,-1
 151 200 l 1,32,33
 164 248 164 248 186 290.5 c 128,-1,34
 208 333 208 333 235.5 365.5 c 128,-1,35
 263 398 263 398 295 417 c 128,-1,36
 327 436 327 436 359 436 c 0,37,38
 408 436 408 436 420 389 c 128,-1,39
 432 342 432 342 408 233 c 0,40,41
 399 194 399 194 385 146 c 128,-1,42
 371 98 371 98 352 42.5 c 128,-1,43
 333 -13 333 -13 309 -75 c 128,-1,44
 285 -137 285 -137 256 -204 c 1,45,-1
 344 -208 l 1,18,19
444 809 m 1,46,-1
 368 582 l 1,47,-1
 424 573 l 1,48,-1
 515 793 l 1,49,-1
 444 809 l 1,46,-1
EndSplineSet
EndChar

StartChar: iotatonos
Encoding: 943 943 455
Width: 300
GlyphClass: 1
Flags: W
LayerCount: 2
Fore
SplineSet
126 -8 m 0,0,1
 140 -8 140 -8 160 -6 c 128,-1,2
 180 -4 180 -4 199 4 c 1,3,-1
 196 94 l 1,4,5
 186 90 186 90 175 85.5 c 128,-1,6
 164 81 164 81 154 80 c 0,7,8
 145 81 145 81 140 84 c 128,-1,9
 135 87 135 87 133.5 95.5 c 128,-1,10
 132 104 132 104 134.5 119 c 128,-1,11
 137 134 137 134 142 159 c 0,12,13
 148 184 148 184 159 227 c 128,-1,14
 170 270 170 270 183 320.5 c 128,-1,15
 196 371 196 371 210 423 c 128,-1,16
 224 475 224 475 235 518 c 1,17,-1
 141 527 l 1,18,19
 127 472 127 472 114.5 421 c 128,-1,20
 102 370 102 370 90.5 321 c 128,-1,21
 79 272 79 272 68.5 225.5 c 128,-1,22
 58 179 58 179 48 134 c 0,23,24
 40 97 40 97 41.5 70 c 128,-1,25
 43 43 43 43 53.5 26 c 128,-1,26
 64 9 64 9 82.5 0.5 c 128,-1,27
 101 -8 101 -8 126 -8 c 0,0,1
247 818 m 1,28,-1
 171 591 l 1,29,-1
 227 582 l 1,30,-1
 318 802 l 1,31,-1
 247 818 l 1,28,-1
EndSplineSet
EndChar

StartChar: upsilondieresistonos
Encoding: 944 944 456
Width: 565
GlyphClass: 1
Flags: W
LayerCount: 2
Fore
SplineSet
58 186 m 0,0,1
 46 136 46 136 54.5 99 c 128,-1,2
 63 62 63 62 87 38.5 c 128,-1,3
 111 15 111 15 146.5 3.5 c 128,-1,4
 182 -8 182 -8 224 -8 c 0,5,6
 276 -8 276 -8 320.5 8 c 128,-1,7
 365 24 365 24 401 58 c 128,-1,8
 437 92 437 92 464 144.5 c 128,-1,9
 491 197 491 197 507 270 c 0,10,11
 513 297 513 297 519.5 329 c 128,-1,12
 526 361 526 361 531.5 394.5 c 128,-1,13
 537 428 537 428 540.5 460 c 128,-1,14
 544 492 544 492 544 518 c 1,15,-1
 454 527 l 1,16,17
 453 492 453 492 449.5 458 c 128,-1,18
 446 424 446 424 441 393 c 128,-1,19
 436 362 436 362 430.5 335.5 c 128,-1,20
 425 309 425 309 420 289 c 0,21,22
 396 179 396 179 349 130 c 128,-1,23
 302 81 302 81 234 80 c 0,24,25
 211 81 211 81 192 86 c 128,-1,26
 173 91 173 91 161 102.5 c 128,-1,27
 149 114 149 114 144.5 133 c 128,-1,28
 140 152 140 152 146 181 c 0,29,30
 149 193 149 193 154 209.5 c 128,-1,31
 159 226 159 226 164 245.5 c 128,-1,32
 169 265 169 265 174.5 286.5 c 128,-1,33
 180 308 180 308 185 329 c 0,34,35
 193 362 193 362 197 388 c 128,-1,36
 201 414 201 414 203 436 c 128,-1,37
 205 458 205 458 205 477.5 c 128,-1,38
 205 497 205 497 204 518 c 1,39,-1
 117 527 l 1,40,41
 118 488 118 488 115.5 444 c 128,-1,42
 113 400 113 400 101 344 c 0,43,44
 95 321 95 321 88.5 297 c 128,-1,45
 82 273 82 273 76 252 c 128,-1,46
 70 231 70 231 65.5 214 c 128,-1,47
 61 197 61 197 58 186 c 0,0,1
148 660 m 0,48,49
 140 630 140 630 155.5 608 c 128,-1,50
 171 586 171 586 201 586 c 0,51,52
 227 586 227 586 247 602.5 c 128,-1,53
 267 619 267 619 272 644 c 0,54,55
 279 675 279 675 264.5 695.5 c 128,-1,56
 250 716 250 716 220 716 c 0,57,58
 193 716 193 716 173 701 c 128,-1,59
 153 686 153 686 148 660 c 0,48,49
431 660 m 0,60,61
 424 630 424 630 440 608 c 128,-1,62
 456 586 456 586 486 586 c 0,63,64
 511 586 511 586 531.5 602.5 c 128,-1,65
 552 619 552 619 557 644 c 0,66,67
 564 675 564 675 548.5 695.5 c 128,-1,68
 533 716 533 716 504 716 c 0,69,70
 479 716 479 716 458 701 c 128,-1,71
 437 686 437 686 431 660 c 0,60,61
375 821 m 1,72,-1
 298 594 l 1,73,-1
 355 585 l 1,74,-1
 446 806 l 1,75,-1
 375 821 l 1,72,-1
EndSplineSet
EndChar

StartChar: alpha
Encoding: 945 945 457
Width: 618
GlyphClass: 1
Flags: W
LayerCount: 2
Fore
SplineSet
415 250 m 2,0,1
 403 227 403 227 387 197 c 128,-1,2
 371 167 371 167 348 141 c 128,-1,3
 325 115 325 115 295 97 c 128,-1,4
 265 79 265 79 225 79 c 0,5,6
 197 79 197 79 174 89 c 128,-1,7
 151 99 151 99 136 120.5 c 128,-1,8
 121 142 121 142 117.5 174.5 c 128,-1,9
 114 207 114 207 124 253 c 0,10,11
 135 303 135 303 155.5 339 c 128,-1,12
 176 375 176 375 201 398 c 128,-1,13
 226 421 226 421 252.5 432.5 c 128,-1,14
 279 444 279 444 303 444 c 0,15,16
 328 444 328 444 345.5 433 c 128,-1,17
 363 422 363 422 374.5 403.5 c 128,-1,18
 386 385 386 385 392.5 360.5 c 128,-1,19
 399 336 399 336 402 309 c 128,-1,20
 405 282 405 282 405 255 c 128,-1,21
 405 228 405 228 403 203 c 1,22,-1
 469 281 l 1,23,24
 472 328 472 328 465.5 372.5 c 128,-1,25
 459 417 459 417 440.5 451.5 c 128,-1,26
 422 486 422 486 390.5 507 c 128,-1,27
 359 528 359 528 311 528 c 0,28,29
 266 528 266 528 223 507.5 c 128,-1,30
 180 487 180 487 144.5 451.5 c 128,-1,31
 109 416 109 416 82.5 366.5 c 128,-1,32
 56 317 56 317 43 259 c 256,33,34
 30 201 30 201 35 152 c 128,-1,35
 40 103 40 103 61 67.5 c 128,-1,36
 82 32 82 32 117.5 12 c 128,-1,37
 153 -8 153 -8 199 -8 c 0,38,39
 239 -8 239 -8 276.5 6 c 128,-1,40
 314 20 314 20 348 45.5 c 128,-1,41
 382 71 382 71 410.5 106 c 128,-1,42
 439 141 439 141 462 182 c 2,43,-1
 646 520 l 1,44,-1
 559 520 l 1,45,-1
 415 250 l 2,0,1
551 71 m 1,46,-1
 528 84 l 2,47,48
 519 89 519 89 510 97.5 c 128,-1,49
 501 106 501 106 492.5 120.5 c 128,-1,50
 484 135 484 135 477 155 c 128,-1,51
 470 175 470 175 466 201 c 1,52,-1
 404 143 l 1,53,54
 402 115 402 115 406 92.5 c 128,-1,55
 410 70 410 70 419 53 c 128,-1,56
 428 36 428 36 441.5 23 c 128,-1,57
 455 10 455 10 471 1 c 2,58,-1
 489 -8 l 1,59,-1
 551 71 l 1,46,-1
EndSplineSet
EndChar

StartChar: beta
Encoding: 946 946 458
Width: 656
GlyphClass: 1
Flags: W
LayerCount: 2
Fore
SplineSet
115 57 m 1,0,1
 132 40 132 40 154 27.5 c 128,-1,2
 176 15 176 15 200.5 7 c 128,-1,3
 225 -1 225 -1 250.5 -4.5 c 128,-1,4
 276 -8 276 -8 301 -8 c 0,5,6
 352 -8 352 -8 399.5 10 c 128,-1,7
 447 28 447 28 485 58 c 128,-1,8
 523 88 523 88 549.5 128 c 128,-1,9
 576 168 576 168 585 212 c 0,10,11
 595 250 595 250 591 284.5 c 128,-1,12
 587 319 587 319 569.5 346.5 c 128,-1,13
 552 374 552 374 522 392 c 128,-1,14
 492 410 492 410 449 416 c 1,15,-1
 455 420 l 2,16,17
 483 434 483 434 506.5 452.5 c 128,-1,18
 530 471 530 471 548 492.5 c 128,-1,19
 566 514 566 514 578.5 538.5 c 128,-1,20
 591 563 591 563 596 588 c 0,21,22
 604 624 604 624 597 656.5 c 128,-1,23
 590 689 590 689 568 713.5 c 128,-1,24
 546 738 546 738 511 752.5 c 128,-1,25
 476 767 476 767 428 766 c 0,26,27
 371 767 371 767 323 745.5 c 128,-1,28
 275 724 275 724 238 685.5 c 128,-1,29
 201 647 201 647 175 594 c 128,-1,30
 149 541 149 541 135 478 c 2,31,-1
 -20 -207 l 1,32,-1
 72 -212 l 1,33,34
 89 -127 89 -127 101 -59.5 c 128,-1,35
 113 8 113 8 120 54 c 1,36,-1
 137 121 l 2,37,38
 148 161 148 161 156.5 196.5 c 128,-1,39
 165 232 165 232 174 271 c 128,-1,40
 183 310 183 310 194 356.5 c 128,-1,41
 205 403 205 403 219 465 c 0,42,43
 230 513 230 513 248 553 c 128,-1,44
 266 593 266 593 291 622 c 128,-1,45
 316 651 316 651 347 666.5 c 128,-1,46
 378 682 378 682 415 682 c 0,47,48
 444 682 444 682 463.5 674.5 c 128,-1,49
 483 667 483 667 494.5 653.5 c 128,-1,50
 506 640 506 640 509 622 c 128,-1,51
 512 604 512 604 507 585 c 0,52,53
 501 560 501 560 485 536 c 128,-1,54
 469 512 469 512 443.5 491.5 c 128,-1,55
 418 471 418 471 384 456 c 128,-1,56
 350 441 350 441 310 433 c 1,57,-1
 300 365 l 1,58,59
 302 366 302 366 309.5 367 c 128,-1,60
 317 368 317 368 327.5 369 c 128,-1,61
 338 370 338 370 349.5 370.5 c 128,-1,62
 361 371 361 371 371 370 c 0,63,64
 409 371 409 371 437.5 361 c 128,-1,65
 466 351 466 351 484 332.5 c 128,-1,66
 502 314 502 314 508.5 289 c 128,-1,67
 515 264 515 264 509 235 c 0,68,69
 502 202 502 202 481.5 173 c 128,-1,70
 461 144 461 144 432 122 c 128,-1,71
 403 100 403 100 368.5 87 c 128,-1,72
 334 74 334 74 298 73 c 0,73,74
 280 74 280 74 258 77.5 c 128,-1,75
 236 81 236 81 213.5 89.5 c 128,-1,76
 191 98 191 98 169.5 111 c 128,-1,77
 148 124 148 124 131 144 c 1,78,-1
 115 57 l 1,0,1
EndSplineSet
EndChar

StartChar: gamma
Encoding: 947 947 459
Width: 564
GlyphClass: 1
Flags: W
LayerCount: 2
Fore
SplineSet
182 -212 m 1,0,1
 218 -100 218 -100 245 9.5 c 128,-1,2
 272 119 272 119 277 217.5 c 128,-1,3
 282 316 282 316 257.5 398 c 128,-1,4
 233 480 233 480 167 537 c 1,5,-1
 100 466 l 1,6,7
 137 437 137 437 156.5 393 c 128,-1,8
 176 349 176 349 182 295.5 c 128,-1,9
 188 242 188 242 183 181 c 128,-1,10
 178 120 178 120 165 55.5 c 128,-1,11
 152 -9 152 -9 134 -74.5 c 128,-1,12
 116 -140 116 -140 96 -202 c 1,13,-1
 182 -212 l 1,0,1
225 -5 m 1,14,15
 299 72 299 72 354.5 137.5 c 128,-1,16
 410 203 410 203 453 265 c 128,-1,17
 496 327 496 327 530 388.5 c 128,-1,18
 564 450 564 450 595 517 c 1,19,-1
 498 527 l 1,20,21
 478 472 478 472 448.5 416.5 c 128,-1,22
 419 361 419 361 384 308.5 c 128,-1,23
 349 256 349 256 310 208 c 128,-1,24
 271 160 271 160 232 120 c 1,25,-1
 225 -5 l 1,14,15
EndSplineSet
EndChar

StartChar: delta
Encoding: 948 948 460
Width: 610
GlyphClass: 1
Flags: W
LayerCount: 2
Fore
SplineSet
254 -8 m 0,0,1
 307 -8 307 -8 356.5 11 c 128,-1,2
 406 30 406 30 446.5 64.5 c 128,-1,3
 487 99 487 99 516.5 146.5 c 128,-1,4
 546 194 546 194 559 250 c 0,5,6
 572 309 572 309 563.5 352.5 c 128,-1,7
 555 396 555 396 534.5 429 c 128,-1,8
 514 462 514 462 487 485.5 c 128,-1,9
 460 509 460 509 436 527 c 0,10,11
 415 541 415 541 394.5 555 c 128,-1,12
 374 569 374 569 358 582.5 c 128,-1,13
 342 596 342 596 333.5 610.5 c 128,-1,14
 325 625 325 625 328 640 c 0,15,16
 333 657 333 657 352 667.5 c 128,-1,17
 371 678 371 678 403 678 c 0,18,19
 427 678 427 678 455.5 671.5 c 128,-1,20
 484 665 484 665 512.5 654 c 128,-1,21
 541 643 541 643 567 627 c 128,-1,22
 593 611 593 611 612 591 c 1,23,-1
 669 664 l 1,24,25
 652 681 652 681 624.5 699 c 128,-1,26
 597 717 597 717 563.5 731.5 c 128,-1,27
 530 746 530 746 491 755 c 128,-1,28
 452 764 452 764 411 763 c 0,29,30
 339 763 339 763 291.5 734 c 128,-1,31
 244 705 244 705 232 653 c 0,32,33
 225 620 225 620 235.5 594.5 c 128,-1,34
 246 569 246 569 266.5 548 c 128,-1,35
 287 527 287 527 313.5 510 c 128,-1,36
 340 493 340 493 364 476 c 0,37,38
 390 458 390 458 414 437 c 128,-1,39
 438 416 438 416 455.5 389.5 c 128,-1,40
 473 363 473 363 479.5 329.5 c 128,-1,41
 486 296 486 296 476 254 c 0,42,43
 468 215 468 215 448 183 c 128,-1,44
 428 151 428 151 400 128 c 128,-1,45
 372 105 372 105 338.5 92 c 128,-1,46
 305 79 305 79 269 79 c 256,47,48
 233 79 233 79 204.5 91.5 c 128,-1,49
 176 104 176 104 158 126.5 c 128,-1,50
 140 149 140 149 133.5 180.5 c 128,-1,51
 127 212 127 212 136 250 c 256,52,53
 145 288 145 288 166.5 321 c 128,-1,54
 188 354 188 354 217.5 379 c 128,-1,55
 247 404 247 404 282.5 418 c 128,-1,56
 318 432 318 432 355 432 c 0,57,58
 386 432 386 432 415 422.5 c 128,-1,59
 444 413 444 413 463 393 c 1,60,-1
 434 476 l 1,61,62
 418 487 418 487 392 493 c 128,-1,63
 366 499 366 499 339 501 c 0,64,65
 290 502 290 502 244 483 c 128,-1,66
 198 464 198 464 160.5 431 c 128,-1,67
 123 398 123 398 95.5 353 c 128,-1,68
 68 308 68 308 57 255 c 0,69,70
 44 201 44 201 52 153.5 c 128,-1,71
 60 106 60 106 86 70 c 128,-1,72
 112 34 112 34 154.5 13 c 128,-1,73
 197 -8 197 -8 254 -8 c 0,0,1
EndSplineSet
EndChar

StartChar: epsilon
Encoding: 949 949 461
Width: 474
GlyphClass: 1
Flags: W
LayerCount: 2
Fore
SplineSet
381 99 m 1,0,1
 335 87 335 87 301.5 82 c 128,-1,2
 268 77 268 77 234 77 c 0,3,4
 169 77 169 77 139.5 97.5 c 128,-1,5
 110 118 110 118 117 156 c 0,6,7
 122 176 122 176 136.5 189.5 c 128,-1,8
 151 203 151 203 172 211 c 128,-1,9
 193 219 193 219 219 222 c 128,-1,10
 245 225 245 225 273 225 c 2,11,-1
 321 225 l 1,12,-1
 340 310 l 1,13,-1
 286 310 l 2,14,15
 262 310 262 310 241.5 314.5 c 128,-1,16
 221 319 221 319 207.5 327 c 128,-1,17
 194 335 194 335 188 347 c 128,-1,18
 182 359 182 359 186 374 c 0,19,20
 190 388 190 388 199 400 c 128,-1,21
 208 412 208 412 224 421.5 c 128,-1,22
 240 431 240 431 264 436.5 c 128,-1,23
 288 442 288 442 321 442 c 0,24,25
 338 442 338 442 355.5 440.5 c 128,-1,26
 373 439 373 439 389 436 c 128,-1,27
 405 433 405 433 419 429.5 c 128,-1,28
 433 426 433 426 443 421 c 1,29,-1
 486 505 l 1,30,31
 455 522 455 522 415 525 c 128,-1,32
 375 528 375 528 340 528 c 0,33,34
 289 528 289 528 248.5 517.5 c 128,-1,35
 208 507 208 507 178.5 488.5 c 128,-1,36
 149 470 149 470 130.5 445.5 c 128,-1,37
 112 421 112 421 105 393 c 0,38,39
 101 372 101 372 103.5 353 c 128,-1,40
 106 334 106 334 113 318.5 c 128,-1,41
 120 303 120 303 130 292 c 128,-1,42
 140 281 140 281 151 276 c 1,43,-1
 148 274 l 1,44,45
 131 268 131 268 112.5 256 c 128,-1,46
 94 244 94 244 77 227 c 128,-1,47
 60 210 60 210 47 189 c 128,-1,48
 34 168 34 168 29 143 c 0,49,50
 20 108 20 108 31 79.5 c 128,-1,51
 42 51 42 51 68 31.5 c 128,-1,52
 94 12 94 12 133 2 c 128,-1,53
 172 -8 172 -8 218 -8 c 0,54,55
 240 -8 240 -8 263 -6.5 c 128,-1,56
 286 -5 286 -5 308.5 -2 c 128,-1,57
 331 1 331 1 350 4.5 c 128,-1,58
 369 8 369 8 381 12 c 1,59,-1
 381 99 l 1,0,1
EndSplineSet
EndChar

StartChar: zeta
Encoding: 950 950 462
Width: 491
GlyphClass: 1
Flags: W
LayerCount: 2
Fore
SplineSet
235 -179 m 0,0,1
 270 -179 270 -179 303 -168 c 128,-1,2
 336 -157 336 -157 363.5 -137.5 c 128,-1,3
 391 -118 391 -118 410.5 -91.5 c 128,-1,4
 430 -65 430 -65 437 -34 c 0,5,6
 443 -9 443 -9 439 12.5 c 128,-1,7
 435 34 435 34 422 50 c 128,-1,8
 409 66 409 66 387.5 74.5 c 128,-1,9
 366 83 366 83 338 83 c 0,10,11
 331 83 331 83 318.5 82.5 c 128,-1,12
 306 82 306 82 291.5 81 c 128,-1,13
 277 80 277 80 261.5 79.5 c 128,-1,14
 246 79 246 79 233 79 c 0,15,16
 214 79 214 79 192.5 82 c 128,-1,17
 171 85 171 85 155 96 c 128,-1,18
 139 107 139 107 132.5 130.5 c 128,-1,19
 126 154 126 154 136 194 c 0,20,21
 145 233 145 233 167 275.5 c 128,-1,22
 189 318 189 318 220.5 361 c 128,-1,23
 252 404 252 404 291 446.5 c 128,-1,24
 330 489 330 489 372.5 527.5 c 128,-1,25
 415 566 415 566 459 599.5 c 128,-1,26
 503 633 503 633 545 658 c 1,27,-1
 556 721 l 1,28,-1
 388 721 l 2,29,30
 375 721 375 721 364 722 c 128,-1,31
 353 723 353 723 345.5 726.5 c 128,-1,32
 338 730 338 730 334.5 736 c 128,-1,33
 331 742 331 742 333 751 c 0,34,35
 335 759 335 759 340.5 770.5 c 128,-1,36
 346 782 346 782 355 790 c 1,37,-1
 285 824 l 1,38,39
 268 805 268 805 259.5 788.5 c 128,-1,40
 251 772 251 772 246 755 c 0,41,42
 241 731 241 731 246 711 c 128,-1,43
 251 691 251 691 266 676 c 128,-1,44
 281 661 281 661 305 653 c 128,-1,45
 329 645 329 645 363 645 c 2,46,-1
 453 645 l 1,47,-1
 439 683 l 1,48,49
 384 648 384 648 322 594.5 c 128,-1,50
 260 541 260 541 204 475.5 c 128,-1,51
 148 410 148 410 105 337 c 128,-1,52
 62 264 62 264 45 189 c 0,53,54
 31 127 31 127 40.5 88.5 c 128,-1,55
 50 50 50 50 74.5 28.5 c 128,-1,56
 99 7 99 7 134 -0.5 c 128,-1,57
 169 -8 169 -8 205 -8 c 0,58,59
 222 -8 222 -8 237.5 -7 c 128,-1,60
 253 -6 253 -6 266.5 -5 c 128,-1,61
 280 -4 280 -4 291.5 -3 c 128,-1,62
 303 -2 303 -2 312 -2 c 0,63,64
 337 -2 337 -2 344 -14.5 c 128,-1,65
 351 -27 351 -27 350 -35 c 0,66,67
 347 -47 347 -47 337 -57 c 128,-1,68
 327 -67 327 -67 311 -74.5 c 128,-1,69
 295 -82 295 -82 274.5 -86.5 c 128,-1,70
 254 -91 254 -91 231 -91 c 0,71,72
 214 -91 214 -91 193.5 -88.5 c 128,-1,73
 173 -86 173 -86 159 -82 c 1,74,-1
 143 -169 l 1,75,76
 166 -174 166 -174 190.5 -177.5 c 128,-1,77
 215 -181 215 -181 235 -179 c 0,0,1
EndSplineSet
EndChar

StartChar: eta
Encoding: 951 951 463
Width: 557
GlyphClass: 1
Flags: W
LayerCount: 2
Fore
SplineSet
87 -2 m 1,0,1
 119 93 119 93 144 175 c 128,-1,2
 169 257 169 257 187 336 c 0,3,4
 195 372 195 372 197 401.5 c 128,-1,5
 199 431 199 431 192.5 454.5 c 128,-1,6
 186 478 186 478 171 496 c 128,-1,7
 156 514 156 514 131 528 c 1,8,-1
 69 451 l 1,9,10
 83 443 83 443 91 432.5 c 128,-1,11
 99 422 99 422 101.5 404.5 c 128,-1,12
 104 387 104 387 101 360 c 128,-1,13
 98 333 98 333 89 293 c 0,14,15
 72 229 72 229 49 153.5 c 128,-1,16
 26 78 26 78 0 2 c 1,17,-1
 87 -2 l 1,0,1
344 -208 m 1,18,19
 364 -165 364 -165 386.5 -106.5 c 128,-1,20
 409 -48 409 -48 430.5 15.5 c 128,-1,21
 452 79 452 79 470.5 141.5 c 128,-1,22
 489 204 489 204 501 255 c 0,23,24
 534 398 534 398 510.5 463 c 128,-1,25
 487 528 487 528 405 528 c 0,26,27
 371 528 371 528 335 515.5 c 128,-1,28
 299 503 299 503 266.5 482 c 128,-1,29
 234 461 234 461 208 432 c 128,-1,30
 182 403 182 403 168 369 c 1,31,-1
 151 200 l 1,32,33
 164 248 164 248 186 290.5 c 128,-1,34
 208 333 208 333 235.5 365.5 c 128,-1,35
 263 398 263 398 295 417 c 128,-1,36
 327 436 327 436 359 436 c 0,37,38
 408 436 408 436 420 389 c 128,-1,39
 432 342 432 342 408 233 c 0,40,41
 399 194 399 194 385 146 c 128,-1,42
 371 98 371 98 352 42.5 c 128,-1,43
 333 -13 333 -13 309 -75 c 128,-1,44
 285 -137 285 -137 256 -204 c 1,45,-1
 344 -208 l 1,18,19
EndSplineSet
EndChar

StartChar: theta
Encoding: 952 952 464
Width: 647
GlyphClass: 1
Flags: W
LayerCount: 2
Fore
SplineSet
269 -8 m 256,0,1
 326 -8 326 -8 378.5 20 c 128,-1,2
 431 48 431 48 475.5 98.5 c 128,-1,3
 520 149 520 149 553.5 218.5 c 128,-1,4
 587 288 587 288 606 372 c 0,5,6
 626 461 626 461 624 534 c 128,-1,7
 622 607 622 607 599.5 658.5 c 128,-1,8
 577 710 577 710 535.5 738.5 c 128,-1,9
 494 767 494 767 436 766 c 0,10,11
 382 767 382 767 329 740 c 128,-1,12
 276 713 276 713 231 663.5 c 128,-1,13
 186 614 186 614 151 544.5 c 128,-1,14
 116 475 116 475 96 389 c 0,15,16
 75 298 75 298 78 224.5 c 128,-1,17
 81 151 81 151 104.5 99 c 128,-1,18
 128 47 128 47 170 19.5 c 128,-1,19
 212 -8 212 -8 269 -8 c 256,0,1
268 76 m 0,20,21
 231 76 231 76 206.5 100 c 128,-1,22
 182 124 182 124 170.5 163.5 c 128,-1,23
 159 203 159 203 160 255.5 c 128,-1,24
 161 308 161 308 175 366 c 0,25,26
 193 436 193 436 222 493.5 c 128,-1,27
 251 551 251 551 286 592.5 c 128,-1,28
 321 634 321 634 359 656.5 c 128,-1,29
 397 679 397 679 433 679 c 0,30,31
 471 679 471 679 495.5 657 c 128,-1,32
 520 635 520 635 532 597 c 128,-1,33
 544 559 544 559 542.5 506.5 c 128,-1,34
 541 454 541 454 526 393 c 0,35,36
 510 326 510 326 482 268 c 128,-1,37
 454 210 454 210 419 167.5 c 128,-1,38
 384 125 384 125 345 100.5 c 128,-1,39
 306 76 306 76 268 76 c 0,20,21
548 347 m 1,40,-1
 564 414 l 1,41,-1
 155 414 l 1,42,-1
 139 347 l 1,43,-1
 548 347 l 1,40,-1
EndSplineSet
EndChar

StartChar: iota
Encoding: 953 953 465
Width: 300
GlyphClass: 1
Flags: W
LayerCount: 2
Fore
SplineSet
126 -8 m 0,0,1
 140 -8 140 -8 160 -6 c 128,-1,2
 180 -4 180 -4 199 4 c 1,3,-1
 196 94 l 1,4,5
 186 90 186 90 175 85.5 c 128,-1,6
 164 81 164 81 154 80 c 0,7,8
 145 81 145 81 140 84 c 128,-1,9
 135 87 135 87 133.5 95.5 c 128,-1,10
 132 104 132 104 134.5 119 c 128,-1,11
 137 134 137 134 142 159 c 0,12,13
 148 184 148 184 159 227 c 128,-1,14
 170 270 170 270 183 320.5 c 128,-1,15
 196 371 196 371 210 423 c 128,-1,16
 224 475 224 475 235 518 c 1,17,-1
 141 527 l 1,18,19
 127 472 127 472 114.5 421 c 128,-1,20
 102 370 102 370 90.5 321 c 128,-1,21
 79 272 79 272 68.5 225.5 c 128,-1,22
 58 179 58 179 48 134 c 0,23,24
 40 97 40 97 41.5 70 c 128,-1,25
 43 43 43 43 53.5 26 c 128,-1,26
 64 9 64 9 82.5 0.5 c 128,-1,27
 101 -8 101 -8 126 -8 c 0,0,1
EndSplineSet
EndChar

StartChar: kappa
Encoding: 954 954 466
Width: 578
GlyphClass: 1
Flags: W
LayerCount: 2
Fore
SplineSet
101 -2 m 1,0,1
 146 87 146 87 205.5 164 c 128,-1,2
 265 241 265 241 328.5 299 c 128,-1,3
 392 357 392 357 454.5 393 c 128,-1,4
 517 429 517 429 567 436 c 1,5,-1
 586 528 l 1,6,7
 543 522 543 522 487 500 c 128,-1,8
 431 478 431 478 370 435 c 128,-1,9
 309 392 309 392 246.5 325.5 c 128,-1,10
 184 259 184 259 129 165 c 1,11,-1
 143 163 l 1,12,13
 162 221 162 221 175.5 265 c 128,-1,14
 189 309 189 309 196 345 c 0,15,16
 206 385 206 385 206.5 415.5 c 128,-1,17
 207 446 207 446 200.5 468 c 128,-1,18
 194 490 194 490 181 504.5 c 128,-1,19
 168 519 168 519 150 528 c 1,20,-1
 91 453 l 1,21,22
 108 445 108 445 116 431 c 128,-1,23
 124 417 124 417 126 397 c 128,-1,24
 128 377 128 377 124 351.5 c 128,-1,25
 120 326 120 326 113 294 c 0,26,27
 97 226 97 226 70 152 c 128,-1,28
 43 78 43 78 14 2 c 1,29,-1
 101 -2 l 1,0,1
483 64 m 1,30,31
 448 82 448 82 421 111 c 128,-1,32
 394 140 394 140 376 176 c 128,-1,33
 358 212 358 212 348.5 251 c 128,-1,34
 339 290 339 290 340 328 c 1,35,-1
 270 277 l 1,36,37
 267 237 267 237 278 193.5 c 128,-1,38
 289 150 289 150 310 110.5 c 128,-1,39
 331 71 331 71 360.5 39.5 c 128,-1,40
 390 8 390 8 424 -8 c 1,41,-1
 483 64 l 1,30,31
EndSplineSet
EndChar

